<svg height="60" style="min-width:300px;" viewBox="0 0 300 60" width="300" xmlns="http://www.w3.org/2000/svg"><g fill="none" fill-rule="evenodd"><rect fill="#e21e8e" height="60" rx="5" stroke="#e21e8e" width="300"/><path d="m114.76 38.28c.693333 0 1.37-.0666667 2.03-.2s1.203333-.3533333 1.63-.66l-.56-2.24c-.306667.1866667-.666667.34-1.08.46s-.92.18-1.52.18c-.64 0-1.203333-.1166667-1.69-.35s-.893333-.56-1.22-.98-.57-.9266667-.73-1.52-.24-1.25-.24-1.97c0-1.6533333.336667-2.8733333 1.01-3.66s1.563333-1.18 2.67-1.18c.6 0 1.11.0333333 1.53.1s.783333.1733333 1.09.32l.54-2.32c-.36-.1466667-.816667-.2733333-1.37-.38s-1.23-.16-2.03-.16c-.746667 0-1.493333.1233333-2.24.37s-1.423333.6533333-2.03 1.22-1.1 1.3133333-1.48 2.24-.57 2.0766667-.57 3.45c0 1.32.17 2.4433333.51 3.37s.796667 1.68 1.37 2.26 1.236667 1 1.99 1.26 1.55.39 2.39.39zm14.58-.28v-2.44h-6.12v-11.56h-2.74v14zm4.8 0v-14h-2.74v14zm8.86.28c.693333 0 1.37-.0666667 2.03-.2s1.203333-.3533333 1.63-.66l-.56-2.24c-.306667.1866667-.666667.34-1.08.46s-.92.18-1.52.18c-.64 0-1.203333-.1166667-1.69-.35s-.893333-.56-1.22-.98-.57-.9266667-.73-1.52-.24-1.25-.24-1.97c0-1.6533333.336667-2.8733333 1.01-3.66s1.563333-1.18 2.67-1.18c.6 0 1.11.0333333 1.53.1s.783333.1733333 1.09.32l.54-2.32c-.36-.1466667-.816667-.2733333-1.37-.38s-1.23-.16-2.03-.16c-.746667 0-1.493333.1233333-2.24.37s-1.423333.6533333-2.03 1.22-1.1 1.3133333-1.48 2.24-.57 2.0766667-.57 3.45c0 1.32.17 2.4433333.51 3.37s.796667 1.68 1.37 2.26 1.236667 1 1.99 1.26 1.55.39 2.39.39zm8.46-.28v-5.98h.72l4.14 5.98h3.38l-4.66-6.58-1.12-.78 1.08-.76 4.08-5.88h-3.12l-3.86 5.92-.64.28v-6.2h-2.74v14zm17.44 0v-7.28l-.4-2.76h.1l.88 2.22 3.14 5.24h.88l2.98-5.22.86-2.24h.12l-.3 2.78v7.26h2.74v-14h-2.48l-3.54 6.36-.6 1.64h-.08l-.66-1.6-3.74-6.4h-2.5v14zm22.16 0v-2.44h-5.66v-3.42h5.06v-2.44h-5.06v-3.26h5.56v-2.44h-8.3v14z" fill="#fcf3f8" fill-rule="nonzero"/></g></svg>