<svg xmlns="http://www.w3.org/2000/svg" width="150" height="42" viewBox="0 0 150 42">
  <g fill="none" fill-rule="evenodd">
    <path fill="#E21E8E" d="M0,5 L0,37 C3.38176876e-16,39.7614237 2.23857625,42 5,42 L145,42 C147.761424,42 150,39.7614237 150,37 L150,5 C150,2.23857625 147.761424,-5.07265313e-16 145,0 L5,0 C2.23857625,5.07265313e-16 -3.38176876e-16,2.23857625 0,5 Z"/>
    <path fill="#FFF" fill-rule="nonzero" d="M51.13,27.196 C51.6153333,27.196 52.089,27.1493333 52.551,27.056 C53.013,26.9626667 53.3933333,26.8086667 53.692,26.594 L53.692,26.594 L53.3,25.026 C53.0853333,25.1566667 52.8333333,25.264 52.544,25.348 C52.2546667,25.432 51.9,25.474 51.48,25.474 C51.032,25.474 50.6376667,25.3923333 50.297,25.229 C49.9563333,25.0656667 49.6716667,24.837 49.443,24.543 C49.2143333,24.249 49.044,23.8943333 48.932,23.479 C48.82,23.0636667 48.764,22.604 48.764,22.1 C48.764,20.9426667 48.9996667,20.0886667 49.471,19.538 C49.9423333,18.9873333 50.5653333,18.712 51.34,18.712 C51.76,18.712 52.117,18.7353333 52.411,18.782 C52.705,18.8286667 52.9593333,18.9033333 53.174,19.006 L53.174,19.006 L53.552,17.382 C53.3,17.2793333 52.9803333,17.1906667 52.593,17.116 C52.2056667,17.0413333 51.732,17.004 51.172,17.004 C50.6493333,17.004 50.1266667,17.0903333 49.604,17.263 C49.0813333,17.4356667 48.6076667,17.7203333 48.183,18.117 C47.7583333,18.5136667 47.413,19.0363333 47.147,19.685 C46.881,20.3336667 46.748,21.1386667 46.748,22.1 C46.748,23.024 46.867,23.8103333 47.105,24.459 C47.343,25.1076667 47.6626667,25.635 48.064,26.041 C48.4653333,26.447 48.9296667,26.741 49.457,26.923 C49.9843333,27.105 50.542,27.196 51.13,27.196 Z M61.084,27 L61.084,25.292 L56.8,25.292 L56.8,17.2 L54.882,17.2 L54.882,27 L61.084,27 Z M64.192,27 L64.192,17.2 L62.274,17.2 L62.274,27 L64.192,27 Z M70.142,27.196 C70.6273333,27.196 71.101,27.1493333 71.563,27.056 C72.025,26.9626667 72.4053333,26.8086667 72.704,26.594 L72.704,26.594 L72.312,25.026 C72.0973333,25.1566667 71.8453333,25.264 71.556,25.348 C71.2666667,25.432 70.912,25.474 70.492,25.474 C70.044,25.474 69.6496667,25.3923333 69.309,25.229 C68.9683333,25.0656667 68.6836667,24.837 68.455,24.543 C68.2263333,24.249 68.056,23.8943333 67.944,23.479 C67.832,23.0636667 67.776,22.604 67.776,22.1 C67.776,20.9426667 68.0116667,20.0886667 68.483,19.538 C68.9543333,18.9873333 69.5773333,18.712 70.352,18.712 C70.772,18.712 71.129,18.7353333 71.423,18.782 C71.717,18.8286667 71.9713333,18.9033333 72.186,19.006 L72.186,19.006 L72.564,17.382 C72.312,17.2793333 71.9923333,17.1906667 71.605,17.116 C71.2176667,17.0413333 70.744,17.004 70.184,17.004 C69.6613333,17.004 69.1386667,17.0903333 68.616,17.263 C68.0933333,17.4356667 67.6196667,17.7203333 67.195,18.117 C66.7703333,18.5136667 66.425,19.0363333 66.159,19.685 C65.893,20.3336667 65.76,21.1386667 65.76,22.1 C65.76,23.024 65.879,23.8103333 66.117,24.459 C66.355,25.1076667 66.6746667,25.635 67.076,26.041 C67.4773333,26.447 67.9416667,26.741 68.469,26.923 C68.9963333,27.105 69.554,27.196 70.142,27.196 Z M75.812,27 L75.812,22.814 L76.316,22.814 L79.214,27 L81.58,27 L78.318,22.394 L77.534,21.848 L78.29,21.316 L81.146,17.2 L78.962,17.2 L76.26,21.344 L75.812,21.54 L75.812,17.2 L73.894,17.2 L73.894,27 L75.812,27 Z M87.936,27 L87.936,21.904 L87.656,19.972 L87.726,19.972 L88.342,21.526 L90.54,25.194 L91.156,25.194 L93.242,21.54 L93.844,19.972 L93.928,19.972 L93.718,21.918 L93.718,27 L95.636,27 L95.636,17.2 L93.9,17.2 L91.422,21.652 L91.002,22.8 L90.946,22.8 L90.484,21.68 L87.866,17.2 L86.116,17.2 L86.116,27 L87.936,27 Z M103.196,27 L103.196,25.292 L99.234,25.292 L99.234,22.898 L102.776,22.898 L102.776,21.19 L99.234,21.19 L99.234,18.908 L103.126,18.908 L103.126,17.2 L97.316,17.2 L97.316,27 L103.196,27 Z"/>
  </g>
</svg>
