<?xml version="1.0" encoding="UTF-8"?>
<svg width="302px" height="62px" viewBox="0 0 302 62" version="1.1" xmlns="http://www.w3.org/2000/svg" xmlns:xlink="http://www.w3.org/1999/xlink">
    <!-- Generator: Sketch 63.1 (92452) - https://sketch.com -->
    <title>Group</title>
    <desc>Created with Sketch.</desc>
    <g id="Page-1" stroke="none" stroke-width="1" fill="none" fill-rule="evenodd">
        <g id="button/secondary/pink" transform="translate(1.000000, 1.000000)" fill="#E21E8E" fill-rule="nonzero">
            <g id="Group" transform="translate(-1.000000, -1.000000)">
                <path d="M296,0 L6,0 C2.6862915,0 0,2.6862915 0,6 L0,56 C0,59.3137085 2.6862915,62 6,62 L296,62 C299.313708,62 302,59.3137085 302,56 L302,6 C302,2.6862915 299.313708,0 296,0 Z M6,2 L296,2 C298.209139,2 300,3.790861 300,6 L300,56 C300,58.209139 298.209139,60 296,60 L6,60 C3.790861,60 2,58.209139 2,56 L2,6 C2,3.790861 3.790861,2 6,2 Z" id="Rectangle"></path>
                <path d="M115.76,39.28 C116.453333,39.28 117.13,39.2133333 117.79,39.08 C118.45,38.9466667 118.993333,38.7266667 119.42,38.42 L119.42,38.42 L118.86,36.18 C118.553333,36.3666667 118.193333,36.52 117.78,36.64 C117.366667,36.76 116.86,36.82 116.26,36.82 C115.62,36.82 115.056667,36.7033333 114.57,36.47 C114.083333,36.2366667 113.676667,35.91 113.35,35.49 C113.023333,35.07 112.78,34.5633333 112.62,33.97 C112.46,33.3766667 112.38,32.72 112.38,32 C112.38,30.3466667 112.716667,29.1266667 113.39,28.34 C114.063333,27.5533333 114.953333,27.16 116.06,27.16 C116.66,27.16 117.17,27.1933333 117.59,27.26 C118.01,27.3266667 118.373333,27.4333333 118.68,27.58 L118.68,27.58 L119.22,25.26 C118.86,25.1133333 118.403333,24.9866667 117.85,24.88 C117.296667,24.7733333 116.62,24.72 115.82,24.72 C115.073333,24.72 114.326667,24.8433333 113.58,25.09 C112.833333,25.3366667 112.156667,25.7433333 111.55,26.31 C110.943333,26.8766667 110.45,27.6233333 110.07,28.55 C109.69,29.4766667 109.5,30.6266667 109.5,32 C109.5,33.32 109.67,34.4433333 110.01,35.37 C110.35,36.2966667 110.806667,37.05 111.38,37.63 C111.953333,38.21 112.616667,38.63 113.37,38.89 C114.123333,39.15 114.92,39.28 115.76,39.28 Z M130.34,39 L130.34,36.56 L124.22,36.56 L124.22,25 L121.48,25 L121.48,39 L130.34,39 Z M135.14,39 L135.14,25 L132.4,25 L132.4,39 L135.14,39 Z M144,39.28 C144.693333,39.28 145.37,39.2133333 146.03,39.08 C146.69,38.9466667 147.233333,38.7266667 147.66,38.42 L147.66,38.42 L147.1,36.18 C146.793333,36.3666667 146.433333,36.52 146.02,36.64 C145.606667,36.76 145.1,36.82 144.5,36.82 C143.86,36.82 143.296667,36.7033333 142.81,36.47 C142.323333,36.2366667 141.916667,35.91 141.59,35.49 C141.263333,35.07 141.02,34.5633333 140.86,33.97 C140.7,33.3766667 140.62,32.72 140.62,32 C140.62,30.3466667 140.956667,29.1266667 141.63,28.34 C142.303333,27.5533333 143.193333,27.16 144.3,27.16 C144.9,27.16 145.41,27.1933333 145.83,27.26 C146.25,27.3266667 146.613333,27.4333333 146.92,27.58 L146.92,27.58 L147.46,25.26 C147.1,25.1133333 146.643333,24.9866667 146.09,24.88 C145.536667,24.7733333 144.86,24.72 144.06,24.72 C143.313333,24.72 142.566667,24.8433333 141.82,25.09 C141.073333,25.3366667 140.396667,25.7433333 139.79,26.31 C139.183333,26.8766667 138.69,27.6233333 138.31,28.55 C137.93,29.4766667 137.74,30.6266667 137.74,32 C137.74,33.32 137.91,34.4433333 138.25,35.37 C138.59,36.2966667 139.046667,37.05 139.62,37.63 C140.193333,38.21 140.856667,38.63 141.61,38.89 C142.363333,39.15 143.16,39.28 144,39.28 Z M152.46,39 L152.46,33.02 L153.18,33.02 L157.32,39 L160.7,39 L156.04,32.42 L154.92,31.64 L156,30.88 L160.08,25 L156.96,25 L153.1,30.92 L152.46,31.2 L152.46,25 L149.72,25 L149.72,39 L152.46,39 Z M169.9,39 L169.9,31.72 L169.5,28.96 L169.6,28.96 L170.48,31.18 L173.62,36.42 L174.5,36.42 L177.48,31.2 L178.34,28.96 L178.46,28.96 L178.16,31.74 L178.16,39 L180.9,39 L180.9,25 L178.42,25 L174.88,31.36 L174.28,33 L174.2,33 L173.54,31.4 L169.8,25 L167.3,25 L167.3,39 L169.9,39 Z M192.06,39 L192.06,36.56 L186.4,36.56 L186.4,33.14 L191.46,33.14 L191.46,30.7 L186.4,30.7 L186.4,27.44 L191.96,27.44 L191.96,25 L183.66,25 L183.66,39 L192.06,39 Z" id="CLICKME"></path>
            </g>
        </g>
    </g>
</svg>