<svg xmlns="http://www.w3.org/2000/svg" width="142" height="32" viewBox="0 0 142 32">
  <g fill="none" fill-rule="evenodd">
    <rect width="142" height="32" stroke="#E21E8E" rx="5"/>
    <path fill="#E21E8E" fill-rule="nonzero" d="M49.856,20.168 C50.272,20.168 50.678,20.128 51.074,20.048 C51.47,19.968 51.796,19.836 52.052,19.652 L52.052,19.652 L51.716,18.308 C51.532,18.42 51.316,18.512 51.068,18.584 C50.82,18.656 50.516,18.692 50.156,18.692 C49.772,18.692 49.434,18.622 49.142,18.482 C48.85,18.342 48.606,18.146 48.41,17.894 C48.214,17.642 48.068,17.338 47.972,16.982 C47.876,16.626 47.828,16.232 47.828,15.8 C47.828,14.808 48.03,14.076 48.434,13.604 C48.838,13.132 49.372,12.896 50.036,12.896 C50.396,12.896 50.702,12.916 50.954,12.956 C51.206,12.996 51.424,13.06 51.608,13.148 L51.608,13.148 L51.932,11.756 C51.716,11.668 51.442,11.592 51.11,11.528 C50.778,11.464 50.372,11.432 49.892,11.432 C49.444,11.432 48.996,11.506 48.548,11.654 C48.1,11.802 47.694,12.046 47.33,12.386 C46.966,12.726 46.67,13.174 46.442,13.73 C46.214,14.286 46.1,14.976 46.1,15.8 C46.1,16.592 46.202,17.266 46.406,17.822 C46.61,18.378 46.884,18.83 47.228,19.178 C47.572,19.526 47.97,19.778 48.422,19.934 C48.874,20.09 49.352,20.168 49.856,20.168 Z M58.604,20 L58.604,18.536 L54.932,18.536 L54.932,11.6 L53.288,11.6 L53.288,20 L58.604,20 Z M61.484,20 L61.484,11.6 L59.84,11.6 L59.84,20 L61.484,20 Z M66.8,20.168 C67.216,20.168 67.622,20.128 68.018,20.048 C68.414,19.968 68.74,19.836 68.996,19.652 L68.996,19.652 L68.66,18.308 C68.476,18.42 68.26,18.512 68.012,18.584 C67.764,18.656 67.46,18.692 67.1,18.692 C66.716,18.692 66.378,18.622 66.086,18.482 C65.794,18.342 65.55,18.146 65.354,17.894 C65.158,17.642 65.012,17.338 64.916,16.982 C64.82,16.626 64.772,16.232 64.772,15.8 C64.772,14.808 64.974,14.076 65.378,13.604 C65.782,13.132 66.316,12.896 66.98,12.896 C67.34,12.896 67.646,12.916 67.898,12.956 C68.15,12.996 68.368,13.06 68.552,13.148 L68.552,13.148 L68.876,11.756 C68.66,11.668 68.386,11.592 68.054,11.528 C67.722,11.464 67.316,11.432 66.836,11.432 C66.388,11.432 65.94,11.506 65.492,11.654 C65.044,11.802 64.638,12.046 64.274,12.386 C63.91,12.726 63.614,13.174 63.386,13.73 C63.158,14.286 63.044,14.976 63.044,15.8 C63.044,16.592 63.146,17.266 63.35,17.822 C63.554,18.378 63.828,18.83 64.172,19.178 C64.516,19.526 64.914,19.778 65.366,19.934 C65.818,20.09 66.296,20.168 66.8,20.168 Z M71.876,20 L71.876,16.412 L72.308,16.412 L74.792,20 L76.82,20 L74.024,16.052 L73.352,15.584 L74,15.128 L76.448,11.6 L74.576,11.6 L72.26,15.152 L71.876,15.32 L71.876,11.6 L70.232,11.6 L70.232,20 L71.876,20 Z M82.34,20 L82.34,15.632 L82.1,13.976 L82.16,13.976 L82.688,15.308 L84.572,18.452 L85.1,18.452 L86.888,15.32 L87.404,13.976 L87.476,13.976 L87.296,15.644 L87.296,20 L88.94,20 L88.94,11.6 L87.452,11.6 L85.328,15.416 L84.968,16.4 L84.92,16.4 L84.524,15.44 L82.28,11.6 L80.78,11.6 L80.78,20 L82.34,20 Z M95.636,20 L95.636,18.536 L92.24,18.536 L92.24,16.484 L95.276,16.484 L95.276,15.02 L92.24,15.02 L92.24,13.064 L95.576,13.064 L95.576,11.6 L90.596,11.6 L90.596,20 L95.636,20 Z"/>
  </g>
</svg>
