<?xml version="1.0" encoding="UTF-8"?>
<svg width="202px" height="42px" viewBox="0 0 202 42" version="1.1" xmlns="http://www.w3.org/2000/svg" xmlns:xlink="http://www.w3.org/1999/xlink">
    <!-- Generator: Sketch 63.1 (92452) - https://sketch.com -->
    <title>Group</title>
    <desc>Created with Sketch.</desc>
    <g id="Page-1" stroke="none" stroke-width="1" fill="none" fill-rule="evenodd">
        <g id="button/secondary/medium/pink" transform="translate(1.000000, 1.000000)" fill="#E21E8E" fill-rule="nonzero">
            <g id="Group" transform="translate(-1.000000, -1.000000)">
                <path d="M196,0 L6,0 C2.6862915,0 0,2.6862915 0,6 L0,36 C0,39.3137085 2.6862915,42 6,42 L196,42 C199.313708,42 202,39.3137085 202,36 L202,6 C202,2.6862915 199.313708,0 196,0 Z M6,2 L196,2 C198.209139,2 200,3.790861 200,6 L200,36 C200,38.209139 198.209139,40 196,40 L6,40 C3.790861,40 2,38.209139 2,36 L2,6 C2,3.790861 3.790861,2 6,2 Z" id="Rectangle"></path>
                <path d="M72.808,27.5573333 C73.3626667,27.5573333 73.904,27.504 74.432,27.3973333 C74.96,27.2906667 75.3946667,27.1146667 75.736,26.8693333 L75.736,26.8693333 L75.288,25.0773333 C75.0426667,25.2266667 74.7546667,25.3493333 74.424,25.4453333 C74.0933333,25.5413333 73.688,25.5893333 73.208,25.5893333 C72.696,25.5893333 72.2453333,25.496 71.856,25.3093333 C71.4666667,25.1226667 71.1413333,24.8613333 70.88,24.5253333 C70.6186667,24.1893333 70.424,23.784 70.296,23.3093333 C70.168,22.8346667 70.104,22.3093333 70.104,21.7333333 C70.104,20.4106667 70.3733333,19.4346667 70.912,18.8053333 C71.4506667,18.176 72.1626667,17.8613333 73.048,17.8613333 C73.528,17.8613333 73.936,17.888 74.272,17.9413333 C74.608,17.9946667 74.8986667,18.08 75.144,18.1973333 L75.144,18.1973333 L75.576,16.3413333 C75.288,16.224 74.9226667,16.1226667 74.48,16.0373333 C74.0373333,15.952 73.496,15.9093333 72.856,15.9093333 C72.2586667,15.9093333 71.6613333,16.008 71.064,16.2053333 C70.4666667,16.4026667 69.9253333,16.728 69.44,17.1813333 C68.9546667,17.6346667 68.56,18.232 68.256,18.9733333 C67.952,19.7146667 67.8,20.6346667 67.8,21.7333333 C67.8,22.7893333 67.936,23.688 68.208,24.4293333 C68.48,25.1706667 68.8453333,25.7733333 69.304,26.2373333 C69.7626667,26.7013333 70.2933333,27.0373333 70.896,27.2453333 C71.4986667,27.4533333 72.136,27.5573333 72.808,27.5573333 Z M84.472,27.3333333 L84.472,25.3813333 L79.576,25.3813333 L79.576,16.1333333 L77.384,16.1333333 L77.384,27.3333333 L84.472,27.3333333 Z M88.312,27.3333333 L88.312,16.1333333 L86.12,16.1333333 L86.12,27.3333333 L88.312,27.3333333 Z M95.4,27.5573333 C95.9546667,27.5573333 96.496,27.504 97.024,27.3973333 C97.552,27.2906667 97.9866667,27.1146667 98.328,26.8693333 L98.328,26.8693333 L97.88,25.0773333 C97.6346667,25.2266667 97.3466667,25.3493333 97.016,25.4453333 C96.6853333,25.5413333 96.28,25.5893333 95.8,25.5893333 C95.288,25.5893333 94.8373333,25.496 94.448,25.3093333 C94.0586667,25.1226667 93.7333333,24.8613333 93.472,24.5253333 C93.2106667,24.1893333 93.016,23.784 92.888,23.3093333 C92.76,22.8346667 92.696,22.3093333 92.696,21.7333333 C92.696,20.4106667 92.9653333,19.4346667 93.504,18.8053333 C94.0426667,18.176 94.7546667,17.8613333 95.64,17.8613333 C96.12,17.8613333 96.528,17.888 96.864,17.9413333 C97.2,17.9946667 97.4906667,18.08 97.736,18.1973333 L97.736,18.1973333 L98.168,16.3413333 C97.88,16.224 97.5146667,16.1226667 97.072,16.0373333 C96.6293333,15.952 96.088,15.9093333 95.448,15.9093333 C94.8506667,15.9093333 94.2533333,16.008 93.656,16.2053333 C93.0586667,16.4026667 92.5173333,16.728 92.032,17.1813333 C91.5466667,17.6346667 91.152,18.232 90.848,18.9733333 C90.544,19.7146667 90.392,20.6346667 90.392,21.7333333 C90.392,22.7893333 90.528,23.688 90.8,24.4293333 C91.072,25.1706667 91.4373333,25.7733333 91.896,26.2373333 C92.3546667,26.7013333 92.8853333,27.0373333 93.488,27.2453333 C94.0906667,27.4533333 94.728,27.5573333 95.4,27.5573333 Z M102.168,27.3333333 L102.168,22.5493333 L102.744,22.5493333 L106.056,27.3333333 L108.76,27.3333333 L105.032,22.0693333 L104.136,21.4453333 L105,20.8373333 L108.264,16.1333333 L105.768,16.1333333 L102.68,20.8693333 L102.168,21.0933333 L102.168,16.1333333 L99.976,16.1333333 L99.976,27.3333333 L102.168,27.3333333 Z M116.12,27.3333333 L116.12,21.5093333 L115.8,19.3013333 L115.88,19.3013333 L116.584,21.0773333 L119.096,25.2693333 L119.8,25.2693333 L122.184,21.0933333 L122.872,19.3013333 L122.968,19.3013333 L122.728,21.5253333 L122.728,27.3333333 L124.92,27.3333333 L124.92,16.1333333 L122.936,16.1333333 L120.104,21.2213333 L119.624,22.5333333 L119.56,22.5333333 L119.032,21.2533333 L116.04,16.1333333 L114.04,16.1333333 L114.04,27.3333333 L116.12,27.3333333 Z M133.848,27.3333333 L133.848,25.3813333 L129.32,25.3813333 L129.32,22.6453333 L133.368,22.6453333 L133.368,20.6933333 L129.32,20.6933333 L129.32,18.0853333 L133.768,18.0853333 L133.768,16.1333333 L127.128,16.1333333 L127.128,27.3333333 L133.848,27.3333333 Z" id="CLICKME"></path>
            </g>
        </g>
    </g>
</svg>