<svg xmlns="http://www.w3.org/2000/svg" width="200" height="40" viewBox="0 0 200 40">
  <g fill="none" fill-rule="evenodd">
    <rect width="200" height="40" fill="#FFF" stroke="#774099" stroke-width="2" rx="5"/>
    <path fill="#774099" fill-rule="nonzero" d="M71.808,26.5573333 C72.3626667,26.5573333 72.904,26.504 73.432,26.3973333 C73.96,26.2906667 74.3946667,26.1146667 74.736,25.8693333 L74.736,25.8693333 L74.288,24.0773333 C74.0426667,24.2266667 73.7546667,24.3493333 73.424,24.4453333 C73.0933333,24.5413333 72.688,24.5893333 72.208,24.5893333 C71.696,24.5893333 71.2453333,24.496 70.856,24.3093333 C70.4666667,24.1226667 70.1413333,23.8613333 69.88,23.5253333 C69.6186667,23.1893333 69.424,22.784 69.296,22.3093333 C69.168,21.8346667 69.104,21.3093333 69.104,20.7333333 C69.104,19.4106667 69.3733333,18.4346667 69.912,17.8053333 C70.4506667,17.176 71.1626667,16.8613333 72.048,16.8613333 C72.528,16.8613333 72.936,16.888 73.272,16.9413333 C73.608,16.9946667 73.8986667,17.08 74.144,17.1973333 L74.144,17.1973333 L74.576,15.3413333 C74.288,15.224 73.9226667,15.1226667 73.48,15.0373333 C73.0373333,14.952 72.496,14.9093333 71.856,14.9093333 C71.2586667,14.9093333 70.6613333,15.008 70.064,15.2053333 C69.4666667,15.4026667 68.9253333,15.728 68.44,16.1813333 C67.9546667,16.6346667 67.56,17.232 67.256,17.9733333 C66.952,18.7146667 66.8,19.6346667 66.8,20.7333333 C66.8,21.7893333 66.936,22.688 67.208,23.4293333 C67.48,24.1706667 67.8453333,24.7733333 68.304,25.2373333 C68.7626667,25.7013333 69.2933333,26.0373333 69.896,26.2453333 C70.4986667,26.4533333 71.136,26.5573333 71.808,26.5573333 Z M83.472,26.3333333 L83.472,24.3813333 L78.576,24.3813333 L78.576,15.1333333 L76.384,15.1333333 L76.384,26.3333333 L83.472,26.3333333 Z M87.312,26.3333333 L87.312,15.1333333 L85.12,15.1333333 L85.12,26.3333333 L87.312,26.3333333 Z M94.4,26.5573333 C94.9546667,26.5573333 95.496,26.504 96.024,26.3973333 C96.552,26.2906667 96.9866667,26.1146667 97.328,25.8693333 L97.328,25.8693333 L96.88,24.0773333 C96.6346667,24.2266667 96.3466667,24.3493333 96.016,24.4453333 C95.6853333,24.5413333 95.28,24.5893333 94.8,24.5893333 C94.288,24.5893333 93.8373333,24.496 93.448,24.3093333 C93.0586667,24.1226667 92.7333333,23.8613333 92.472,23.5253333 C92.2106667,23.1893333 92.016,22.784 91.888,22.3093333 C91.76,21.8346667 91.696,21.3093333 91.696,20.7333333 C91.696,19.4106667 91.9653333,18.4346667 92.504,17.8053333 C93.0426667,17.176 93.7546667,16.8613333 94.64,16.8613333 C95.12,16.8613333 95.528,16.888 95.864,16.9413333 C96.2,16.9946667 96.4906667,17.08 96.736,17.1973333 L96.736,17.1973333 L97.168,15.3413333 C96.88,15.224 96.5146667,15.1226667 96.072,15.0373333 C95.6293333,14.952 95.088,14.9093333 94.448,14.9093333 C93.8506667,14.9093333 93.2533333,15.008 92.656,15.2053333 C92.0586667,15.4026667 91.5173333,15.728 91.032,16.1813333 C90.5466667,16.6346667 90.152,17.232 89.848,17.9733333 C89.544,18.7146667 89.392,19.6346667 89.392,20.7333333 C89.392,21.7893333 89.528,22.688 89.8,23.4293333 C90.072,24.1706667 90.4373333,24.7733333 90.896,25.2373333 C91.3546667,25.7013333 91.8853333,26.0373333 92.488,26.2453333 C93.0906667,26.4533333 93.728,26.5573333 94.4,26.5573333 Z M101.168,26.3333333 L101.168,21.5493333 L101.744,21.5493333 L105.056,26.3333333 L107.76,26.3333333 L104.032,21.0693333 L103.136,20.4453333 L104,19.8373333 L107.264,15.1333333 L104.768,15.1333333 L101.68,19.8693333 L101.168,20.0933333 L101.168,15.1333333 L98.976,15.1333333 L98.976,26.3333333 L101.168,26.3333333 Z M115.12,26.3333333 L115.12,20.5093333 L114.8,18.3013333 L114.88,18.3013333 L115.584,20.0773333 L118.096,24.2693333 L118.8,24.2693333 L121.184,20.0933333 L121.872,18.3013333 L121.968,18.3013333 L121.728,20.5253333 L121.728,26.3333333 L123.92,26.3333333 L123.92,15.1333333 L121.936,15.1333333 L119.104,20.2213333 L118.624,21.5333333 L118.56,21.5333333 L118.032,20.2533333 L115.04,15.1333333 L113.04,15.1333333 L113.04,26.3333333 L115.12,26.3333333 Z M132.848,26.3333333 L132.848,24.3813333 L128.32,24.3813333 L128.32,21.6453333 L132.368,21.6453333 L132.368,19.6933333 L128.32,19.6933333 L128.32,17.0853333 L132.768,17.0853333 L132.768,15.1333333 L126.128,15.1333333 L126.128,26.3333333 L132.848,26.3333333 Z"/>
  </g>
</svg>
