<svg xmlns="http://www.w3.org/2000/svg" width="150" height="40" viewBox="0 0 150 40">
  <path fill="#774099" d="M46.808,26.224 C47.3626667,26.224 47.904,26.1706667 48.432,26.064 C48.96,25.9573333 49.3946667,25.7813333 49.736,25.536 L49.736,25.536 L49.288,23.744 C49.0426667,23.8933333 48.7546667,24.016 48.424,24.112 C48.0933333,24.208 47.688,24.256 47.208,24.256 C46.696,24.256 46.2453333,24.1626667 45.856,23.976 C45.4666667,23.7893333 45.1413333,23.528 44.88,23.192 C44.6186667,22.856 44.424,22.4506667 44.296,21.976 C44.168,21.5013333 44.104,20.976 44.104,20.4 C44.104,19.0773333 44.3733333,18.1013333 44.912,17.472 C45.4506667,16.8426667 46.1626667,16.528 47.048,16.528 C47.528,16.528 47.936,16.5546667 48.272,16.608 C48.608,16.6613333 48.8986667,16.7466667 49.144,16.864 L49.144,16.864 L49.576,15.008 C49.288,14.8906667 48.9226667,14.7893333 48.48,14.704 C48.0373333,14.6186667 47.496,14.576 46.856,14.576 C46.2586667,14.576 45.6613333,14.6746667 45.064,14.872 C44.4666667,15.0693333 43.9253333,15.3946667 43.44,15.848 C42.9546667,16.3013333 42.56,16.8986667 42.256,17.64 C41.952,18.3813333 41.8,19.3013333 41.8,20.4 C41.8,21.456 41.936,22.3546667 42.208,23.096 C42.48,23.8373333 42.8453333,24.44 43.304,24.904 C43.7626667,25.368 44.2933333,25.704 44.896,25.912 C45.4986667,26.12 46.136,26.224 46.808,26.224 Z M58.472,26 L58.472,24.048 L53.576,24.048 L53.576,14.8 L51.384,14.8 L51.384,26 L58.472,26 Z M62.312,26 L62.312,14.8 L60.12,14.8 L60.12,26 L62.312,26 Z M69.4,26.224 C69.9546667,26.224 70.496,26.1706667 71.024,26.064 C71.552,25.9573333 71.9866667,25.7813333 72.328,25.536 L72.328,25.536 L71.88,23.744 C71.6346667,23.8933333 71.3466667,24.016 71.016,24.112 C70.6853333,24.208 70.28,24.256 69.8,24.256 C69.288,24.256 68.8373333,24.1626667 68.448,23.976 C68.0586667,23.7893333 67.7333333,23.528 67.472,23.192 C67.2106667,22.856 67.016,22.4506667 66.888,21.976 C66.76,21.5013333 66.696,20.976 66.696,20.4 C66.696,19.0773333 66.9653333,18.1013333 67.504,17.472 C68.0426667,16.8426667 68.7546667,16.528 69.64,16.528 C70.12,16.528 70.528,16.5546667 70.864,16.608 C71.2,16.6613333 71.4906667,16.7466667 71.736,16.864 L71.736,16.864 L72.168,15.008 C71.88,14.8906667 71.5146667,14.7893333 71.072,14.704 C70.6293333,14.6186667 70.088,14.576 69.448,14.576 C68.8506667,14.576 68.2533333,14.6746667 67.656,14.872 C67.0586667,15.0693333 66.5173333,15.3946667 66.032,15.848 C65.5466667,16.3013333 65.152,16.8986667 64.848,17.64 C64.544,18.3813333 64.392,19.3013333 64.392,20.4 C64.392,21.456 64.528,22.3546667 64.8,23.096 C65.072,23.8373333 65.4373333,24.44 65.896,24.904 C66.3546667,25.368 66.8853333,25.704 67.488,25.912 C68.0906667,26.12 68.728,26.224 69.4,26.224 Z M76.168,26 L76.168,21.216 L76.744,21.216 L80.056,26 L82.76,26 L79.032,20.736 L78.136,20.112 L79,19.504 L82.264,14.8 L79.768,14.8 L76.68,19.536 L76.168,19.76 L76.168,14.8 L73.976,14.8 L73.976,26 L76.168,26 Z M90.12,26 L90.12,20.176 L89.8,17.968 L89.88,17.968 L90.584,19.744 L93.096,23.936 L93.8,23.936 L96.184,19.76 L96.872,17.968 L96.968,17.968 L96.728,20.192 L96.728,26 L98.92,26 L98.92,14.8 L96.936,14.8 L94.104,19.888 L93.624,21.2 L93.56,21.2 L93.032,19.92 L90.04,14.8 L88.04,14.8 L88.04,26 L90.12,26 Z M107.848,26 L107.848,24.048 L103.32,24.048 L103.32,21.312 L107.368,21.312 L107.368,19.36 L103.32,19.36 L103.32,16.752 L107.768,16.752 L107.768,14.8 L101.128,14.8 L101.128,26 L107.848,26 Z"/>
</svg>
