<svg xmlns="http://www.w3.org/2000/svg" width="150" height="32" viewBox="0 0 150 32">
  <path fill="#774099" d="M53.856,20.168 C54.272,20.168 54.678,20.128 55.074,20.048 C55.47,19.968 55.796,19.836 56.052,19.652 L56.052,19.652 L55.716,18.308 C55.532,18.42 55.316,18.512 55.068,18.584 C54.82,18.656 54.516,18.692 54.156,18.692 C53.772,18.692 53.434,18.622 53.142,18.482 C52.85,18.342 52.606,18.146 52.41,17.894 C52.214,17.642 52.068,17.338 51.972,16.982 C51.876,16.626 51.828,16.232 51.828,15.8 C51.828,14.808 52.03,14.076 52.434,13.604 C52.838,13.132 53.372,12.896 54.036,12.896 C54.396,12.896 54.702,12.916 54.954,12.956 C55.206,12.996 55.424,13.06 55.608,13.148 L55.608,13.148 L55.932,11.756 C55.716,11.668 55.442,11.592 55.11,11.528 C54.778,11.464 54.372,11.432 53.892,11.432 C53.444,11.432 52.996,11.506 52.548,11.654 C52.1,11.802 51.694,12.046 51.33,12.386 C50.966,12.726 50.67,13.174 50.442,13.73 C50.214,14.286 50.1,14.976 50.1,15.8 C50.1,16.592 50.202,17.266 50.406,17.822 C50.61,18.378 50.884,18.83 51.228,19.178 C51.572,19.526 51.97,19.778 52.422,19.934 C52.874,20.09 53.352,20.168 53.856,20.168 Z M62.604,20 L62.604,18.536 L58.932,18.536 L58.932,11.6 L57.288,11.6 L57.288,20 L62.604,20 Z M65.484,20 L65.484,11.6 L63.84,11.6 L63.84,20 L65.484,20 Z M70.8,20.168 C71.216,20.168 71.622,20.128 72.018,20.048 C72.414,19.968 72.74,19.836 72.996,19.652 L72.996,19.652 L72.66,18.308 C72.476,18.42 72.26,18.512 72.012,18.584 C71.764,18.656 71.46,18.692 71.1,18.692 C70.716,18.692 70.378,18.622 70.086,18.482 C69.794,18.342 69.55,18.146 69.354,17.894 C69.158,17.642 69.012,17.338 68.916,16.982 C68.82,16.626 68.772,16.232 68.772,15.8 C68.772,14.808 68.974,14.076 69.378,13.604 C69.782,13.132 70.316,12.896 70.98,12.896 C71.34,12.896 71.646,12.916 71.898,12.956 C72.15,12.996 72.368,13.06 72.552,13.148 L72.552,13.148 L72.876,11.756 C72.66,11.668 72.386,11.592 72.054,11.528 C71.722,11.464 71.316,11.432 70.836,11.432 C70.388,11.432 69.94,11.506 69.492,11.654 C69.044,11.802 68.638,12.046 68.274,12.386 C67.91,12.726 67.614,13.174 67.386,13.73 C67.158,14.286 67.044,14.976 67.044,15.8 C67.044,16.592 67.146,17.266 67.35,17.822 C67.554,18.378 67.828,18.83 68.172,19.178 C68.516,19.526 68.914,19.778 69.366,19.934 C69.818,20.09 70.296,20.168 70.8,20.168 Z M75.876,20 L75.876,16.412 L76.308,16.412 L78.792,20 L80.82,20 L78.024,16.052 L77.352,15.584 L78,15.128 L80.448,11.6 L78.576,11.6 L76.26,15.152 L75.876,15.32 L75.876,11.6 L74.232,11.6 L74.232,20 L75.876,20 Z M86.34,20 L86.34,15.632 L86.1,13.976 L86.16,13.976 L86.688,15.308 L88.572,18.452 L89.1,18.452 L90.888,15.32 L91.404,13.976 L91.476,13.976 L91.296,15.644 L91.296,20 L92.94,20 L92.94,11.6 L91.452,11.6 L89.328,15.416 L88.968,16.4 L88.92,16.4 L88.524,15.44 L86.28,11.6 L84.78,11.6 L84.78,20 L86.34,20 Z M99.636,20 L99.636,18.536 L96.24,18.536 L96.24,16.484 L99.276,16.484 L99.276,15.02 L96.24,15.02 L96.24,13.064 L99.576,13.064 L99.576,11.6 L94.596,11.6 L94.596,20 L99.636,20 Z"/>
</svg>
