<svg xmlns="http://www.w3.org/2000/svg" width="150" height="60" viewBox="0 0 150 60">
  <path fill="#774099" d="M40.26,37.28 C40.9533333,37.28 41.63,37.2133333 42.29,37.08 C42.95,36.9466667 43.4933333,36.7266667 43.92,36.42 L43.92,36.42 L43.36,34.18 C43.0533333,34.3666667 42.6933333,34.52 42.28,34.64 C41.8666667,34.76 41.36,34.82 40.76,34.82 C40.12,34.82 39.5566667,34.7033333 39.07,34.47 C38.5833333,34.2366667 38.1766667,33.91 37.85,33.49 C37.5233333,33.07 37.28,32.5633333 37.12,31.97 C36.96,31.3766667 36.88,30.72 36.88,30 C36.88,28.3466667 37.2166667,27.1266667 37.89,26.34 C38.5633333,25.5533333 39.4533333,25.16 40.56,25.16 C41.16,25.16 41.67,25.1933333 42.09,25.26 C42.51,25.3266667 42.8733333,25.4333333 43.18,25.58 L43.18,25.58 L43.72,23.26 C43.36,23.1133333 42.9033333,22.9866667 42.35,22.88 C41.7966667,22.7733333 41.12,22.72 40.32,22.72 C39.5733333,22.72 38.8266667,22.8433333 38.08,23.09 C37.3333333,23.3366667 36.6566667,23.7433333 36.05,24.31 C35.4433333,24.8766667 34.95,25.6233333 34.57,26.55 C34.19,27.4766667 34,28.6266667 34,30 C34,31.32 34.17,32.4433333 34.51,33.37 C34.85,34.2966667 35.3066667,35.05 35.88,35.63 C36.4533333,36.21 37.1166667,36.63 37.87,36.89 C38.6233333,37.15 39.42,37.28 40.26,37.28 Z M54.84,37 L54.84,34.56 L48.72,34.56 L48.72,23 L45.98,23 L45.98,37 L54.84,37 Z M59.64,37 L59.64,23 L56.9,23 L56.9,37 L59.64,37 Z M68.5,37.28 C69.1933333,37.28 69.87,37.2133333 70.53,37.08 C71.19,36.9466667 71.7333333,36.7266667 72.16,36.42 L72.16,36.42 L71.6,34.18 C71.2933333,34.3666667 70.9333333,34.52 70.52,34.64 C70.1066667,34.76 69.6,34.82 69,34.82 C68.36,34.82 67.7966667,34.7033333 67.31,34.47 C66.8233333,34.2366667 66.4166667,33.91 66.09,33.49 C65.7633333,33.07 65.52,32.5633333 65.36,31.97 C65.2,31.3766667 65.12,30.72 65.12,30 C65.12,28.3466667 65.4566667,27.1266667 66.13,26.34 C66.8033333,25.5533333 67.6933333,25.16 68.8,25.16 C69.4,25.16 69.91,25.1933333 70.33,25.26 C70.75,25.3266667 71.1133333,25.4333333 71.42,25.58 L71.42,25.58 L71.96,23.26 C71.6,23.1133333 71.1433333,22.9866667 70.59,22.88 C70.0366667,22.7733333 69.36,22.72 68.56,22.72 C67.8133333,22.72 67.0666667,22.8433333 66.32,23.09 C65.5733333,23.3366667 64.8966667,23.7433333 64.29,24.31 C63.6833333,24.8766667 63.19,25.6233333 62.81,26.55 C62.43,27.4766667 62.24,28.6266667 62.24,30 C62.24,31.32 62.41,32.4433333 62.75,33.37 C63.09,34.2966667 63.5466667,35.05 64.12,35.63 C64.6933333,36.21 65.3566667,36.63 66.11,36.89 C66.8633333,37.15 67.66,37.28 68.5,37.28 Z M76.96,37 L76.96,31.02 L77.68,31.02 L81.82,37 L85.2,37 L80.54,30.42 L79.42,29.64 L80.5,28.88 L84.58,23 L81.46,23 L77.6,28.92 L76.96,29.2 L76.96,23 L74.22,23 L74.22,37 L76.96,37 Z M94.4,37 L94.4,29.72 L94,26.96 L94.1,26.96 L94.98,29.18 L98.12,34.42 L99,34.42 L101.98,29.2 L102.84,26.96 L102.96,26.96 L102.66,29.74 L102.66,37 L105.4,37 L105.4,23 L102.92,23 L99.38,29.36 L98.78,31 L98.7,31 L98.04,29.4 L94.3,23 L91.8,23 L91.8,37 L94.4,37 Z M116.56,37 L116.56,34.56 L110.9,34.56 L110.9,31.14 L115.96,31.14 L115.96,28.7 L110.9,28.7 L110.9,25.44 L116.46,25.44 L116.46,23 L108.16,23 L108.16,37 L116.56,37 Z"/>
</svg>
