<svg xmlns="http://www.w3.org/2000/svg" xmlns:xlink="http://www.w3.org/1999/xlink" width="25" height="25" viewBox="0 0 25 25">
  <defs>
    <path id="car-a" d="M21.3422222,3.29055556 C21.0866667,2.53666667 20.3711111,2 19.5277778,2 L5.47222222,2 C4.62888889,2 3.92611111,2.53666667 3.65777778,3.29055556 L1,10.9444444 L1,21.1666667 C1,21.8694444 1.575,22.4444444 2.27777778,22.4444444 L3.55555556,22.4444444 C4.25833333,22.4444444 4.83333333,21.8694444 4.83333333,21.1666667 L4.83333333,19.8888889 L20.1666667,19.8888889 L20.1666667,21.1666667 C20.1666667,21.8694444 20.7416667,22.4444444 21.4444444,22.4444444 L22.7222222,22.4444444 C23.425,22.4444444 24,21.8694444 24,21.1666667 L24,10.9444444 L21.3422222,3.29055556 L21.3422222,3.29055556 Z M5.47222222,16.0555556 C4.41166667,16.0555556 3.55555556,15.1994444 3.55555556,14.1388889 C3.55555556,13.0783333 4.41166667,12.2222222 5.47222222,12.2222222 C6.53277778,12.2222222 7.38888889,13.0783333 7.38888889,14.1388889 C7.38888889,15.1994444 6.53277778,16.0555556 5.47222222,16.0555556 L5.47222222,16.0555556 Z M19.5277778,16.0555556 C18.4672222,16.0555556 17.6111111,15.1994444 17.6111111,14.1388889 C17.6111111,13.0783333 18.4672222,12.2222222 19.5277778,12.2222222 C20.5883333,12.2222222 21.4444444,13.0783333 21.4444444,14.1388889 C21.4444444,15.1994444 20.5883333,16.0555556 19.5277778,16.0555556 L19.5277778,16.0555556 Z M3.55555556,9.66666667 L5.47222222,3.91666667 L19.5277778,3.91666667 L21.4444444,9.66666667 L3.55555556,9.66666667 L3.55555556,9.66666667 Z"/>
  </defs>
  <g fill="none" fill-rule="evenodd">
    <use fill="#000" xlink:href="#car-a"/>
  </g>
</svg>
