<svg xmlns="http://www.w3.org/2000/svg" xmlns:xlink="http://www.w3.org/1999/xlink" width="25" height="25" viewBox="0 0 25 25">
  <defs>
    <path id="coffee-a" d="M21.7,2 L3.3,2 L3.3,13.5 C3.3,16.0415 5.3585,18.1 7.9,18.1 L14.8,18.1 C17.3415,18.1 19.4,16.0415 19.4,13.5 L19.4,10.05 L21.7,10.05 C22.9765,10.05 24,9.0265 24,7.75 L24,4.3 C24,3.0235 22.9765,2 21.7,2 L21.7,2 Z M21.7,7.75 L19.4,7.75 L19.4,4.3 L21.7,4.3 L21.7,7.75 L21.7,7.75 Z M1,22.7 L21.7,22.7 L21.7,20.4 L1,20.4 L1,22.7 L1,22.7 Z"/>
  </defs>
  <g fill="none" fill-rule="evenodd">
    <use fill="#000" xlink:href="#coffee-a"/>
  </g>
</svg>
