<svg xmlns="http://www.w3.org/2000/svg" xmlns:xlink="http://www.w3.org/1999/xlink" width="25" height="25" viewBox="0 0 25 25">
  <defs>
    <path id="data-a" d="M24,8.09090909 C24,9.24090909 23.0590909,10.1818182 21.9090909,10.1818182 C21.7209091,10.1818182 21.5431818,10.1609091 21.3759091,10.1086364 L17.6540909,13.82 C17.7063636,13.9872727 17.7272727,14.1754545 17.7272727,14.3636364 C17.7272727,15.5136364 16.7863636,16.4545455 15.6363636,16.4545455 C14.4863636,16.4545455 13.5454545,15.5136364 13.5454545,14.3636364 C13.5454545,14.1754545 13.5663636,13.9872727 13.6186364,13.82 L10.9527273,11.1540909 C10.7854545,11.2063636 10.5972727,11.2272727 10.4090909,11.2272727 C10.2209091,11.2272727 10.0327273,11.2063636 9.86545455,11.1540909 L5.10863636,15.9213636 C5.16090909,16.0886364 5.18181818,16.2663636 5.18181818,16.4545455 C5.18181818,17.6045455 4.24090909,18.5454545 3.09090909,18.5454545 C1.94090909,18.5454545 1,17.6045455 1,16.4545455 C1,15.3045455 1.94090909,14.3636364 3.09090909,14.3636364 C3.27909091,14.3636364 3.45681818,14.3845455 3.62409091,14.4368182 L8.39136364,9.68 C8.33909091,9.51272727 8.31818182,9.32454545 8.31818182,9.13636364 C8.31818182,7.98636364 9.25909091,7.04545455 10.4090909,7.04545455 C11.5590909,7.04545455 12.5,7.98636364 12.5,9.13636364 C12.5,9.32454545 12.4790909,9.51272727 12.4268182,9.68 L15.0927273,12.3459091 C15.26,12.2936364 15.4481818,12.2727273 15.6363636,12.2727273 C15.8245455,12.2727273 16.0127273,12.2936364 16.18,12.3459091 L19.8913636,8.62409091 C19.8390909,8.45681818 19.8181818,8.27909091 19.8181818,8.09090909 C19.8181818,6.94090909 20.7590909,6 21.9090909,6 C23.0590909,6 24,6.94090909 24,8.09090909 L24,8.09090909 Z"/>
  </defs>
  <g fill="none" fill-rule="evenodd">
    <use fill="#000" xlink:href="#data-a"/>
  </g>
</svg>
