<svg xmlns="http://www.w3.org/2000/svg" xmlns:xlink="http://www.w3.org/1999/xlink" width="25" height="25" viewBox="0 0 25 25">
  <defs>
    <path id="images-a" d="M24,17.1 L24,3.3 C24,2.035 22.965,1 21.7,1 L7.9,1 C6.635,1 5.6,2.035 5.6,3.3 L5.6,17.1 C5.6,18.365 6.635,19.4 7.9,19.4 L21.7,19.4 C22.965,19.4 24,18.365 24,17.1 L24,17.1 Z M11.35,12.5 L13.6845,15.6165 L17.1,11.35 L21.7,17.1 L7.9,17.1 L11.35,12.5 L11.35,12.5 Z M1,5.6 L1,21.7 C1,22.965 2.035,24 3.3,24 L19.4,24 L19.4,21.7 L3.3,21.7 L3.3,5.6 L1,5.6 L1,5.6 Z"/>
  </defs>
  <g fill="none" fill-rule="evenodd">
    <use fill="#000" xlink:href="#images-a"/>
  </g>
</svg>
