<svg xmlns="http://www.w3.org/2000/svg" xmlns:xlink="http://www.w3.org/1999/xlink" width="25" height="25" viewBox="0 0 25 25">
  <defs>
    <path id="late-a" d="M17.376,7.624 C16.0305,6.2785 14.271,5.6 12.5,5.6 L12.5,12.5 L7.624,17.376 C10.315,20.067 14.685,20.067 17.3875,17.376 C20.0785,14.685 20.0785,10.315 17.376,7.624 L17.376,7.624 Z M12.5,1 C6.152,1 1,6.152 1,12.5 C1,18.848 6.152,24 12.5,24 C18.848,24 24,18.848 24,12.5 C24,6.152 18.848,1 12.5,1 L12.5,1 Z M12.5,21.7 C7.417,21.7 3.3,17.583 3.3,12.5 C3.3,7.417 7.417,3.3 12.5,3.3 C17.583,3.3 21.7,7.417 21.7,12.5 C21.7,17.583 17.583,21.7 12.5,21.7 L12.5,21.7 Z"/>
  </defs>
  <g fill="none" fill-rule="evenodd">
    <use fill="#000" transform="matrix(-1 0 0 1 25 0)" xlink:href="#late-a"/>
  </g>
</svg>
