<svg xmlns="http://www.w3.org/2000/svg" xmlns:xlink="http://www.w3.org/1999/xlink" width="25" height="25" viewBox="0 0 25 25">
  <defs>
    <path id="laundry-a" d="M8.9455,18.0545 C10.7395,19.8485 13.6605,19.8485 15.4545,18.0545 C17.2485,16.2605 17.2485,13.3395 15.4545,11.5455 L8.9455,18.0545 L8.9455,18.0545 Z M19.1,1.0115 L5.3,1 C4.0235,1 3,2.0235 3,3.3 L3,21.7 C3,22.9765 4.0235,24 5.3,24 L19.1,24 C20.3765,24 21.4,22.9765 21.4,21.7 L21.4,3.3 C21.4,2.0235 20.3765,1.0115 19.1,1.0115 L19.1,1.0115 Z M9.9,3.3 C10.5325,3.3 11.05,3.8175 11.05,4.45 C11.05,5.0825 10.5325,5.6 9.9,5.6 C9.2675,5.6 8.75,5.0825 8.75,4.45 C8.75,3.8175 9.2675,3.3 9.9,3.3 L9.9,3.3 Z M6.45,3.3 C7.0825,3.3 7.6,3.8175 7.6,4.45 C7.6,5.0825 7.0825,5.6 6.45,5.6 C5.8175,5.6 5.3,5.0825 5.3,4.45 C5.3,3.8175 5.8175,3.3 6.45,3.3 L6.45,3.3 Z M12.2,21.7 C8.3935,21.7 5.3,18.6065 5.3,14.8 C5.3,10.9935 8.3935,7.9 12.2,7.9 C16.0065,7.9 19.1,10.9935 19.1,14.8 C19.1,18.6065 16.0065,21.7 12.2,21.7 L12.2,21.7 Z"/>
  </defs>
  <g fill="none" fill-rule="evenodd">
    <use fill="#000" xlink:href="#laundry-a"/>
  </g>
</svg>
