<svg xmlns="http://www.w3.org/2000/svg" xmlns:xlink="http://www.w3.org/1999/xlink" width="25" height="25" viewBox="0 0 25 25">
  <defs>
    <path id="list-a" d="M2.86486486,10.4594595 C1.83297297,10.4594595 1,11.2924324 1,12.3243243 C1,13.3562162 1.83297297,14.1891892 2.86486486,14.1891892 C3.89675676,14.1891892 4.72972973,13.3562162 4.72972973,12.3243243 C4.72972973,11.2924324 3.89675676,10.4594595 2.86486486,10.4594595 L2.86486486,10.4594595 Z M2.86486486,3 C1.83297297,3 1,3.83297297 1,4.86486486 C1,5.89675676 1.83297297,6.72972973 2.86486486,6.72972973 C3.89675676,6.72972973 4.72972973,5.89675676 4.72972973,4.86486486 C4.72972973,3.83297297 3.89675676,3 2.86486486,3 L2.86486486,3 Z M2.86486486,18.1302703 C1.94486486,18.1302703 1.21135135,18.8762162 1.21135135,19.7837838 C1.21135135,20.6913514 1.9572973,21.4372973 2.86486486,21.4372973 C3.77243243,21.4372973 4.51837838,20.6913514 4.51837838,19.7837838 C4.51837838,18.8762162 3.78486486,18.1302703 2.86486486,18.1302703 L2.86486486,18.1302703 Z M6.59459459,21.027027 L24,21.027027 L24,18.5405405 L6.59459459,18.5405405 L6.59459459,21.027027 L6.59459459,21.027027 Z M6.59459459,13.5675676 L24,13.5675676 L24,11.0810811 L6.59459459,11.0810811 L6.59459459,13.5675676 L6.59459459,13.5675676 Z M6.59459459,3.62162162 L6.59459459,6.10810811 L24,6.10810811 L24,3.62162162 L6.59459459,3.62162162 L6.59459459,3.62162162 Z"/>
  </defs>
  <g fill="none" fill-rule="evenodd">
    <use fill="#000" xlink:href="#list-a"/>
  </g>
</svg>
