<svg xmlns="http://www.w3.org/2000/svg" xmlns:xlink="http://www.w3.org/1999/xlink" width="25" height="25" viewBox="0 0 25 25">
  <defs>
    <path id="message-a" d="M21.7,1 L3.3,1 C2.035,1 1.0115,2.035 1.0115,3.3 L1,24 L5.6,19.4 L21.7,19.4 C22.965,19.4 24,18.365 24,17.1 L24,3.3 C24,2.035 22.965,1 21.7,1 L21.7,1 Z M19.8181818,15.5454545 L6.22727273,15.5454545 L6.22727273,13.4545455 L19.8181818,13.4545455 L19.8181818,15.5454545 L19.8181818,15.5454545 Z M19.8181818,11.4090909 L6.22727273,11.4090909 L6.22727273,9.31818182 L19.8181818,9.31818182 L19.8181818,11.4090909 L19.8181818,11.4090909 Z M19.8181818,7.27272727 L6.22727273,7.27272727 L6.22727273,5.18181818 L19.8181818,5.18181818 L19.8181818,7.27272727 L19.8181818,7.27272727 Z"/>
  </defs>
  <g fill="none" fill-rule="evenodd">
    <use fill="#000" transform="matrix(-1 0 0 1 25 0)" xlink:href="#message-a"/>
  </g>
</svg>
