<svg xmlns="http://www.w3.org/2000/svg" xmlns:xlink="http://www.w3.org/1999/xlink" width="25" height="25" viewBox="0 0 25 25">
  <defs>
    <path id="money-a" d="M11.35,17.95 L13.65,17.95 L13.65,16.8 L14.8,16.8 C15.4325,16.8 15.95,16.2825 15.95,15.65 L15.95,12.2 C15.95,11.5675 15.4325,11.05 14.8,11.05 L11.35,11.05 L11.35,9.9 L15.95,9.9 L15.95,7.6 L13.65,7.6 L13.65,6.45 L11.35,6.45 L11.35,7.6 L10.2,7.6 C9.5675,7.6 9.05,8.1175 9.05,8.75 L9.05,12.2 C9.05,12.8325 9.5675,13.35 10.2,13.35 L13.65,13.35 L13.65,14.5 L9.05,14.5 L9.05,16.8 L11.35,16.8 L11.35,17.95 L11.35,17.95 Z M21.7,3 L3.3,3 C2.0235,3 1.0115,4.0235 1.0115,5.3 L1,19.1 C1,20.3765 2.0235,21.4 3.3,21.4 L21.7,21.4 C22.9765,21.4 24,20.3765 24,19.1 L24,5.3 C24,4.0235 22.9765,3 21.7,3 L21.7,3 Z M21.7,19.1 L3.3,19.1 L3.3,5.3 L21.7,5.3 L21.7,19.1 L21.7,19.1 Z"/>
  </defs>
  <g fill="none" fill-rule="evenodd">
    <use fill="#000" xlink:href="#money-a"/>
  </g>
</svg>
