<svg xmlns="http://www.w3.org/2000/svg" xmlns:xlink="http://www.w3.org/1999/xlink" width="25" height="25" viewBox="0 0 25 25">
  <defs>
    <path id="more-a" d="M3.875,10 C2.29375,10 1,11.29375 1,12.875 C1,14.45625 2.29375,15.75 3.875,15.75 C5.45625,15.75 6.75,14.45625 6.75,12.875 C6.75,11.29375 5.45625,10 3.875,10 L3.875,10 Z M21.125,10 C19.54375,10 18.25,11.29375 18.25,12.875 C18.25,14.45625 19.54375,15.75 21.125,15.75 C22.70625,15.75 24,14.45625 24,12.875 C24,11.29375 22.70625,10 21.125,10 L21.125,10 Z M12.5,10 C10.91875,10 9.625,11.29375 9.625,12.875 C9.625,14.45625 10.91875,15.75 12.5,15.75 C14.08125,15.75 15.375,14.45625 15.375,12.875 C15.375,11.29375 14.08125,10 12.5,10 L12.5,10 Z"/>
  </defs>
  <g fill="none" fill-rule="evenodd">
    <use fill="#000" xlink:href="#more-a"/>
  </g>
</svg>
