<svg xmlns="http://www.w3.org/2000/svg" xmlns:xlink="http://www.w3.org/1999/xlink" width="25" height="25" viewBox="0 0 25 25">
  <defs>
    <path id="pin-exclusive-a" d="M8.01282051,2.03324537e-13 C12.4381791,2.03324537e-13 16.025641,3.51126527 16.025641,7.84263049 C16.025641,10.7302073 13.3547009,16.3068803 8.01282051,24.5726496 C2.67094017,16.3068803 0,10.7302073 0,7.84263049 C0,3.51126527 3.58746194,2.03324537e-13 8.01282051,2.03324537e-13 Z M8.01282051,2.24075157 C4.8518501,2.24075157 2.28937729,4.74879819 2.28937729,7.84263049 C2.28937729,10.9364628 4.8518501,13.4445094 8.01282051,13.4445094 C11.1737909,13.4445094 13.7362637,10.9364628 13.7362637,7.84263049 C13.7362637,4.74879819 11.1737909,2.24075157 8.01282051,2.24075157 Z"/>
  </defs>
  <g fill="none" fill-rule="evenodd" transform="translate(4)">
    <use fill="#000" xlink:href="#pin-exclusive-a"/>
    <polygon fill="#000" fill-rule="nonzero" points="7.335 11.218 7.335 8.381 10.21 8.381 10.21 7.208 7.335 7.208 7.335 5.622 10.652 5.622 10.652 4.353 5.825 4.353 5.825 11.218"/>
  </g>
</svg>
