<svg xmlns="http://www.w3.org/2000/svg" xmlns:xlink="http://www.w3.org/1999/xlink" width="25" height="25" viewBox="0 0 25 25">
  <defs>
    <path id="pin-smartstay-a" d="M8.15217391,1.38555833e-13 C12.6544952,1.38555833e-13 16.3043478,3.57233075 16.3043478,7.97902406 C16.3043478,10.9168196 13.5869565,16.5904782 8.15217391,25 C2.7173913,16.5904782 0,10.9168196 0,7.97902406 C0,3.57233075 3.64985258,1.38555833e-13 8.15217391,1.38555833e-13 Z M8.15217391,2.27972116 C4.93623011,2.27972116 2.32919255,4.83138598 2.32919255,7.97902406 C2.32919255,11.1266621 4.93623011,13.678327 8.15217391,13.678327 C11.3681177,13.678327 13.9751553,11.1266621 13.9751553,7.97902406 C13.9751553,4.83138598 11.3681177,2.27972116 8.15217391,2.27972116 Z"/>
  </defs>
  <g fill="none" fill-rule="evenodd" transform="translate(4)">
    <use fill="#000" xlink:href="#pin-smartstay-a"/>
    <path fill="#000" fill-rule="nonzero" d="M8.18641304,11.5695652 C8.6625,11.5695652 9.08152174,11.5141304 9.44347826,11.4032609 C9.80543478,11.2923913 10.1086957,11.1375 10.3532609,10.938587 C10.5978261,10.7396739 10.7820652,10.5032609 10.9059783,10.2293478 C11.0298913,9.95543478 11.0918478,9.65869565 11.0918478,9.33913043 C11.0918478,8.94782609 11.0086957,8.62663043 10.8423913,8.37554348 C10.676087,8.12445652 10.4788043,7.92391304 10.2505435,7.77391304 C10.0222826,7.62391304 9.7923913,7.51467391 9.56086957,7.44619565 C9.32934783,7.37771739 9.14836957,7.33043478 9.01793478,7.30434783 C8.58097826,7.19347826 8.22717391,7.10217391 7.95652174,7.03043478 C7.68586957,6.95869565 7.47391304,6.88695652 7.32065217,6.81521739 C7.1673913,6.74347826 7.06467391,6.66521739 7.0125,6.58043478 C6.96032609,6.49565217 6.93423913,6.38478261 6.93423913,6.24782609 C6.93423913,6.09782609 6.96684783,5.97391304 7.03206522,5.87608696 C7.09728261,5.77826087 7.18043478,5.69673913 7.28152174,5.63152174 C7.3826087,5.56630435 7.4951087,5.52065217 7.61902174,5.49456522 C7.74293478,5.46847826 7.86684783,5.45543478 7.99076087,5.45543478 C8.1798913,5.45543478 8.35434783,5.47173913 8.51413043,5.50434783 C8.67391304,5.53695652 8.81576087,5.5923913 8.93967391,5.67065217 C9.06358696,5.74891304 9.16304348,5.85652174 9.23804348,5.99347826 C9.31304348,6.13043478 9.35706522,6.30326087 9.3701087,6.51195652 L10.8570652,6.51195652 C10.8570652,6.1076087 10.7804348,5.76358696 10.6271739,5.4798913 C10.473913,5.19619565 10.2668478,4.96304348 10.0059783,4.78043478 C9.7451087,4.59782609 9.44673913,4.46576087 9.11086957,4.38423913 C8.775,4.30271739 8.42445652,4.26195652 8.05923913,4.26195652 C7.74619565,4.26195652 7.43315217,4.30434783 7.1201087,4.38913043 C6.80706522,4.47391304 6.52663043,4.60434783 6.27880435,4.78043478 C6.03097826,4.95652174 5.83043478,5.17663043 5.67717391,5.44076087 C5.52391304,5.7048913 5.44728261,6.01630435 5.44728261,6.375 C5.44728261,6.69456522 5.5076087,6.96684783 5.62826087,7.19184783 C5.74891304,7.41684783 5.90706522,7.60434783 6.10271739,7.75434783 C6.29836957,7.90434783 6.5201087,8.02663043 6.76793478,8.12119565 C7.01576087,8.21576087 7.2701087,8.29565217 7.53097826,8.36086957 C7.78532609,8.4326087 8.03641304,8.49782609 8.28423913,8.55652174 C8.53206522,8.61521739 8.75380435,8.68369565 8.94945652,8.76195652 C9.1451087,8.84021739 9.30326087,8.93804348 9.42391304,9.05543478 C9.54456522,9.17282609 9.6048913,9.32608696 9.6048913,9.51521739 C9.6048913,9.69130435 9.55923913,9.83641304 9.46793478,9.95054348 C9.37663043,10.0646739 9.2625,10.1543478 9.12554348,10.2195652 C8.98858696,10.2847826 8.84184783,10.3288043 8.68532609,10.3516304 C8.52880435,10.3744565 8.38206522,10.3858696 8.2451087,10.3858696 C8.04293478,10.3858696 7.84728261,10.361413 7.65815217,10.3125 C7.46902174,10.263587 7.30434783,10.188587 7.16413043,10.0875 C7.02391304,9.98641304 6.91141304,9.85434783 6.82663043,9.69130435 C6.74184783,9.52826087 6.69945652,9.32934783 6.69945652,9.09456522 L5.2125,9.09456522 C5.20597826,9.525 5.28423913,9.89673913 5.44728261,10.2097826 C5.61032609,10.5228261 5.83043478,10.7804348 6.1076087,10.9826087 C6.38478261,11.1847826 6.70434783,11.3331522 7.06630435,11.4277174 C7.42826087,11.5222826 7.80163043,11.5695652 8.18641304,11.5695652 Z"/>
  </g>
</svg>
