<svg xmlns="http://www.w3.org/2000/svg" xmlns:xlink="http://www.w3.org/1999/xlink" width="25" height="25" viewBox="0 0 25 25">
  <defs>
    <path id="pin-preferred-a" d="M8,1.38555833e-13 C12.418278,1.38555833e-13 16,3.57233075 16,7.97902406 C16,10.9168196 13.3333333,16.5904782 8,25 C2.66666667,16.5904782 0,10.9168196 0,7.97902406 C0,3.57233075 3.581722,1.38555833e-13 8,1.38555833e-13 Z M8,2.27972116 C4.84408714,2.27972116 2.28571429,4.83138598 2.28571429,7.97902406 C2.28571429,11.1266621 4.84408714,13.678327 8,13.678327 C11.1559129,13.678327 13.7142857,11.1266621 13.7142857,7.97902406 C13.7142857,4.83138598 11.1559129,2.27972116 8,2.27972116 Z"/>
  </defs>
  <g fill="none" fill-rule="evenodd" transform="translate(5)">
    <use fill="#000" xlink:href="#pin-preferred-a"/>
    <path fill="#000" fill-rule="nonzero" d="M7.37961336,11 L7.37961336,8.49019608 L8.82952548,8.49019608 C9.22202695,8.49019608 9.5559461,8.42647059 9.83128295,8.29901961 C10.1066198,8.17156863 10.3306971,8.00326797 10.5035149,7.79411765 C10.6763327,7.58496732 10.8022847,7.34477124 10.8813708,7.07352941 C10.9604569,6.80228758 11,6.52614379 11,6.24509804 C11,5.95751634 10.9604569,5.67973856 10.8813708,5.41176471 C10.8022847,5.14379085 10.6763327,4.90522876 10.5035149,4.69607843 C10.3306971,4.4869281 10.1066198,4.31862745 9.83128295,4.19117647 C9.5559461,4.06372549 9.22202695,4 8.82952548,4 L6,4 L6,11 L7.37961336,11 Z M8.4516696,7.29411765 L7.37961336,7.29411765 L7.37961336,5.19607843 L8.4516696,5.19607843 C8.60984183,5.19607843 8.76215583,5.20915033 8.9086116,5.23529412 C9.05506737,5.26143791 9.18394845,5.3120915 9.29525483,5.3872549 C9.40656122,5.4624183 9.49589924,5.56862745 9.56326889,5.70588235 C9.63063855,5.84313725 9.66432337,6.02287582 9.66432337,6.24509804 C9.66432337,6.46732026 9.63063855,6.64705882 9.56326889,6.78431373 C9.49589924,6.92156863 9.40656122,7.02777778 9.29525483,7.10294118 C9.18394845,7.17810458 9.05506737,7.22875817 8.9086116,7.25490196 C8.76215583,7.28104575 8.60984183,7.29411765 8.4516696,7.29411765 Z"/>
  </g>
</svg>
