<svg xmlns="http://www.w3.org/2000/svg" xmlns:xlink="http://www.w3.org/1999/xlink" width="25" height="25" viewBox="0 0 25 25">
  <defs>
    <path id="restaurant-a" d="M7.44738737,14.2772891 L10.8515117,10.8731648 L2.40735881,2.44104062 C0.530880397,4.31751903 0.530880397,7.3607821 2.40735881,9.24928922 L7.44738737,14.2772891 L7.44738737,14.2772891 Z M15.6028512,12.100093 C17.4432435,12.9541312 20.0294157,12.3526958 21.9419802,10.4401313 C24.2394634,8.14264811 24.6845256,4.84678217 22.9163056,3.07856213 C21.1601142,1.32237079 17.8642483,1.75540427 15.5547364,4.05288746 C13.6421719,5.965452 13.0407365,8.55162417 13.8947747,10.3920165 L2.15475595,22.1320353 L3.85080374,23.8280831 L12.1385834,15.5643608 L20.4143344,23.8401118 L22.1103822,22.144064 L13.8346312,13.868313 L15.6028512,12.100093 L15.6028512,12.100093 Z"/>
  </defs>
  <g fill="none" fill-rule="evenodd">
    <use fill="#000" xlink:href="#restaurant-a"/>
  </g>
</svg>
