<svg width="24" height="24" viewBox="0 0 24 24" fill="none" xmlns="http://www.w3.org/2000/svg">
<path d="M20.5912 13.176C20.6392 12.792 20.6752 12.408 20.6752 12C20.6752 11.592 20.6392 11.208 20.5912 10.824L23.1232 8.844C23.3512 8.664 23.4112 8.34 23.2672 8.076L20.8672 3.924C20.7232 3.66 20.3992 3.564 20.1352 3.66L17.1472 4.86C16.5232 4.38 15.8512 3.984 15.1192 3.684L14.6632 0.504C14.6272 0.216 14.3752 0 14.0752 0H9.2752C8.9752 0 8.7232 0.216 8.6872 0.504L8.2312 3.684C7.4992 3.984 6.8272 4.392 6.2032 4.86L3.2152 3.66C2.9392 3.552 2.6272 3.66 2.4832 3.924L0.0831979 8.076C-0.0728021 8.34 -0.000802053 8.664 0.227198 8.844L2.7592 10.824C2.7112 11.208 2.6752 11.604 2.6752 12C2.6752 12.396 2.7112 12.792 2.7592 13.176L0.227198 15.156C-0.000802053 15.336 -0.0608021 15.66 0.0831979 15.924L2.4832 20.076C2.6272 20.34 2.9512 20.436 3.2152 20.34L6.2032 19.14C6.8272 19.62 7.4992 20.016 8.2312 20.316L8.6872 23.496C8.7232 23.784 8.9752 24 9.2752 24H14.0752C14.3752 24 14.6272 23.784 14.6632 23.496L15.1192 20.316C15.8512 20.016 16.5232 19.608 17.1472 19.14L20.1352 20.34C20.4112 20.448 20.7232 20.34 20.8672 20.076L23.2672 15.924C23.4112 15.66 23.3512 15.336 23.1232 15.156L20.5912 13.176ZM11.6752 16.2C9.3592 16.2 7.4752 14.316 7.4752 12C7.4752 9.684 9.3592 7.8 11.6752 7.8C13.9912 7.8 15.8752 9.684 15.8752 12C15.8752 14.316 13.9912 16.2 11.6752 16.2Z" fill="black"/>
</svg>
