<svg xmlns="http://www.w3.org/2000/svg" xmlns:xlink="http://www.w3.org/1999/xlink" width="25" height="25" viewBox="0 0 25 25">
  <defs>
    <path id="shuttle-a" d="M17.7272727,5 L3.09090909,5 C1.94090909,5 1,5.93045455 1,7.09090909 L1,16.5 L3.09090909,16.5 C3.09090909,18.225 4.49181818,19.6363636 6.22727273,19.6363636 C7.96272727,19.6363636 9.36363636,18.225 9.36363636,16.5 L15.1136364,16.5 C15.1136364,18.225 16.5145455,19.6363636 18.25,19.6363636 C19.9854545,19.6363636 21.3863636,18.225 21.3863636,16.5 L24,16.5 L24,11.2727273 L17.7272727,5 L17.7272727,5 Z M3.09090909,11.2727273 L3.09090909,7.09090909 L7.27272727,7.09090909 L7.27272727,11.2727273 L3.09090909,11.2727273 L3.09090909,11.2727273 Z M6.22727273,18.0681818 C5.35954545,18.0681818 4.65909091,17.3677273 4.65909091,16.5 C4.65909091,15.6322727 5.35954545,14.9318182 6.22727273,14.9318182 C7.095,14.9318182 7.79545455,15.6322727 7.79545455,16.5 C7.79545455,17.3677273 7.095,18.0681818 6.22727273,18.0681818 L6.22727273,18.0681818 Z M13.5454545,11.2727273 L9.36363636,11.2727273 L9.36363636,7.09090909 L13.5454545,7.09090909 L13.5454545,11.2727273 L13.5454545,11.2727273 Z M18.25,18.0681818 C17.3822727,18.0681818 16.6818182,17.3677273 16.6818182,16.5 C16.6818182,15.6322727 17.3822727,14.9318182 18.25,14.9318182 C19.1177273,14.9318182 19.8181818,15.6322727 19.8181818,16.5 C19.8181818,17.3677273 19.1177273,18.0681818 18.25,18.0681818 L18.25,18.0681818 Z M15.6363636,11.2727273 L15.6363636,7.09090909 L16.6818182,7.09090909 L20.8636364,11.2727273 L15.6363636,11.2727273 L15.6363636,11.2727273 Z"/>
  </defs>
  <g fill="none" fill-rule="evenodd">
    <use fill="#000" xlink:href="#shuttle-a"/>
  </g>
</svg>
