<svg width="24" height="24" viewBox="0 0 24 24" fill="none" xmlns="http://www.w3.org/2000/svg">
<path d="M16.3636 12.5455C18.1745 12.5455 19.6255 11.0836 19.6255 9.27273C19.6255 7.46182 18.1745 6 16.3636 6C14.5527 6 13.0909 7.46182 13.0909 9.27273C13.0909 11.0836 14.5527 12.5455 16.3636 12.5455ZM7.63636 12.5455C9.44727 12.5455 10.8982 11.0836 10.8982 9.27273C10.8982 7.46182 9.44727 6 7.63636 6C5.82545 6 4.36364 7.46182 4.36364 9.27273C4.36364 11.0836 5.82545 12.5455 7.63636 12.5455ZM7.63636 14.7273C5.09455 14.7273 0 16.0036 0 18.5455V21.2727H15.2727V18.5455C15.2727 16.0036 10.1782 14.7273 7.63636 14.7273ZM16.3636 14.7273C16.0473 14.7273 15.6873 14.7491 15.3055 14.7818C16.5709 15.6982 17.4545 16.9309 17.4545 18.5455V21.2727H24V18.5455C24 16.0036 18.9055 14.7273 16.3636 14.7273Z" fill="black"/>
</svg>
