<svg xmlns="http://www.w3.org/2000/svg" xmlns:xlink="http://www.w3.org/1999/xlink" width="25" height="25" viewBox="0 0 25 25">
  <defs>
    <path id="workstation-a" d="M21.9090909,2 L3.09090909,2 C1.94090909,2 1,2.94090909 1,4.09090909 L1,16.6363636 C1,17.7863636 1.94090909,18.7272727 3.09090909,18.7272727 L10.4090909,18.7272727 L10.4090909,20.8181818 L8.31818182,20.8181818 L8.31818182,22.9090909 L16.6818182,22.9090909 L16.6818182,20.8181818 L14.5909091,20.8181818 L14.5909091,18.7272727 L21.9090909,18.7272727 C23.0590909,18.7272727 24,17.7863636 24,16.6363636 L24,4.09090909 C24,2.94090909 23.0590909,2 21.9090909,2 L21.9090909,2 Z M21.9090909,16.6363636 L3.09090909,16.6363636 L3.09090909,4.09090909 L21.9090909,4.09090909 L21.9090909,16.6363636 L21.9090909,16.6363636 Z"/>
  </defs>
  <g fill="none" fill-rule="evenodd">
    <use fill="#000" xlink:href="#workstation-a"/>
  </g>
</svg>
