<svg width="904" height="201" viewBox="0 0 904 201" fill="none" xmlns="http://www.w3.org/2000/svg">
<rect x="0.5" y="0.5" width="903" height="200" fill="white" stroke="#EAEAEA"/>
<path d="M62.5458 70H44.8258V42H50.3058V65.12H62.5458V70ZM65.7327 50H70.9327V70H65.7327V50ZM64.9727 44.36C64.9727 43.5867 65.2527 42.9333 65.8127 42.4C66.3993 41.84 67.1993 41.56 68.2127 41.56C69.226 41.56 70.0393 41.84 70.6527 42.4C71.2927 42.9333 71.6127 43.5867 71.6127 44.36C71.6127 45.1333 71.2927 45.7867 70.6527 46.32C70.0393 46.8267 69.226 47.08 68.2127 47.08C67.1993 47.08 66.3993 46.8267 65.8127 46.32C65.2527 45.7867 64.9727 45.1333 64.9727 44.36ZM92.9148 70C92.9148 72.9067 92.1282 75.04 90.5548 76.4C88.9815 77.7867 86.7815 78.48 83.9548 78.48C82.0348 78.48 80.5148 78.3467 79.3948 78.08C78.3015 77.8133 77.4748 77.5333 76.9148 77.24L77.9948 73.12C78.6082 73.36 79.3148 73.6 80.1148 73.84C80.9415 74.08 81.9548 74.2 83.1548 74.2C84.9682 74.2 86.1948 73.8 86.8348 73C87.5015 72.2267 87.8348 71.1333 87.8348 69.72V68.44H87.6748C86.7415 69.6933 85.0882 70.32 82.7148 70.32C80.1282 70.32 78.1948 69.52 76.9148 67.92C75.6615 66.32 75.0348 63.8133 75.0348 60.4C75.0348 56.8267 75.8882 54.12 77.5948 52.28C79.3015 50.44 81.7815 49.52 85.0348 49.52C86.7415 49.52 88.2615 49.64 89.5948 49.88C90.9548 50.12 92.0615 50.4 92.9148 50.72V70ZM84.1148 66.16C85.1282 66.16 85.9015 65.9333 86.4348 65.48C86.9948 65.0267 87.4215 64.3467 87.7148 63.44V54.44C86.8882 54.0933 85.8615 53.92 84.6348 53.92C83.3015 53.92 82.2615 54.4267 81.5148 55.44C80.7682 56.4267 80.3948 58.0133 80.3948 60.2C80.3948 62.1467 80.7148 63.6267 81.3548 64.64C81.9948 65.6533 82.9148 66.16 84.1148 66.16ZM109.68 70V58.64C109.68 57.0133 109.453 55.84 109 55.12C108.547 54.4 107.72 54.04 106.52 54.04C105.64 54.04 104.827 54.3467 104.08 54.96C103.36 55.5467 102.88 56.3067 102.64 57.24V70H97.4402V42H102.64V52.24H102.8C103.44 51.3867 104.227 50.7067 105.16 50.2C106.093 49.6933 107.28 49.44 108.72 49.44C109.733 49.44 110.627 49.5733 111.4 49.84C112.173 50.1067 112.813 50.5467 113.32 51.16C113.853 51.7733 114.24 52.6133 114.48 53.68C114.747 54.72 114.88 56.0133 114.88 57.56V70H109.68ZM117.157 50H119.917V46.24L125.117 44.76V50H129.997V54.4H125.117V62.08C125.117 63.4667 125.25 64.4667 125.517 65.08C125.81 65.6667 126.344 65.96 127.117 65.96C127.65 65.96 128.104 65.9067 128.477 65.8C128.877 65.6933 129.317 65.5333 129.797 65.32L130.717 69.32C129.997 69.6667 129.157 69.96 128.197 70.2C127.237 70.44 126.264 70.56 125.277 70.56C123.437 70.56 122.077 70.0933 121.197 69.16C120.344 68.2 119.917 66.64 119.917 64.48V54.4H117.157V50ZM141.22 50H143.98V46.24L149.18 44.76V50H154.06V54.4H149.18V62.08C149.18 63.4667 149.313 64.4667 149.58 65.08C149.873 65.6667 150.406 65.96 151.18 65.96C151.713 65.96 152.166 65.9067 152.54 65.8C152.94 65.6933 153.38 65.5333 153.86 65.32L154.78 69.32C154.06 69.6667 153.22 69.96 152.26 70.2C151.3 70.44 150.326 70.56 149.34 70.56C147.5 70.56 146.14 70.0933 145.26 69.16C144.406 68.2 143.98 66.64 143.98 64.48V54.4H141.22V50ZM169.485 70V58.64C169.485 57.0133 169.258 55.84 168.805 55.12C168.352 54.4 167.525 54.04 166.325 54.04C165.445 54.04 164.632 54.3467 163.885 54.96C163.165 55.5467 162.685 56.3067 162.445 57.24V70H157.245V42H162.445V52.24H162.605C163.245 51.3867 164.032 50.7067 164.965 50.2C165.898 49.6933 167.085 49.44 168.525 49.44C169.538 49.44 170.432 49.5733 171.205 49.84C171.978 50.1067 172.618 50.5467 173.125 51.16C173.658 51.7733 174.045 52.6133 174.285 53.68C174.552 54.72 174.685 56.0133 174.685 57.56V70H169.485ZM195.042 68.28C194.242 68.92 193.148 69.4667 191.762 69.92C190.402 70.3467 188.948 70.56 187.402 70.56C184.175 70.56 181.815 69.6267 180.322 67.76C178.828 65.8667 178.082 63.28 178.082 60C178.082 56.48 178.922 53.84 180.602 52.08C182.282 50.32 184.642 49.44 187.682 49.44C188.695 49.44 189.682 49.5733 190.642 49.84C191.602 50.1067 192.455 50.5467 193.202 51.16C193.948 51.7733 194.548 52.6 195.002 53.64C195.455 54.68 195.682 55.9733 195.682 57.52C195.682 58.08 195.642 58.68 195.562 59.32C195.508 59.96 195.415 60.6267 195.282 61.32H183.282C183.362 63 183.788 64.2667 184.562 65.12C185.362 65.9733 186.642 66.4 188.402 66.4C189.495 66.4 190.468 66.24 191.322 65.92C192.202 65.5733 192.868 65.2267 193.322 64.88L195.042 68.28ZM187.602 53.6C186.242 53.6 185.228 54.0133 184.562 54.84C183.922 55.64 183.535 56.72 183.402 58.08H190.842C190.948 56.64 190.722 55.5333 190.162 54.76C189.628 53.9867 188.775 53.6 187.602 53.6ZM210.714 70V59.12C210.714 57.28 210.541 55.9733 210.194 55.2C209.848 54.4267 209.128 54.04 208.034 54.04C207.128 54.04 206.394 54.2933 205.834 54.8C205.274 55.28 204.848 55.9067 204.554 56.68V70H199.354V50H203.394L203.994 52.64H204.154C204.768 51.7867 205.541 51.04 206.474 50.4C207.434 49.76 208.661 49.44 210.154 49.44C211.434 49.44 212.474 49.7067 213.274 50.24C214.101 50.7467 214.741 51.6133 215.194 52.84C215.808 51.8 216.594 50.9733 217.554 50.36C218.514 49.7467 219.674 49.44 221.034 49.44C222.154 49.44 223.101 49.5733 223.874 49.84C224.674 50.1067 225.314 50.5733 225.794 51.24C226.301 51.88 226.674 52.7467 226.914 53.84C227.154 54.9333 227.274 56.32 227.274 58V70H222.074V58.76C222.074 57.1867 221.901 56.0133 221.554 55.24C221.234 54.44 220.501 54.04 219.354 54.04C218.421 54.04 217.674 54.2933 217.114 54.8C216.581 55.3067 216.181 56 215.914 56.88V70H210.714ZM247.542 68.28C246.742 68.92 245.648 69.4667 244.262 69.92C242.902 70.3467 241.448 70.56 239.902 70.56C236.675 70.56 234.315 69.6267 232.822 67.76C231.328 65.8667 230.582 63.28 230.582 60C230.582 56.48 231.422 53.84 233.102 52.08C234.782 50.32 237.142 49.44 240.182 49.44C241.195 49.44 242.182 49.5733 243.142 49.84C244.102 50.1067 244.955 50.5467 245.702 51.16C246.448 51.7733 247.048 52.6 247.502 53.64C247.955 54.68 248.182 55.9733 248.182 57.52C248.182 58.08 248.142 58.68 248.062 59.32C248.008 59.96 247.915 60.6267 247.782 61.32H235.782C235.862 63 236.288 64.2667 237.062 65.12C237.862 65.9733 239.142 66.4 240.902 66.4C241.995 66.4 242.968 66.24 243.822 65.92C244.702 65.5733 245.368 65.2267 245.822 64.88L247.542 68.28ZM240.102 53.6C238.742 53.6 237.728 54.0133 237.062 54.84C236.422 55.64 236.035 56.72 235.902 58.08H243.342C243.448 56.64 243.222 55.5333 242.662 54.76C242.128 53.9867 241.275 53.6 240.102 53.6Z" fill="#774099"/>
<path d="M440.154 44.12C440.154 44.4867 440.095 44.8607 439.978 45.242C439.861 45.6233 439.685 45.9827 439.45 46.32C439.215 46.6427 438.915 46.9287 438.548 47.178C438.181 47.4273 437.749 47.618 437.25 47.75V47.838C437.69 47.9113 438.108 48.036 438.504 48.212C438.915 48.388 439.274 48.63 439.582 48.938C439.89 49.246 440.139 49.62 440.33 50.06C440.521 50.5 440.616 51.0207 440.616 51.622C440.616 52.414 440.447 53.1033 440.11 53.69C439.787 54.262 439.355 54.7313 438.812 55.098C438.284 55.4647 437.675 55.736 436.986 55.912C436.297 56.088 435.593 56.176 434.874 56.176C434.625 56.176 434.331 56.176 433.994 56.176C433.657 56.176 433.305 56.1613 432.938 56.132C432.571 56.1173 432.205 56.088 431.838 56.044C431.471 56.0147 431.149 55.9633 430.87 55.89V40.732C431.413 40.644 432.043 40.5707 432.762 40.512C433.481 40.4533 434.265 40.424 435.116 40.424C435.688 40.424 436.267 40.4753 436.854 40.578C437.455 40.666 437.998 40.8493 438.482 41.128C438.966 41.392 439.362 41.766 439.67 42.25C439.993 42.734 440.154 43.3573 440.154 44.12ZM435.05 54.592C435.519 54.592 435.974 54.5407 436.414 54.438C436.854 54.3207 437.243 54.1447 437.58 53.91C437.917 53.6607 438.181 53.36 438.372 53.008C438.577 52.656 438.68 52.238 438.68 51.754C438.68 51.1527 438.555 50.6687 438.306 50.302C438.071 49.9353 437.756 49.6493 437.36 49.444C436.979 49.2387 436.546 49.0993 436.062 49.026C435.578 48.9527 435.094 48.916 434.61 48.916H432.696V54.438C432.799 54.4673 432.945 54.4893 433.136 54.504C433.327 54.5187 433.532 54.5333 433.752 54.548C433.972 54.5627 434.199 54.5773 434.434 54.592C434.669 54.592 434.874 54.592 435.05 54.592ZM433.84 47.376C434.089 47.376 434.39 47.3687 434.742 47.354C435.094 47.3393 435.387 47.3173 435.622 47.288C435.974 47.1707 436.304 47.0313 436.612 46.87C436.92 46.694 437.191 46.496 437.426 46.276C437.675 46.0413 437.866 45.7773 437.998 45.484C438.145 45.176 438.218 44.846 438.218 44.494C438.218 44.01 438.123 43.614 437.932 43.306C437.756 42.9833 437.514 42.7267 437.206 42.536C436.898 42.3453 436.546 42.2133 436.15 42.14C435.754 42.052 435.351 42.008 434.94 42.008C434.456 42.008 434.009 42.0227 433.598 42.052C433.202 42.0667 432.901 42.096 432.696 42.14V47.376H433.84ZM443.366 45.814C443.923 45.4767 444.568 45.2273 445.302 45.066C446.05 44.9047 446.827 44.824 447.634 44.824C448.396 44.824 449.005 44.9267 449.46 45.132C449.929 45.3373 450.281 45.6087 450.516 45.946C450.765 46.2687 450.926 46.628 451 47.024C451.088 47.42 451.132 47.816 451.132 48.212C451.132 49.092 451.11 49.95 451.066 50.786C451.022 51.622 451 52.414 451 53.162C451 53.7047 451.022 54.218 451.066 54.702C451.11 55.186 451.19 55.6333 451.308 56.044H450.01L449.548 54.504H449.438C449.306 54.7093 449.137 54.9147 448.932 55.12C448.741 55.3107 448.506 55.4867 448.228 55.648C447.949 55.7947 447.626 55.9193 447.26 56.022C446.893 56.1247 446.475 56.176 446.006 56.176C445.536 56.176 445.096 56.1027 444.686 55.956C444.29 55.8093 443.945 55.604 443.652 55.34C443.358 55.0613 443.124 54.7313 442.948 54.35C442.786 53.9687 442.706 53.536 442.706 53.052C442.706 52.4067 442.838 51.8713 443.102 51.446C443.366 51.006 443.732 50.6613 444.202 50.412C444.686 50.148 445.258 49.9647 445.918 49.862C446.592 49.7447 447.333 49.686 448.14 49.686C448.345 49.686 448.543 49.686 448.734 49.686C448.939 49.686 449.144 49.7007 449.35 49.73C449.394 49.29 449.416 48.894 449.416 48.542C449.416 47.7353 449.254 47.1707 448.932 46.848C448.609 46.5253 448.022 46.364 447.172 46.364C446.922 46.364 446.651 46.386 446.358 46.43C446.079 46.4593 445.786 46.5107 445.478 46.584C445.184 46.6427 444.898 46.7233 444.62 46.826C444.356 46.914 444.121 47.0167 443.916 47.134L443.366 45.814ZM446.49 54.636C446.9 54.636 447.267 54.5847 447.59 54.482C447.912 54.3647 448.191 54.2253 448.426 54.064C448.66 53.888 448.851 53.6973 448.998 53.492C449.159 53.2867 449.276 53.0887 449.35 52.898V51.072C449.144 51.0573 448.932 51.05 448.712 51.05C448.506 51.0353 448.301 51.028 448.096 51.028C447.641 51.028 447.194 51.0573 446.754 51.116C446.328 51.16 445.947 51.2553 445.61 51.402C445.287 51.534 445.023 51.7247 444.818 51.974C444.627 52.2087 444.532 52.5093 444.532 52.876C444.532 53.3893 444.715 53.8147 445.082 54.152C445.448 54.4747 445.918 54.636 446.49 54.636ZM461.958 55.274C461.518 55.5967 460.997 55.8387 460.396 56C459.794 56.176 459.164 56.264 458.504 56.264C457.653 56.264 456.934 56.132 456.348 55.868C455.761 55.5893 455.277 55.2007 454.896 54.702C454.529 54.1887 454.258 53.58 454.082 52.876C453.92 52.1573 453.84 51.3653 453.84 50.5C453.84 48.6373 454.25 47.2147 455.072 46.232C455.893 45.2347 457.074 44.736 458.614 44.736C459.318 44.736 459.912 44.7947 460.396 44.912C460.894 45.0147 461.342 45.1687 461.738 45.374L461.232 46.892C460.894 46.7013 460.52 46.5547 460.11 46.452C459.699 46.3347 459.259 46.276 458.79 46.276C456.707 46.276 455.666 47.684 455.666 50.5C455.666 51.0573 455.717 51.5927 455.82 52.106C455.937 52.6047 456.12 53.052 456.37 53.448C456.634 53.8293 456.971 54.1373 457.382 54.372C457.807 54.6067 458.328 54.724 458.944 54.724C459.472 54.724 459.941 54.6433 460.352 54.482C460.777 54.3207 461.122 54.1373 461.386 53.932L461.958 55.274ZM467.154 51.05H466.142V56H464.382V40.6H466.142V49.972L467.044 49.664L470.454 45H472.5L469.134 49.422L468.232 50.148L469.332 51.028L473.006 56H470.828L467.154 51.05ZM483.077 56.506C483.077 57.9287 482.696 58.9773 481.933 59.652C481.185 60.3267 480.07 60.664 478.589 60.664C477.709 60.664 476.998 60.6053 476.455 60.488C475.927 60.3853 475.472 60.246 475.091 60.07L475.553 58.574C475.89 58.706 476.264 58.8307 476.675 58.948C477.086 59.0653 477.621 59.124 478.281 59.124C478.897 59.124 479.396 59.0653 479.777 58.948C480.173 58.8453 480.488 58.662 480.723 58.398C480.958 58.1487 481.119 57.8187 481.207 57.408C481.295 57.012 481.339 56.5353 481.339 55.978V54.922H481.251C480.958 55.3473 480.584 55.6773 480.129 55.912C479.674 56.132 479.08 56.242 478.347 56.242C476.866 56.242 475.773 55.78 475.069 54.856C474.38 53.932 474.035 52.4947 474.035 50.544C474.035 48.6667 474.482 47.244 475.377 46.276C476.272 45.2933 477.592 44.802 479.337 44.802C480.173 44.802 480.884 44.868 481.471 45C482.072 45.132 482.608 45.286 483.077 45.462V56.506ZM478.655 54.702C479.403 54.702 479.99 54.5187 480.415 54.152C480.84 53.7707 481.141 53.184 481.317 52.392V46.76C480.73 46.4813 479.982 46.342 479.073 46.342C478.076 46.342 477.291 46.6793 476.719 47.354C476.147 48.0287 475.861 49.0847 475.861 50.522C475.861 51.138 475.912 51.7027 476.015 52.216C476.118 52.7293 476.279 53.1693 476.499 53.536C476.719 53.9027 477.005 54.1887 477.357 54.394C477.709 54.5993 478.142 54.702 478.655 54.702ZM491.659 46.694C491.219 46.5473 490.801 46.474 490.405 46.474C489.775 46.474 489.276 46.65 488.909 47.002C488.543 47.3393 488.315 47.772 488.227 48.3V56H486.467V45H487.699L488.029 46.342H488.117C488.396 45.8433 488.726 45.462 489.107 45.198C489.503 44.9193 490.002 44.78 490.603 44.78C491.029 44.78 491.505 44.8533 492.033 45L491.659 46.694ZM493.328 50.5C493.328 48.6373 493.739 47.2147 494.56 46.232C495.396 45.2347 496.591 44.736 498.146 44.736C498.967 44.736 499.679 44.8753 500.28 45.154C500.896 45.418 501.402 45.8067 501.798 46.32C502.194 46.8187 502.487 47.4273 502.678 48.146C502.869 48.85 502.964 49.6347 502.964 50.5C502.964 52.3627 502.546 53.7927 501.71 54.79C500.889 55.7727 499.701 56.264 498.146 56.264C497.325 56.264 496.606 56.132 495.99 55.868C495.389 55.5893 494.89 55.2007 494.494 54.702C494.098 54.1887 493.805 53.58 493.614 52.876C493.423 52.1573 493.328 51.3653 493.328 50.5ZM495.154 50.5C495.154 51.0573 495.205 51.5927 495.308 52.106C495.425 52.6193 495.601 53.0667 495.836 53.448C496.071 53.8293 496.379 54.1373 496.76 54.372C497.141 54.6067 497.603 54.724 498.146 54.724C500.141 54.7387 501.138 53.3307 501.138 50.5C501.138 49.928 501.079 49.3853 500.962 48.872C500.859 48.3587 500.691 47.9113 500.456 47.53C500.221 47.1487 499.913 46.848 499.532 46.628C499.151 46.3933 498.689 46.276 498.146 46.276C496.151 46.2613 495.154 47.6693 495.154 50.5ZM507.323 45V51.27C507.323 51.842 507.352 52.348 507.411 52.788C507.484 53.2133 507.602 53.5727 507.763 53.866C507.924 54.1447 508.144 54.3573 508.423 54.504C508.702 54.6507 509.054 54.724 509.479 54.724C509.875 54.724 510.227 54.6653 510.535 54.548C510.843 54.416 511.114 54.24 511.349 54.02C511.598 53.8 511.811 53.5507 511.987 53.272C512.178 52.9787 512.332 52.6707 512.449 52.348V45H514.209V52.876C514.209 53.404 514.224 53.954 514.253 54.526C514.297 55.0833 514.363 55.5747 514.451 56H513.241L512.801 54.262H512.691C512.354 54.834 511.899 55.3107 511.327 55.692C510.755 56.0733 510.029 56.264 509.149 56.264C508.562 56.264 508.042 56.1907 507.587 56.044C507.147 55.912 506.773 55.67 506.465 55.318C506.172 54.966 505.944 54.4967 505.783 53.91C505.636 53.3087 505.563 52.5533 505.563 51.644V45H507.323ZM524.66 56V49.73C524.66 48.586 524.492 47.728 524.154 47.156C523.832 46.5693 523.23 46.276 522.35 46.276C521.573 46.276 520.928 46.4887 520.414 46.914C519.916 47.3247 519.564 47.8453 519.358 48.476V56H517.598V45H518.83L519.16 46.342H519.248C519.6 45.8727 520.07 45.4913 520.656 45.198C521.258 44.89 521.969 44.736 522.79 44.736C523.392 44.736 523.92 44.8093 524.374 44.956C524.829 45.088 525.203 45.33 525.496 45.682C525.804 46.034 526.032 46.5107 526.178 47.112C526.34 47.6987 526.42 48.4467 526.42 49.356V56H524.66ZM538.078 52.216C538.078 52.964 538.085 53.646 538.1 54.262C538.114 54.8633 538.18 55.4573 538.298 56.044H537.11L536.67 54.482H536.582C536.288 54.9953 535.863 55.4207 535.306 55.758C534.748 56.0953 534.096 56.264 533.348 56.264C531.881 56.264 530.788 55.802 530.07 54.878C529.366 53.954 529.014 52.5093 529.014 50.544C529.014 48.6667 529.454 47.244 530.334 46.276C531.228 45.2933 532.453 44.802 534.008 44.802C534.55 44.802 534.976 44.8313 535.284 44.89C535.606 44.9487 535.951 45.044 536.318 45.176V40.6H538.078V52.216ZM533.634 54.724C534.382 54.724 534.976 54.5333 535.416 54.152C535.856 53.756 536.156 53.162 536.318 52.37V46.914C536.054 46.7087 535.753 46.562 535.416 46.474C535.078 46.386 534.631 46.342 534.074 46.342C533.062 46.342 532.27 46.6793 531.698 47.354C531.126 48.014 530.84 49.0773 530.84 50.544C530.84 51.1453 530.884 51.7027 530.972 52.216C531.074 52.7293 531.236 53.1693 531.456 53.536C531.676 53.9027 531.962 54.196 532.314 54.416C532.68 54.6213 533.12 54.724 533.634 54.724ZM541.775 46.122C541.775 45.726 541.885 45.418 542.105 45.198C542.34 44.9633 542.648 44.846 543.029 44.846C543.425 44.846 543.741 44.9633 543.975 45.198C544.21 45.418 544.327 45.726 544.327 46.122C544.327 46.5033 544.21 46.8113 543.975 47.046C543.741 47.2807 543.425 47.398 543.029 47.398C542.648 47.398 542.34 47.2807 542.105 47.046C541.885 46.8113 541.775 46.5033 541.775 46.122ZM541.775 54.988C541.775 54.592 541.885 54.284 542.105 54.064C542.34 53.8293 542.648 53.712 543.029 53.712C543.425 53.712 543.741 53.8293 543.975 54.064C544.21 54.284 544.327 54.592 544.327 54.988C544.327 55.3693 544.21 55.6773 543.975 55.912C543.741 56.1467 543.425 56.264 543.029 56.264C542.648 56.264 542.34 56.1467 542.105 55.912C541.885 55.6773 541.775 55.3693 541.775 54.988ZM440.088 82.938H432.696V90H430.87V74.6H432.696V81.31H440.088V74.6H441.914V90H440.088V82.938ZM453.505 89.12C453.065 89.472 452.508 89.7507 451.833 89.956C451.173 90.1613 450.469 90.264 449.721 90.264C448.885 90.264 448.159 90.132 447.543 89.868C446.927 89.5893 446.421 89.2007 446.025 88.702C445.629 88.1887 445.336 87.58 445.145 86.876C444.955 86.172 444.859 85.38 444.859 84.5C444.859 82.6227 445.277 81.1927 446.113 80.21C446.949 79.2273 448.145 78.736 449.699 78.736C450.198 78.736 450.697 78.7947 451.195 78.912C451.694 79.0147 452.141 79.22 452.537 79.528C452.933 79.836 453.256 80.276 453.505 80.848C453.755 81.4053 453.879 82.146 453.879 83.07C453.879 83.554 453.835 84.0893 453.747 84.676H446.685C446.685 85.3213 446.751 85.8933 446.883 86.392C447.015 86.8907 447.221 87.316 447.499 87.668C447.778 88.0053 448.137 88.2693 448.577 88.46C449.032 88.636 449.582 88.724 450.227 88.724C450.726 88.724 451.225 88.636 451.723 88.46C452.222 88.284 452.596 88.0787 452.845 87.844L453.505 89.12ZM449.721 80.276C448.856 80.276 448.159 80.5033 447.631 80.958C447.118 81.4127 446.81 82.19 446.707 83.29H452.163C452.163 82.1753 451.951 81.398 451.525 80.958C451.1 80.5033 450.499 80.276 449.721 80.276ZM456.471 79.814C457.028 79.4767 457.674 79.2273 458.407 79.066C459.155 78.9047 459.932 78.824 460.739 78.824C461.502 78.824 462.11 78.9267 462.565 79.132C463.034 79.3373 463.386 79.6087 463.621 79.946C463.87 80.2687 464.032 80.628 464.105 81.024C464.193 81.42 464.237 81.816 464.237 82.212C464.237 83.092 464.215 83.95 464.171 84.786C464.127 85.622 464.105 86.414 464.105 87.162C464.105 87.7047 464.127 88.218 464.171 88.702C464.215 89.186 464.296 89.6333 464.413 90.044H463.115L462.653 88.504H462.543C462.411 88.7093 462.242 88.9147 462.037 89.12C461.846 89.3107 461.612 89.4867 461.333 89.648C461.054 89.7947 460.732 89.9193 460.365 90.022C459.998 90.1247 459.58 90.176 459.111 90.176C458.642 90.176 458.202 90.1027 457.791 89.956C457.395 89.8093 457.05 89.604 456.757 89.34C456.464 89.0613 456.229 88.7313 456.053 88.35C455.892 87.9687 455.811 87.536 455.811 87.052C455.811 86.4067 455.943 85.8713 456.207 85.446C456.471 85.006 456.838 84.6613 457.307 84.412C457.791 84.148 458.363 83.9647 459.023 83.862C459.698 83.7447 460.438 83.686 461.245 83.686C461.45 83.686 461.648 83.686 461.839 83.686C462.044 83.686 462.25 83.7007 462.455 83.73C462.499 83.29 462.521 82.894 462.521 82.542C462.521 81.7353 462.36 81.1707 462.037 80.848C461.714 80.5253 461.128 80.364 460.277 80.364C460.028 80.364 459.756 80.386 459.463 80.43C459.184 80.4593 458.891 80.5107 458.583 80.584C458.29 80.6427 458.004 80.7233 457.725 80.826C457.461 80.914 457.226 81.0167 457.021 81.134L456.471 79.814ZM459.595 88.636C460.006 88.636 460.372 88.5847 460.695 88.482C461.018 88.3647 461.296 88.2253 461.531 88.064C461.766 87.888 461.956 87.6973 462.103 87.492C462.264 87.2867 462.382 87.0887 462.455 86.898V85.072C462.25 85.0573 462.037 85.05 461.817 85.05C461.612 85.0353 461.406 85.028 461.201 85.028C460.746 85.028 460.299 85.0573 459.859 85.116C459.434 85.16 459.052 85.2553 458.715 85.402C458.392 85.534 458.128 85.7247 457.923 85.974C457.732 86.2087 457.637 86.5093 457.637 86.876C457.637 87.3893 457.82 87.8147 458.187 88.152C458.554 88.4747 459.023 88.636 459.595 88.636ZM476.009 86.216C476.009 86.964 476.017 87.646 476.031 88.262C476.046 88.8633 476.112 89.4573 476.229 90.044H475.041L474.601 88.482H474.513C474.22 88.9953 473.795 89.4207 473.237 89.758C472.68 90.0953 472.027 90.264 471.279 90.264C469.813 90.264 468.72 89.802 468.001 88.878C467.297 87.954 466.945 86.5093 466.945 84.544C466.945 82.6667 467.385 81.244 468.265 80.276C469.16 79.2933 470.385 78.802 471.939 78.802C472.482 78.802 472.907 78.8313 473.215 78.89C473.538 78.9487 473.883 79.044 474.249 79.176V74.6H476.009V86.216ZM471.565 88.724C472.313 88.724 472.907 88.5333 473.347 88.152C473.787 87.756 474.088 87.162 474.249 86.37V80.914C473.985 80.7087 473.685 80.562 473.347 80.474C473.01 80.386 472.563 80.342 472.005 80.342C470.993 80.342 470.201 80.6793 469.629 81.354C469.057 82.014 468.771 83.0773 468.771 84.544C468.771 85.1453 468.815 85.7027 468.903 86.216C469.006 86.7293 469.167 87.1693 469.387 87.536C469.607 87.9027 469.893 88.196 470.245 88.416C470.612 88.6213 471.052 88.724 471.565 88.724ZM479.773 79H481.533V90H479.773V79ZM479.399 75.656C479.399 75.3187 479.509 75.0327 479.729 74.798C479.964 74.5487 480.257 74.424 480.609 74.424C480.961 74.424 481.262 74.5487 481.511 74.798C481.76 75.0327 481.885 75.3187 481.885 75.656C481.885 75.9933 481.76 76.272 481.511 76.492C481.262 76.712 480.961 76.822 480.609 76.822C480.257 76.822 479.964 76.712 479.729 76.492C479.509 76.272 479.399 75.9933 479.399 75.656ZM492.348 90V83.73C492.348 82.586 492.179 81.728 491.842 81.156C491.519 80.5693 490.918 80.276 490.038 80.276C489.26 80.276 488.615 80.4887 488.102 80.914C487.603 81.3247 487.251 81.8453 487.046 82.476V90H485.286V79H486.518L486.848 80.342H486.936C487.288 79.8727 487.757 79.4913 488.344 79.198C488.945 78.89 489.656 78.736 490.478 78.736C491.079 78.736 491.607 78.8093 492.062 78.956C492.516 79.088 492.89 79.33 493.184 79.682C493.492 80.034 493.719 80.5107 493.866 81.112C494.027 81.6987 494.108 82.4467 494.108 83.356V90H492.348ZM505.743 90.506C505.743 91.9287 505.362 92.9773 504.599 93.652C503.851 94.3267 502.736 94.664 501.255 94.664C500.375 94.664 499.664 94.6053 499.121 94.488C498.593 94.3853 498.138 94.246 497.757 94.07L498.219 92.574C498.556 92.706 498.93 92.8307 499.341 92.948C499.752 93.0653 500.287 93.124 500.947 93.124C501.563 93.124 502.062 93.0653 502.443 92.948C502.839 92.8453 503.154 92.662 503.389 92.398C503.624 92.1487 503.785 91.8187 503.873 91.408C503.961 91.012 504.005 90.5353 504.005 89.978V88.922H503.917C503.624 89.3473 503.25 89.6773 502.795 89.912C502.34 90.132 501.746 90.242 501.013 90.242C499.532 90.242 498.439 89.78 497.735 88.856C497.046 87.932 496.701 86.4947 496.701 84.544C496.701 82.6667 497.148 81.244 498.043 80.276C498.938 79.2933 500.258 78.802 502.003 78.802C502.839 78.802 503.55 78.868 504.137 79C504.738 79.132 505.274 79.286 505.743 79.462V90.506ZM501.321 88.702C502.069 88.702 502.656 88.5187 503.081 88.152C503.506 87.7707 503.807 87.184 503.983 86.392V80.76C503.396 80.4813 502.648 80.342 501.739 80.342C500.742 80.342 499.957 80.6793 499.385 81.354C498.813 82.0287 498.527 83.0847 498.527 84.522C498.527 85.138 498.578 85.7027 498.681 86.216C498.784 86.7293 498.945 87.1693 499.165 87.536C499.385 87.9027 499.671 88.1887 500.023 88.394C500.375 88.5993 500.808 88.702 501.321 88.702ZM513.547 79H515.263V76.822L517.023 76.316V79H520.015V80.54H517.023V86.634C517.023 87.3967 517.118 87.9393 517.309 88.262C517.499 88.57 517.822 88.724 518.277 88.724C518.658 88.724 518.981 88.6873 519.245 88.614C519.509 88.526 519.802 88.416 520.125 88.284L520.521 89.626C520.125 89.8167 519.692 89.9707 519.223 90.088C518.753 90.2053 518.247 90.264 517.705 90.264C516.81 90.264 516.179 90.0147 515.813 89.516C515.446 89.0027 515.263 88.152 515.263 86.964V80.54H513.547V79ZM530.247 89.12C529.807 89.472 529.25 89.7507 528.575 89.956C527.915 90.1613 527.211 90.264 526.463 90.264C525.627 90.264 524.901 90.132 524.285 89.868C523.669 89.5893 523.163 89.2007 522.767 88.702C522.371 88.1887 522.078 87.58 521.887 86.876C521.697 86.172 521.601 85.38 521.601 84.5C521.601 82.6227 522.019 81.1927 522.855 80.21C523.691 79.2273 524.887 78.736 526.441 78.736C526.94 78.736 527.439 78.7947 527.937 78.912C528.436 79.0147 528.883 79.22 529.279 79.528C529.675 79.836 529.998 80.276 530.247 80.848C530.497 81.4053 530.621 82.146 530.621 83.07C530.621 83.554 530.577 84.0893 530.489 84.676H523.427C523.427 85.3213 523.493 85.8933 523.625 86.392C523.757 86.8907 523.963 87.316 524.241 87.668C524.52 88.0053 524.879 88.2693 525.319 88.46C525.774 88.636 526.324 88.724 526.969 88.724C527.468 88.724 527.967 88.636 528.465 88.46C528.964 88.284 529.338 88.0787 529.587 87.844L530.247 89.12ZM526.463 80.276C525.598 80.276 524.901 80.5033 524.373 80.958C523.86 81.4127 523.552 82.19 523.449 83.29H528.905C528.905 82.1753 528.693 81.398 528.267 80.958C527.842 80.5033 527.241 80.276 526.463 80.276ZM535.756 84.368L532.06 79H534.216L536.306 82.036L536.922 83.29L537.56 82.036L539.694 79H541.674L537.956 84.28L541.894 90H539.804L537.472 86.656L536.812 85.336L536.13 86.656L533.754 90H531.796L535.756 84.368ZM542.744 79H544.46V76.822L546.22 76.316V79H549.212V80.54H546.22V86.634C546.22 87.3967 546.315 87.9393 546.506 88.262C546.697 88.57 547.019 88.724 547.474 88.724C547.855 88.724 548.178 88.6873 548.442 88.614C548.706 88.526 548.999 88.416 549.322 88.284L549.718 89.626C549.322 89.8167 548.889 89.9707 548.42 90.088C547.951 90.2053 547.445 90.264 546.902 90.264C546.007 90.264 545.377 90.0147 545.01 89.516C544.643 89.0027 544.46 88.152 544.46 86.964V80.54H542.744V79ZM551.959 80.122C551.959 79.726 552.069 79.418 552.289 79.198C552.524 78.9633 552.832 78.846 553.213 78.846C553.609 78.846 553.924 78.9633 554.159 79.198C554.394 79.418 554.511 79.726 554.511 80.122C554.511 80.5033 554.394 80.8113 554.159 81.046C553.924 81.2807 553.609 81.398 553.213 81.398C552.832 81.398 552.524 81.2807 552.289 81.046C552.069 80.8113 551.959 80.5033 551.959 80.122ZM551.959 88.988C551.959 88.592 552.069 88.284 552.289 88.064C552.524 87.8293 552.832 87.712 553.213 87.712C553.609 87.712 553.924 87.8293 554.159 88.064C554.394 88.284 554.511 88.592 554.511 88.988C554.511 89.3693 554.394 89.6773 554.159 89.912C553.924 90.1467 553.609 90.264 553.213 90.264C552.832 90.264 552.524 90.1467 552.289 89.912C552.069 89.6773 551.959 89.3693 551.959 88.988ZM440.088 116.938H432.696V124H430.87V108.6H432.696V115.31H440.088V108.6H441.914V124H440.088V116.938ZM445.849 113H447.609V124H445.849V113ZM445.475 109.656C445.475 109.319 445.585 109.033 445.805 108.798C446.04 108.549 446.333 108.424 446.685 108.424C447.037 108.424 447.338 108.549 447.587 108.798C447.837 109.033 447.961 109.319 447.961 109.656C447.961 109.993 447.837 110.272 447.587 110.492C447.338 110.712 447.037 110.822 446.685 110.822C446.333 110.822 446.04 110.712 445.805 110.492C445.585 110.272 445.475 109.993 445.475 109.656ZM459.788 124.506C459.788 125.929 459.407 126.977 458.644 127.652C457.896 128.327 456.781 128.664 455.3 128.664C454.42 128.664 453.709 128.605 453.166 128.488C452.638 128.385 452.183 128.246 451.802 128.07L452.264 126.574C452.601 126.706 452.975 126.831 453.386 126.948C453.797 127.065 454.332 127.124 454.992 127.124C455.608 127.124 456.107 127.065 456.488 126.948C456.884 126.845 457.199 126.662 457.434 126.398C457.669 126.149 457.83 125.819 457.918 125.408C458.006 125.012 458.05 124.535 458.05 123.978V122.922H457.962C457.669 123.347 457.295 123.677 456.84 123.912C456.385 124.132 455.791 124.242 455.058 124.242C453.577 124.242 452.484 123.78 451.78 122.856C451.091 121.932 450.746 120.495 450.746 118.544C450.746 116.667 451.193 115.244 452.088 114.276C452.983 113.293 454.303 112.802 456.048 112.802C456.884 112.802 457.595 112.868 458.182 113C458.783 113.132 459.319 113.286 459.788 113.462V124.506ZM455.366 122.702C456.114 122.702 456.701 122.519 457.126 122.152C457.551 121.771 457.852 121.184 458.028 120.392V114.76C457.441 114.481 456.693 114.342 455.784 114.342C454.787 114.342 454.002 114.679 453.43 115.354C452.858 116.029 452.572 117.085 452.572 118.522C452.572 119.138 452.623 119.703 452.726 120.216C452.829 120.729 452.99 121.169 453.21 121.536C453.43 121.903 453.716 122.189 454.068 122.394C454.42 122.599 454.853 122.702 455.366 122.702ZM470.24 124V117.73C470.24 117.158 470.204 116.659 470.13 116.234C470.072 115.794 469.954 115.435 469.778 115.156C469.602 114.863 469.36 114.643 469.052 114.496C468.759 114.349 468.37 114.276 467.886 114.276C467.197 114.276 466.574 114.503 466.016 114.958C465.459 115.398 465.1 115.97 464.938 116.674V124H463.178V108.6H464.938V114.232H465.026C465.408 113.777 465.862 113.418 466.39 113.154C466.933 112.875 467.6 112.736 468.392 112.736C469.008 112.736 469.544 112.809 469.998 112.956C470.453 113.088 470.827 113.33 471.12 113.682C471.428 114.034 471.648 114.511 471.78 115.112C471.927 115.699 472 116.447 472 117.356V124H470.24ZM477.168 121.294C477.168 121.807 477.256 122.174 477.432 122.394C477.608 122.614 477.857 122.724 478.18 122.724C478.37 122.724 478.576 122.709 478.796 122.68C479.016 122.651 479.265 122.585 479.544 122.482L479.742 123.868C479.507 123.985 479.177 124.081 478.752 124.154C478.341 124.227 477.982 124.264 477.674 124.264C477.014 124.264 476.471 124.081 476.046 123.714C475.62 123.333 475.408 122.695 475.408 121.8V108.6H477.168V121.294ZM482.007 113H483.767V124H482.007V113ZM481.633 109.656C481.633 109.319 481.743 109.033 481.963 108.798C482.198 108.549 482.491 108.424 482.843 108.424C483.195 108.424 483.496 108.549 483.745 108.798C483.995 109.033 484.119 109.319 484.119 109.656C484.119 109.993 483.995 110.272 483.745 110.492C483.496 110.712 483.195 110.822 482.843 110.822C482.491 110.822 482.198 110.712 481.963 110.492C481.743 110.272 481.633 109.993 481.633 109.656ZM495.946 124.506C495.946 125.929 495.565 126.977 494.802 127.652C494.054 128.327 492.94 128.664 491.458 128.664C490.578 128.664 489.867 128.605 489.324 128.488C488.796 128.385 488.342 128.246 487.96 128.07L488.422 126.574C488.76 126.706 489.134 126.831 489.544 126.948C489.955 127.065 490.49 127.124 491.15 127.124C491.766 127.124 492.265 127.065 492.646 126.948C493.042 126.845 493.358 126.662 493.592 126.398C493.827 126.149 493.988 125.819 494.076 125.408C494.164 125.012 494.208 124.535 494.208 123.978V122.922H494.12C493.827 123.347 493.453 123.677 492.998 123.912C492.544 124.132 491.95 124.242 491.216 124.242C489.735 124.242 488.642 123.78 487.938 122.856C487.249 121.932 486.904 120.495 486.904 118.544C486.904 116.667 487.352 115.244 488.246 114.276C489.141 113.293 490.461 112.802 492.206 112.802C493.042 112.802 493.754 112.868 494.34 113C494.942 113.132 495.477 113.286 495.946 113.462V124.506ZM491.524 122.702C492.272 122.702 492.859 122.519 493.284 122.152C493.71 121.771 494.01 121.184 494.186 120.392V114.76C493.6 114.481 492.852 114.342 491.942 114.342C490.945 114.342 490.16 114.679 489.588 115.354C489.016 116.029 488.73 117.085 488.73 118.522C488.73 119.138 488.782 119.703 488.884 120.216C488.987 120.729 489.148 121.169 489.368 121.536C489.588 121.903 489.874 122.189 490.226 122.394C490.578 122.599 491.011 122.702 491.524 122.702ZM506.399 124V117.73C506.399 117.158 506.362 116.659 506.289 116.234C506.23 115.794 506.113 115.435 505.937 115.156C505.761 114.863 505.519 114.643 505.211 114.496C504.917 114.349 504.529 114.276 504.045 114.276C503.355 114.276 502.732 114.503 502.175 114.958C501.617 115.398 501.258 115.97 501.097 116.674V124H499.337V108.6H501.097V114.232H501.185C501.566 113.777 502.021 113.418 502.549 113.154C503.091 112.875 503.759 112.736 504.551 112.736C505.167 112.736 505.702 112.809 506.157 112.956C506.611 113.088 506.985 113.33 507.279 113.682C507.587 114.034 507.807 114.511 507.939 115.112C508.085 115.699 508.159 116.447 508.159 117.356V124H506.399ZM509.916 113H511.632V110.822L513.392 110.316V113H516.384V114.54H513.392V120.634C513.392 121.397 513.487 121.939 513.678 122.262C513.868 122.57 514.191 122.724 514.646 122.724C515.027 122.724 515.35 122.687 515.614 122.614C515.878 122.526 516.171 122.416 516.494 122.284L516.89 123.626C516.494 123.817 516.061 123.971 515.592 124.088C515.122 124.205 514.616 124.264 514.074 124.264C513.179 124.264 512.548 124.015 512.182 123.516C511.815 123.003 511.632 122.152 511.632 120.964V114.54H509.916V113ZM523.663 121.008C523.663 120.568 523.531 120.223 523.267 119.974C523.003 119.725 522.673 119.519 522.277 119.358C521.896 119.182 521.47 119.021 521.001 118.874C520.546 118.713 520.121 118.515 519.725 118.28C519.344 118.031 519.021 117.715 518.757 117.334C518.493 116.953 518.361 116.439 518.361 115.794C518.361 114.738 518.662 113.968 519.263 113.484C519.864 112.985 520.7 112.736 521.771 112.736C522.563 112.736 523.223 112.809 523.751 112.956C524.294 113.088 524.763 113.249 525.159 113.44L524.741 114.892C524.404 114.731 523.993 114.591 523.509 114.474C523.04 114.342 522.534 114.276 521.991 114.276C521.346 114.276 520.869 114.386 520.561 114.606C520.268 114.826 520.121 115.207 520.121 115.75C520.121 116.131 520.253 116.432 520.517 116.652C520.781 116.857 521.104 117.048 521.485 117.224C521.881 117.385 522.306 117.547 522.761 117.708C523.23 117.869 523.656 118.082 524.037 118.346C524.433 118.61 524.763 118.947 525.027 119.358C525.291 119.754 525.423 120.282 525.423 120.942C525.423 121.411 525.342 121.851 525.181 122.262C525.034 122.673 524.8 123.025 524.477 123.318C524.154 123.611 523.751 123.839 523.267 124C522.798 124.176 522.24 124.264 521.595 124.264C520.759 124.264 520.048 124.183 519.461 124.022C518.874 123.861 518.383 123.67 517.987 123.45L518.515 121.954C518.852 122.145 519.292 122.321 519.835 122.482C520.378 122.643 520.928 122.724 521.485 122.724C522.116 122.724 522.636 122.599 523.047 122.35C523.458 122.101 523.663 121.653 523.663 121.008ZM528.391 114.122C528.391 113.726 528.501 113.418 528.721 113.198C528.955 112.963 529.263 112.846 529.645 112.846C530.041 112.846 530.356 112.963 530.591 113.198C530.825 113.418 530.943 113.726 530.943 114.122C530.943 114.503 530.825 114.811 530.591 115.046C530.356 115.281 530.041 115.398 529.645 115.398C529.263 115.398 528.955 115.281 528.721 115.046C528.501 114.811 528.391 114.503 528.391 114.122ZM528.391 122.988C528.391 122.592 528.501 122.284 528.721 122.064C528.955 121.829 529.263 121.712 529.645 121.712C530.041 121.712 530.356 121.829 530.591 122.064C530.825 122.284 530.943 122.592 530.943 122.988C530.943 123.369 530.825 123.677 530.591 123.912C530.356 124.147 530.041 124.264 529.645 124.264C529.263 124.264 528.955 124.147 528.721 123.912C528.501 123.677 528.391 123.369 528.391 122.988ZM440.154 146.12C440.154 146.487 440.095 146.861 439.978 147.242C439.861 147.623 439.685 147.983 439.45 148.32C439.215 148.643 438.915 148.929 438.548 149.178C438.181 149.427 437.749 149.618 437.25 149.75V149.838C437.69 149.911 438.108 150.036 438.504 150.212C438.915 150.388 439.274 150.63 439.582 150.938C439.89 151.246 440.139 151.62 440.33 152.06C440.521 152.5 440.616 153.021 440.616 153.622C440.616 154.414 440.447 155.103 440.11 155.69C439.787 156.262 439.355 156.731 438.812 157.098C438.284 157.465 437.675 157.736 436.986 157.912C436.297 158.088 435.593 158.176 434.874 158.176C434.625 158.176 434.331 158.176 433.994 158.176C433.657 158.176 433.305 158.161 432.938 158.132C432.571 158.117 432.205 158.088 431.838 158.044C431.471 158.015 431.149 157.963 430.87 157.89V142.732C431.413 142.644 432.043 142.571 432.762 142.512C433.481 142.453 434.265 142.424 435.116 142.424C435.688 142.424 436.267 142.475 436.854 142.578C437.455 142.666 437.998 142.849 438.482 143.128C438.966 143.392 439.362 143.766 439.67 144.25C439.993 144.734 440.154 145.357 440.154 146.12ZM435.05 156.592C435.519 156.592 435.974 156.541 436.414 156.438C436.854 156.321 437.243 156.145 437.58 155.91C437.917 155.661 438.181 155.36 438.372 155.008C438.577 154.656 438.68 154.238 438.68 153.754C438.68 153.153 438.555 152.669 438.306 152.302C438.071 151.935 437.756 151.649 437.36 151.444C436.979 151.239 436.546 151.099 436.062 151.026C435.578 150.953 435.094 150.916 434.61 150.916H432.696V156.438C432.799 156.467 432.945 156.489 433.136 156.504C433.327 156.519 433.532 156.533 433.752 156.548C433.972 156.563 434.199 156.577 434.434 156.592C434.669 156.592 434.874 156.592 435.05 156.592ZM433.84 149.376C434.089 149.376 434.39 149.369 434.742 149.354C435.094 149.339 435.387 149.317 435.622 149.288C435.974 149.171 436.304 149.031 436.612 148.87C436.92 148.694 437.191 148.496 437.426 148.276C437.675 148.041 437.866 147.777 437.998 147.484C438.145 147.176 438.218 146.846 438.218 146.494C438.218 146.01 438.123 145.614 437.932 145.306C437.756 144.983 437.514 144.727 437.206 144.536C436.898 144.345 436.546 144.213 436.15 144.14C435.754 144.052 435.351 144.008 434.94 144.008C434.456 144.008 434.009 144.023 433.598 144.052C433.202 144.067 432.901 144.096 432.696 144.14V149.376H433.84ZM442.926 152.5C442.926 150.637 443.336 149.215 444.158 148.232C444.994 147.235 446.189 146.736 447.744 146.736C448.565 146.736 449.276 146.875 449.878 147.154C450.494 147.418 451 147.807 451.396 148.32C451.792 148.819 452.085 149.427 452.276 150.146C452.466 150.85 452.562 151.635 452.562 152.5C452.562 154.363 452.144 155.793 451.308 156.79C450.486 157.773 449.298 158.264 447.744 158.264C446.922 158.264 446.204 158.132 445.588 157.868C444.986 157.589 444.488 157.201 444.092 156.702C443.696 156.189 443.402 155.58 443.212 154.876C443.021 154.157 442.926 153.365 442.926 152.5ZM444.752 152.5C444.752 153.057 444.803 153.593 444.906 154.106C445.023 154.619 445.199 155.067 445.434 155.448C445.668 155.829 445.976 156.137 446.358 156.372C446.739 156.607 447.201 156.724 447.744 156.724C449.738 156.739 450.736 155.331 450.736 152.5C450.736 151.928 450.677 151.385 450.56 150.872C450.457 150.359 450.288 149.911 450.054 149.53C449.819 149.149 449.511 148.848 449.13 148.628C448.748 148.393 448.286 148.276 447.744 148.276C445.749 148.261 444.752 149.669 444.752 152.5ZM463.785 154.216C463.785 154.964 463.792 155.646 463.807 156.262C463.821 156.863 463.887 157.457 464.005 158.044H462.817L462.377 156.482H462.289C461.995 156.995 461.57 157.421 461.013 157.758C460.455 158.095 459.803 158.264 459.055 158.264C457.588 158.264 456.495 157.802 455.777 156.878C455.073 155.954 454.721 154.509 454.721 152.544C454.721 150.667 455.161 149.244 456.041 148.276C456.935 147.293 458.16 146.802 459.715 146.802C460.257 146.802 460.683 146.831 460.991 146.89C461.313 146.949 461.658 147.044 462.025 147.176V142.6H463.785V154.216ZM459.341 156.724C460.089 156.724 460.683 156.533 461.123 156.152C461.563 155.756 461.863 155.162 462.025 154.37V148.914C461.761 148.709 461.46 148.562 461.123 148.474C460.785 148.386 460.338 148.342 459.781 148.342C458.769 148.342 457.977 148.679 457.405 149.354C456.833 150.014 456.547 151.077 456.547 152.544C456.547 153.145 456.591 153.703 456.679 154.216C456.781 154.729 456.943 155.169 457.163 155.536C457.383 155.903 457.669 156.196 458.021 156.416C458.387 156.621 458.827 156.724 459.341 156.724ZM470.408 154.128L471.024 156.24H471.134L471.618 154.106L473.752 147H475.534L472.278 156.878C472.029 157.597 471.78 158.293 471.53 158.968C471.296 159.643 471.032 160.244 470.738 160.772C470.445 161.3 470.115 161.718 469.748 162.026C469.382 162.349 468.956 162.51 468.472 162.51C467.944 162.51 467.512 162.437 467.174 162.29L467.482 160.772C467.673 160.845 467.856 160.882 468.032 160.882C468.443 160.882 468.839 160.662 469.22 160.222C469.602 159.797 469.917 159.056 470.166 158L465.744 147H467.768L470.408 154.128ZM481.041 147H482.757V144.822L484.517 144.316V147H487.509V148.54H484.517V154.634C484.517 155.397 484.612 155.939 484.803 156.262C484.993 156.57 485.316 156.724 485.771 156.724C486.152 156.724 486.475 156.687 486.739 156.614C487.003 156.526 487.296 156.416 487.619 156.284L488.015 157.626C487.619 157.817 487.186 157.971 486.717 158.088C486.247 158.205 485.741 158.264 485.199 158.264C484.304 158.264 483.673 158.015 483.307 157.516C482.94 157.003 482.757 156.152 482.757 154.964V148.54H481.041V147ZM497.742 157.12C497.302 157.472 496.744 157.751 496.07 157.956C495.41 158.161 494.706 158.264 493.958 158.264C493.122 158.264 492.396 158.132 491.78 157.868C491.164 157.589 490.658 157.201 490.262 156.702C489.866 156.189 489.572 155.58 489.382 154.876C489.191 154.172 489.096 153.38 489.096 152.5C489.096 150.623 489.514 149.193 490.35 148.21C491.186 147.227 492.381 146.736 493.936 146.736C494.434 146.736 494.933 146.795 495.432 146.912C495.93 147.015 496.378 147.22 496.774 147.528C497.17 147.836 497.492 148.276 497.742 148.848C497.991 149.405 498.116 150.146 498.116 151.07C498.116 151.554 498.072 152.089 497.984 152.676H490.922C490.922 153.321 490.988 153.893 491.12 154.392C491.252 154.891 491.457 155.316 491.736 155.668C492.014 156.005 492.374 156.269 492.814 156.46C493.268 156.636 493.818 156.724 494.464 156.724C494.962 156.724 495.461 156.636 495.96 156.46C496.458 156.284 496.832 156.079 497.082 155.844L497.742 157.12ZM493.958 148.276C493.092 148.276 492.396 148.503 491.868 148.958C491.354 149.413 491.046 150.19 490.944 151.29H496.4C496.4 150.175 496.187 149.398 495.762 148.958C495.336 148.503 494.735 148.276 493.958 148.276ZM503.25 152.368L499.554 147H501.71L503.8 150.036L504.416 151.29L505.054 150.036L507.188 147H509.168L505.45 152.28L509.388 158H507.298L504.966 154.656L504.306 153.336L503.624 154.656L501.248 158H499.29L503.25 152.368ZM510.238 147H511.954V144.822L513.714 144.316V147H516.706V148.54H513.714V154.634C513.714 155.397 513.809 155.939 514 156.262C514.191 156.57 514.513 156.724 514.968 156.724C515.349 156.724 515.672 156.687 515.936 156.614C516.2 156.526 516.493 156.416 516.816 156.284L517.212 157.626C516.816 157.817 516.383 157.971 515.914 158.088C515.445 158.205 514.939 158.264 514.396 158.264C513.501 158.264 512.871 158.015 512.504 157.516C512.137 157.003 511.954 156.152 511.954 154.964V148.54H510.238V147ZM519.453 148.122C519.453 147.726 519.563 147.418 519.783 147.198C520.018 146.963 520.326 146.846 520.707 146.846C521.103 146.846 521.419 146.963 521.653 147.198C521.888 147.418 522.005 147.726 522.005 148.122C522.005 148.503 521.888 148.811 521.653 149.046C521.419 149.281 521.103 149.398 520.707 149.398C520.326 149.398 520.018 149.281 519.783 149.046C519.563 148.811 519.453 148.503 519.453 148.122ZM519.453 156.988C519.453 156.592 519.563 156.284 519.783 156.064C520.018 155.829 520.326 155.712 520.707 155.712C521.103 155.712 521.419 155.829 521.653 156.064C521.888 156.284 522.005 156.592 522.005 156.988C522.005 157.369 521.888 157.677 521.653 157.912C521.419 158.147 521.103 158.264 520.707 158.264C520.326 158.264 520.018 158.147 519.783 157.912C519.563 157.677 519.453 157.369 519.453 156.988Z" fill="#5B5B5B"/>
<path d="M555.775 56.264C554.969 56.2493 554.25 56.176 553.619 56.044C553.003 55.9267 552.505 55.7653 552.123 55.56L552.717 53.954C553.011 54.13 553.407 54.2913 553.905 54.438C554.419 54.5847 555.042 54.6653 555.775 54.68V48.74C555.335 48.52 554.895 48.2853 554.455 48.036C554.03 47.7867 553.649 47.4933 553.311 47.156C552.974 46.804 552.703 46.3933 552.497 45.924C552.292 45.4547 552.189 44.8973 552.189 44.252C552.189 43.196 552.483 42.3307 553.069 41.656C553.671 40.9813 554.573 40.5633 555.775 40.402V38.4H557.271V40.336C558.019 40.3653 558.628 40.4387 559.097 40.556C559.581 40.6587 560.014 40.798 560.395 40.974L559.867 42.514C559.574 42.3673 559.222 42.2427 558.811 42.14C558.401 42.0227 557.887 41.9493 557.271 41.92V47.354C557.726 47.5887 558.181 47.8453 558.635 48.124C559.09 48.388 559.493 48.696 559.845 49.048C560.212 49.4 560.505 49.8107 560.725 50.28C560.945 50.7493 561.055 51.2993 561.055 51.93C561.055 53.074 560.733 54.02 560.087 54.768C559.457 55.5013 558.518 55.9707 557.271 56.176V58.2H555.775V56.264ZM559.229 52.084C559.229 51.732 559.163 51.4167 559.031 51.138C558.914 50.8593 558.753 50.61 558.547 50.39C558.342 50.17 558.1 49.972 557.821 49.796C557.543 49.62 557.242 49.4513 556.919 49.29V54.636C557.594 54.5333 558.144 54.2767 558.569 53.866C559.009 53.4407 559.229 52.8467 559.229 52.084ZM554.015 44.142C554.015 44.7727 554.213 45.286 554.609 45.682C555.02 46.078 555.526 46.4373 556.127 46.76V41.942C555.35 42.03 554.8 42.2867 554.477 42.712C554.169 43.1373 554.015 43.614 554.015 44.142ZM571.635 55.274C571.195 55.5967 570.675 55.8387 570.073 56C569.472 56.176 568.841 56.264 568.181 56.264C567.331 56.264 566.612 56.132 566.025 55.868C565.439 55.5893 564.955 55.2007 564.573 54.702C564.207 54.1887 563.935 53.58 563.759 52.876C563.598 52.1573 563.517 51.3653 563.517 50.5C563.517 48.6373 563.928 47.2147 564.749 46.232C565.571 45.2347 566.751 44.736 568.291 44.736C568.995 44.736 569.589 44.7947 570.073 44.912C570.572 45.0147 571.019 45.1687 571.415 45.374L570.909 46.892C570.572 46.7013 570.198 46.5547 569.787 46.452C569.377 46.3347 568.937 46.276 568.467 46.276C566.385 46.276 565.343 47.684 565.343 50.5C565.343 51.0573 565.395 51.5927 565.497 52.106C565.615 52.6047 565.798 53.052 566.047 53.448C566.311 53.8293 566.649 54.1373 567.059 54.372C567.485 54.6067 568.005 54.724 568.621 54.724C569.149 54.724 569.619 54.6433 570.029 54.482C570.455 54.3207 570.799 54.1373 571.063 53.932L571.635 55.274ZM572.928 50.5C572.928 48.6373 573.338 47.2147 574.16 46.232C574.996 45.2347 576.191 44.736 577.746 44.736C578.567 44.736 579.278 44.8753 579.88 45.154C580.496 45.418 581.002 45.8067 581.398 46.32C581.794 46.8187 582.087 47.4273 582.278 48.146C582.468 48.85 582.564 49.6347 582.564 50.5C582.564 52.3627 582.146 53.7927 581.31 54.79C580.488 55.7727 579.3 56.264 577.746 56.264C576.924 56.264 576.206 56.132 575.59 55.868C574.988 55.5893 574.49 55.2007 574.094 54.702C573.698 54.1887 573.404 53.58 573.214 52.876C573.023 52.1573 572.928 51.3653 572.928 50.5ZM574.754 50.5C574.754 51.0573 574.805 51.5927 574.908 52.106C575.025 52.6193 575.201 53.0667 575.436 53.448C575.67 53.8293 575.978 54.1373 576.36 54.372C576.741 54.6067 577.203 54.724 577.746 54.724C579.74 54.7387 580.738 53.3307 580.738 50.5C580.738 49.928 580.679 49.3853 580.562 48.872C580.459 48.3587 580.29 47.9113 580.056 47.53C579.821 47.1487 579.513 46.848 579.132 46.628C578.75 46.3933 578.288 46.276 577.746 46.276C575.751 46.2613 574.754 47.6693 574.754 50.5ZM587.297 53.294C587.297 53.8073 587.385 54.174 587.561 54.394C587.737 54.614 587.986 54.724 588.309 54.724C588.499 54.724 588.705 54.7093 588.925 54.68C589.145 54.6507 589.394 54.5847 589.673 54.482L589.871 55.868C589.636 55.9853 589.306 56.0807 588.881 56.154C588.47 56.2273 588.111 56.264 587.803 56.264C587.143 56.264 586.6 56.0807 586.175 55.714C585.749 55.3327 585.537 54.6947 585.537 53.8V40.6H587.297V53.294ZM591.146 50.5C591.146 48.6373 591.557 47.2147 592.378 46.232C593.214 45.2347 594.41 44.736 595.964 44.736C596.786 44.736 597.497 44.8753 598.098 45.154C598.714 45.418 599.22 45.8067 599.616 46.32C600.012 46.8187 600.306 47.4273 600.496 48.146C600.687 48.85 600.782 49.6347 600.782 50.5C600.782 52.3627 600.364 53.7927 599.528 54.79C598.707 55.7727 597.519 56.264 595.964 56.264C595.143 56.264 594.424 56.132 593.808 55.868C593.207 55.5893 592.708 55.2007 592.312 54.702C591.916 54.1887 591.623 53.58 591.432 52.876C591.242 52.1573 591.146 51.3653 591.146 50.5ZM592.972 50.5C592.972 51.0573 593.024 51.5927 593.126 52.106C593.244 52.6193 593.42 53.0667 593.654 53.448C593.889 53.8293 594.197 54.1373 594.578 54.372C594.96 54.6067 595.422 54.724 595.964 54.724C597.959 54.7387 598.956 53.3307 598.956 50.5C598.956 49.928 598.898 49.3853 598.78 48.872C598.678 48.3587 598.509 47.9113 598.274 47.53C598.04 47.1487 597.732 46.848 597.35 46.628C596.969 46.3933 596.507 46.276 595.964 46.276C593.97 46.2613 592.972 47.6693 592.972 50.5ZM608.749 46.694C608.309 46.5473 607.891 46.474 607.495 46.474C606.865 46.474 606.366 46.65 605.999 47.002C605.633 47.3393 605.405 47.772 605.317 48.3V56H603.557V45H604.789L605.119 46.342H605.207C605.486 45.8433 605.816 45.462 606.197 45.198C606.593 44.9193 607.092 44.78 607.693 44.78C608.119 44.78 608.595 44.8533 609.123 45L608.749 46.694ZM610.638 48.85H615.962V50.478H610.638V48.85ZM626.09 45L628.62 51.424L629.17 53.536H629.214L629.632 51.38L631.59 45H633.262L629.566 56.242H628.708L625.826 48.982L625.408 47.178H625.342L624.902 49.004L622.13 56.242H621.272L617.444 45H619.358L621.536 51.402L621.91 53.536H621.932L622.46 51.358L624.814 45H626.09ZM642.201 56V49.73C642.201 49.158 642.165 48.6593 642.091 48.234C642.033 47.794 641.915 47.4347 641.739 47.156C641.563 46.8627 641.321 46.6427 641.013 46.496C640.72 46.3493 640.331 46.276 639.847 46.276C639.158 46.276 638.535 46.5033 637.977 46.958C637.42 47.398 637.061 47.97 636.899 48.674V56H635.139V40.6H636.899V46.232H636.987C637.369 45.7773 637.823 45.418 638.351 45.154C638.894 44.8753 639.561 44.736 640.353 44.736C640.969 44.736 641.505 44.8093 641.959 44.956C642.414 45.088 642.788 45.33 643.081 45.682C643.389 46.034 643.609 46.5107 643.741 47.112C643.888 47.6987 643.961 48.4467 643.961 49.356V56H642.201ZM647.545 45H649.305V56H647.545V45ZM647.171 41.656C647.171 41.3187 647.281 41.0327 647.501 40.798C647.735 40.5487 648.029 40.424 648.381 40.424C648.733 40.424 649.033 40.5487 649.283 40.798C649.532 41.0327 649.657 41.3187 649.657 41.656C649.657 41.9933 649.532 42.272 649.283 42.492C649.033 42.712 648.733 42.822 648.381 42.822C648.029 42.822 647.735 42.712 647.501 42.492C647.281 42.272 647.171 41.9933 647.171 41.656ZM651.605 45H653.321V42.822L655.081 42.316V45H658.073V46.54H655.081V52.634C655.081 53.3967 655.177 53.9393 655.367 54.262C655.558 54.57 655.881 54.724 656.335 54.724C656.717 54.724 657.039 54.6873 657.303 54.614C657.567 54.526 657.861 54.416 658.183 54.284L658.579 55.626C658.183 55.8167 657.751 55.9707 657.281 56.088C656.812 56.2053 656.306 56.264 655.763 56.264C654.869 56.264 654.238 56.0147 653.871 55.516C653.505 55.0027 653.321 54.152 653.321 52.964V46.54H651.605V45ZM668.306 55.12C667.866 55.472 667.309 55.7507 666.634 55.956C665.974 56.1613 665.27 56.264 664.522 56.264C663.686 56.264 662.96 56.132 662.344 55.868C661.728 55.5893 661.222 55.2007 660.826 54.702C660.43 54.1887 660.137 53.58 659.946 52.876C659.755 52.172 659.66 51.38 659.66 50.5C659.66 48.6227 660.078 47.1927 660.914 46.21C661.75 45.2273 662.945 44.736 664.5 44.736C664.999 44.736 665.497 44.7947 665.996 44.912C666.495 45.0147 666.942 45.22 667.338 45.528C667.734 45.836 668.057 46.276 668.306 46.848C668.555 47.4053 668.68 48.146 668.68 49.07C668.68 49.554 668.636 50.0893 668.548 50.676H661.486C661.486 51.3213 661.552 51.8933 661.684 52.392C661.816 52.8907 662.021 53.316 662.3 53.668C662.579 54.0053 662.938 54.2693 663.378 54.46C663.833 54.636 664.383 54.724 665.028 54.724C665.527 54.724 666.025 54.636 666.524 54.46C667.023 54.284 667.397 54.0787 667.646 53.844L668.306 55.12ZM664.522 46.276C663.657 46.276 662.96 46.5033 662.432 46.958C661.919 47.4127 661.611 48.19 661.508 49.29H666.964C666.964 48.1753 666.751 47.398 666.326 46.958C665.901 46.5033 665.299 46.276 664.522 46.276ZM565.959 90.264C565.152 90.2493 564.433 90.176 563.803 90.044C563.187 89.9267 562.688 89.7653 562.307 89.56L562.901 87.954C563.194 88.13 563.59 88.2913 564.089 88.438C564.602 88.5847 565.225 88.6653 565.959 88.68V82.74C565.519 82.52 565.079 82.2853 564.639 82.036C564.213 81.7867 563.832 81.4933 563.495 81.156C563.157 80.804 562.886 80.3933 562.681 79.924C562.475 79.4547 562.373 78.8973 562.373 78.252C562.373 77.196 562.666 76.3307 563.253 75.656C563.854 74.9813 564.756 74.5633 565.959 74.402V72.4H567.455V74.336C568.203 74.3653 568.811 74.4387 569.281 74.556C569.765 74.6587 570.197 74.798 570.579 74.974L570.051 76.514C569.757 76.3673 569.405 76.2427 568.995 76.14C568.584 76.0227 568.071 75.9493 567.455 75.92V81.354C567.909 81.5887 568.364 81.8453 568.819 82.124C569.273 82.388 569.677 82.696 570.029 83.048C570.395 83.4 570.689 83.8107 570.909 84.28C571.129 84.7493 571.239 85.2993 571.239 85.93C571.239 87.074 570.916 88.02 570.271 88.768C569.64 89.5013 568.701 89.9707 567.455 90.176V92.2H565.959V90.264ZM569.413 86.084C569.413 85.732 569.347 85.4167 569.215 85.138C569.097 84.8593 568.936 84.61 568.731 84.39C568.525 84.17 568.283 83.972 568.005 83.796C567.726 83.62 567.425 83.4513 567.103 83.29V88.636C567.777 88.5333 568.327 88.2767 568.753 87.866C569.193 87.4407 569.413 86.8467 569.413 86.084ZM564.199 78.142C564.199 78.7727 564.397 79.286 564.793 79.682C565.203 80.078 565.709 80.4373 566.311 80.76V75.942C565.533 76.03 564.983 76.2867 564.661 76.712C564.353 77.1373 564.199 77.614 564.199 78.142ZM581.819 89.274C581.379 89.5967 580.858 89.8387 580.257 90C579.656 90.176 579.025 90.264 578.365 90.264C577.514 90.264 576.796 90.132 576.209 89.868C575.622 89.5893 575.138 89.2007 574.757 88.702C574.39 88.1887 574.119 87.58 573.943 86.876C573.782 86.1573 573.701 85.3653 573.701 84.5C573.701 82.6373 574.112 81.2147 574.933 80.232C575.754 79.2347 576.935 78.736 578.475 78.736C579.179 78.736 579.773 78.7947 580.257 78.912C580.756 79.0147 581.203 79.1687 581.599 79.374L581.093 80.892C580.756 80.7013 580.382 80.5547 579.971 80.452C579.56 80.3347 579.12 80.276 578.651 80.276C576.568 80.276 575.527 81.684 575.527 84.5C575.527 85.0573 575.578 85.5927 575.681 86.106C575.798 86.6047 575.982 87.052 576.231 87.448C576.495 87.8293 576.832 88.1373 577.243 88.372C577.668 88.6067 578.189 88.724 578.805 88.724C579.333 88.724 579.802 88.6433 580.213 88.482C580.638 88.3207 580.983 88.1373 581.247 87.932L581.819 89.274ZM583.111 84.5C583.111 82.6373 583.522 81.2147 584.343 80.232C585.179 79.2347 586.375 78.736 587.929 78.736C588.751 78.736 589.462 78.8753 590.063 79.154C590.679 79.418 591.185 79.8067 591.581 80.32C591.977 80.8187 592.271 81.4273 592.461 82.146C592.652 82.85 592.747 83.6347 592.747 84.5C592.747 86.3627 592.329 87.7927 591.493 88.79C590.672 89.7727 589.484 90.264 587.929 90.264C587.108 90.264 586.389 90.132 585.773 89.868C585.172 89.5893 584.673 89.2007 584.277 88.702C583.881 88.1887 583.588 87.58 583.397 86.876C583.207 86.1573 583.111 85.3653 583.111 84.5ZM584.937 84.5C584.937 85.0573 584.989 85.5927 585.091 86.106C585.209 86.6193 585.385 87.0667 585.619 87.448C585.854 87.8293 586.162 88.1373 586.543 88.372C586.925 88.6067 587.387 88.724 587.929 88.724C589.924 88.7387 590.921 87.3307 590.921 84.5C590.921 83.928 590.863 83.3853 590.745 82.872C590.643 82.3587 590.474 81.9113 590.239 81.53C590.005 81.1487 589.697 80.848 589.315 80.628C588.934 80.3933 588.472 80.276 587.929 80.276C585.935 80.2613 584.937 81.6693 584.937 84.5ZM597.48 87.294C597.48 87.8073 597.568 88.174 597.744 88.394C597.92 88.614 598.169 88.724 598.492 88.724C598.683 88.724 598.888 88.7093 599.108 88.68C599.328 88.6507 599.577 88.5847 599.856 88.482L600.054 89.868C599.819 89.9853 599.489 90.0807 599.064 90.154C598.653 90.2273 598.294 90.264 597.986 90.264C597.326 90.264 596.783 90.0807 596.358 89.714C595.933 89.3327 595.72 88.6947 595.72 87.8V74.6H597.48V87.294ZM601.33 84.5C601.33 82.6373 601.741 81.2147 602.562 80.232C603.398 79.2347 604.593 78.736 606.148 78.736C606.969 78.736 607.681 78.8753 608.282 79.154C608.898 79.418 609.404 79.8067 609.8 80.32C610.196 80.8187 610.489 81.4273 610.68 82.146C610.871 82.85 610.966 83.6347 610.966 84.5C610.966 86.3627 610.548 87.7927 609.712 88.79C608.891 89.7727 607.703 90.264 606.148 90.264C605.327 90.264 604.608 90.132 603.992 89.868C603.391 89.5893 602.892 89.2007 602.496 88.702C602.1 88.1887 601.807 87.58 601.616 86.876C601.425 86.1573 601.33 85.3653 601.33 84.5ZM603.156 84.5C603.156 85.0573 603.207 85.5927 603.31 86.106C603.427 86.6193 603.603 87.0667 603.838 87.448C604.073 87.8293 604.381 88.1373 604.762 88.372C605.143 88.6067 605.605 88.724 606.148 88.724C608.143 88.7387 609.14 87.3307 609.14 84.5C609.14 83.928 609.081 83.3853 608.964 82.872C608.861 82.3587 608.693 81.9113 608.458 81.53C608.223 81.1487 607.915 80.848 607.534 80.628C607.153 80.3933 606.691 80.276 606.148 80.276C604.153 80.2613 603.156 81.6693 603.156 84.5ZM618.933 80.694C618.493 80.5473 618.075 80.474 617.679 80.474C617.048 80.474 616.55 80.65 616.183 81.002C615.816 81.3393 615.589 81.772 615.501 82.3V90H613.741V79H614.973L615.303 80.342H615.391C615.67 79.8433 616 79.462 616.381 79.198C616.777 78.9193 617.276 78.78 617.877 78.78C618.302 78.78 618.779 78.8533 619.307 79L618.933 80.694ZM620.821 82.85H626.145V84.478H620.821V82.85ZM634.337 80.694C633.897 80.5473 633.479 80.474 633.083 80.474C632.453 80.474 631.954 80.65 631.587 81.002C631.221 81.3393 630.993 81.772 630.905 82.3V90H629.145V79H630.377L630.707 80.342H630.795C631.074 79.8433 631.404 79.462 631.785 79.198C632.181 78.9193 632.68 78.78 633.281 78.78C633.707 78.78 634.183 78.8533 634.711 79L634.337 80.694ZM636.006 84.5C636.006 82.6373 636.416 81.2147 637.238 80.232C638.074 79.2347 639.269 78.736 640.824 78.736C641.645 78.736 642.356 78.8753 642.958 79.154C643.574 79.418 644.08 79.8067 644.476 80.32C644.872 80.8187 645.165 81.4273 645.356 82.146C645.546 82.85 645.642 83.6347 645.642 84.5C645.642 86.3627 645.224 87.7927 644.388 88.79C643.566 89.7727 642.378 90.264 640.824 90.264C640.002 90.264 639.284 90.132 638.668 89.868C638.066 89.5893 637.568 89.2007 637.172 88.702C636.776 88.1887 636.482 87.58 636.292 86.876C636.101 86.1573 636.006 85.3653 636.006 84.5ZM637.832 84.5C637.832 85.0573 637.883 85.5927 637.986 86.106C638.103 86.6193 638.279 87.0667 638.514 87.448C638.748 87.8293 639.056 88.1373 639.438 88.372C639.819 88.6067 640.281 88.724 640.824 88.724C642.818 88.7387 643.816 87.3307 643.816 84.5C643.816 83.928 643.757 83.3853 643.64 82.872C643.537 82.3587 643.368 81.9113 643.134 81.53C642.899 81.1487 642.591 80.848 642.21 80.628C641.828 80.3933 641.366 80.276 640.824 80.276C638.829 80.2613 637.832 81.6693 637.832 84.5ZM651.393 86.128L652.009 88.24H652.119L652.603 86.106L654.737 79H656.519L653.263 88.878C653.014 89.5967 652.764 90.2933 652.515 90.968C652.28 91.6427 652.016 92.244 651.723 92.772C651.43 93.3 651.1 93.718 650.733 94.026C650.366 94.3487 649.941 94.51 649.457 94.51C648.929 94.51 648.496 94.4367 648.159 94.29L648.467 92.772C648.658 92.8453 648.841 92.882 649.017 92.882C649.428 92.882 649.824 92.662 650.205 92.222C650.586 91.7967 650.902 91.056 651.151 90L646.729 79H648.753L651.393 86.128ZM658.231 79.814C658.788 79.4767 659.434 79.2273 660.167 79.066C660.915 78.9047 661.692 78.824 662.499 78.824C663.262 78.824 663.87 78.9267 664.325 79.132C664.794 79.3373 665.146 79.6087 665.381 79.946C665.63 80.2687 665.792 80.628 665.865 81.024C665.953 81.42 665.997 81.816 665.997 82.212C665.997 83.092 665.975 83.95 665.931 84.786C665.887 85.622 665.865 86.414 665.865 87.162C665.865 87.7047 665.887 88.218 665.931 88.702C665.975 89.186 666.056 89.6333 666.173 90.044H664.875L664.413 88.504H664.303C664.171 88.7093 664.002 88.9147 663.797 89.12C663.606 89.3107 663.372 89.4867 663.093 89.648C662.814 89.7947 662.492 89.9193 662.125 90.022C661.758 90.1247 661.34 90.176 660.871 90.176C660.402 90.176 659.962 90.1027 659.551 89.956C659.155 89.8093 658.81 89.604 658.517 89.34C658.224 89.0613 657.989 88.7313 657.813 88.35C657.652 87.9687 657.571 87.536 657.571 87.052C657.571 86.4067 657.703 85.8713 657.967 85.446C658.231 85.006 658.598 84.6613 659.067 84.412C659.551 84.148 660.123 83.9647 660.783 83.862C661.458 83.7447 662.198 83.686 663.005 83.686C663.21 83.686 663.408 83.686 663.599 83.686C663.804 83.686 664.01 83.7007 664.215 83.73C664.259 83.29 664.281 82.894 664.281 82.542C664.281 81.7353 664.12 81.1707 663.797 80.848C663.474 80.5253 662.888 80.364 662.037 80.364C661.788 80.364 661.516 80.386 661.223 80.43C660.944 80.4593 660.651 80.5107 660.343 80.584C660.05 80.6427 659.764 80.7233 659.485 80.826C659.221 80.914 658.986 81.0167 658.781 81.134L658.231 79.814ZM661.355 88.636C661.766 88.636 662.132 88.5847 662.455 88.482C662.778 88.3647 663.056 88.2253 663.291 88.064C663.526 87.888 663.716 87.6973 663.863 87.492C664.024 87.2867 664.142 87.0887 664.215 86.898V85.072C664.01 85.0573 663.797 85.05 663.577 85.05C663.372 85.0353 663.166 85.028 662.961 85.028C662.506 85.028 662.059 85.0573 661.619 85.116C661.194 85.16 660.812 85.2553 660.475 85.402C660.152 85.534 659.888 85.7247 659.683 85.974C659.492 86.2087 659.397 86.5093 659.397 86.876C659.397 87.3893 659.58 87.8147 659.947 88.152C660.314 88.4747 660.783 88.636 661.355 88.636ZM671.279 87.294C671.279 87.8073 671.367 88.174 671.543 88.394C671.719 88.614 671.968 88.724 672.291 88.724C672.482 88.724 672.687 88.7093 672.907 88.68C673.127 88.6507 673.376 88.5847 673.655 88.482L673.853 89.868C673.618 89.9853 673.288 90.0807 672.863 90.154C672.452 90.2273 672.093 90.264 671.785 90.264C671.125 90.264 670.582 90.0807 670.157 89.714C669.732 89.3327 669.519 88.6947 669.519 87.8V74.6H671.279V87.294ZM542.39 124.264C541.584 124.249 540.865 124.176 540.234 124.044C539.618 123.927 539.12 123.765 538.738 123.56L539.332 121.954C539.626 122.13 540.022 122.291 540.52 122.438C541.034 122.585 541.657 122.665 542.39 122.68V116.74C541.95 116.52 541.51 116.285 541.07 116.036C540.645 115.787 540.264 115.493 539.926 115.156C539.589 114.804 539.318 114.393 539.112 113.924C538.907 113.455 538.804 112.897 538.804 112.252C538.804 111.196 539.098 110.331 539.684 109.656C540.286 108.981 541.188 108.563 542.39 108.402V106.4H543.886V108.336C544.634 108.365 545.243 108.439 545.712 108.556C546.196 108.659 546.629 108.798 547.01 108.974L546.482 110.514C546.189 110.367 545.837 110.243 545.426 110.14C545.016 110.023 544.502 109.949 543.886 109.92V115.354C544.341 115.589 544.796 115.845 545.25 116.124C545.705 116.388 546.108 116.696 546.46 117.048C546.827 117.4 547.12 117.811 547.34 118.28C547.56 118.749 547.67 119.299 547.67 119.93C547.67 121.074 547.348 122.02 546.702 122.768C546.072 123.501 545.133 123.971 543.886 124.176V126.2H542.39V124.264ZM545.844 120.084C545.844 119.732 545.778 119.417 545.646 119.138C545.529 118.859 545.368 118.61 545.162 118.39C544.957 118.17 544.715 117.972 544.436 117.796C544.158 117.62 543.857 117.451 543.534 117.29V122.636C544.209 122.533 544.759 122.277 545.184 121.866C545.624 121.441 545.844 120.847 545.844 120.084ZM540.63 112.142C540.63 112.773 540.828 113.286 541.224 113.682C541.635 114.078 542.141 114.437 542.742 114.76V109.942C541.965 110.03 541.415 110.287 541.092 110.712C540.784 111.137 540.63 111.614 540.63 112.142ZM558.251 123.274C557.811 123.597 557.29 123.839 556.689 124C556.087 124.176 555.457 124.264 554.797 124.264C553.946 124.264 553.227 124.132 552.641 123.868C552.054 123.589 551.57 123.201 551.189 122.702C550.822 122.189 550.551 121.58 550.375 120.876C550.213 120.157 550.133 119.365 550.133 118.5C550.133 116.637 550.543 115.215 551.365 114.232C552.186 113.235 553.367 112.736 554.907 112.736C555.611 112.736 556.205 112.795 556.689 112.912C557.187 113.015 557.635 113.169 558.031 113.374L557.525 114.892C557.187 114.701 556.813 114.555 556.403 114.452C555.992 114.335 555.552 114.276 555.083 114.276C553 114.276 551.959 115.684 551.959 118.5C551.959 119.057 552.01 119.593 552.113 120.106C552.23 120.605 552.413 121.052 552.663 121.448C552.927 121.829 553.264 122.137 553.675 122.372C554.1 122.607 554.621 122.724 555.237 122.724C555.765 122.724 556.234 122.643 556.645 122.482C557.07 122.321 557.415 122.137 557.679 121.932L558.251 123.274ZM559.543 118.5C559.543 116.637 559.954 115.215 560.775 114.232C561.611 113.235 562.806 112.736 564.361 112.736C565.182 112.736 565.894 112.875 566.495 113.154C567.111 113.418 567.617 113.807 568.013 114.32C568.409 114.819 568.702 115.427 568.893 116.146C569.084 116.85 569.179 117.635 569.179 118.5C569.179 120.363 568.761 121.793 567.925 122.79C567.104 123.773 565.916 124.264 564.361 124.264C563.54 124.264 562.821 124.132 562.205 123.868C561.604 123.589 561.105 123.201 560.709 122.702C560.313 122.189 560.02 121.58 559.829 120.876C559.638 120.157 559.543 119.365 559.543 118.5ZM561.369 118.5C561.369 119.057 561.42 119.593 561.523 120.106C561.64 120.619 561.816 121.067 562.051 121.448C562.286 121.829 562.594 122.137 562.975 122.372C563.356 122.607 563.818 122.724 564.361 122.724C566.356 122.739 567.353 121.331 567.353 118.5C567.353 117.928 567.294 117.385 567.177 116.872C567.074 116.359 566.906 115.911 566.671 115.53C566.436 115.149 566.128 114.848 565.747 114.628C565.366 114.393 564.904 114.276 564.361 114.276C562.366 114.261 561.369 115.669 561.369 118.5ZM573.912 121.294C573.912 121.807 574 122.174 574.176 122.394C574.352 122.614 574.601 122.724 574.924 122.724C575.114 122.724 575.32 122.709 575.54 122.68C575.76 122.651 576.009 122.585 576.288 122.482L576.486 123.868C576.251 123.985 575.921 124.081 575.496 124.154C575.085 124.227 574.726 124.264 574.418 124.264C573.758 124.264 573.215 124.081 572.79 123.714C572.364 123.333 572.152 122.695 572.152 121.8V108.6H573.912V121.294ZM577.762 118.5C577.762 116.637 578.172 115.215 578.994 114.232C579.83 113.235 581.025 112.736 582.58 112.736C583.401 112.736 584.112 112.875 584.714 113.154C585.33 113.418 585.836 113.807 586.232 114.32C586.628 114.819 586.921 115.427 587.112 116.146C587.302 116.85 587.398 117.635 587.398 118.5C587.398 120.363 586.98 121.793 586.144 122.79C585.322 123.773 584.134 124.264 582.58 124.264C581.758 124.264 581.04 124.132 580.424 123.868C579.822 123.589 579.324 123.201 578.928 122.702C578.532 122.189 578.238 121.58 578.048 120.876C577.857 120.157 577.762 119.365 577.762 118.5ZM579.588 118.5C579.588 119.057 579.639 119.593 579.742 120.106C579.859 120.619 580.035 121.067 580.27 121.448C580.504 121.829 580.812 122.137 581.194 122.372C581.575 122.607 582.037 122.724 582.58 122.724C584.574 122.739 585.572 121.331 585.572 118.5C585.572 117.928 585.513 117.385 585.396 116.872C585.293 116.359 585.124 115.911 584.89 115.53C584.655 115.149 584.347 114.848 583.966 114.628C583.584 114.393 583.122 114.276 582.58 114.276C580.585 114.261 579.588 115.669 579.588 118.5ZM595.365 114.694C594.925 114.547 594.507 114.474 594.111 114.474C593.48 114.474 592.981 114.65 592.615 115.002C592.248 115.339 592.021 115.772 591.933 116.3V124H590.173V113H591.405L591.735 114.342H591.823C592.101 113.843 592.431 113.462 592.813 113.198C593.209 112.919 593.707 112.78 594.309 112.78C594.734 112.78 595.211 112.853 595.739 113L595.365 114.694ZM597.253 116.85H602.577V118.478H597.253V116.85ZM614.025 120.216C614.025 120.964 614.032 121.646 614.047 122.262C614.061 122.863 614.127 123.457 614.245 124.044H613.057L612.617 122.482H612.529C612.235 122.995 611.81 123.421 611.253 123.758C610.695 124.095 610.043 124.264 609.295 124.264C607.828 124.264 606.735 123.802 606.017 122.878C605.313 121.954 604.961 120.509 604.961 118.544C604.961 116.667 605.401 115.244 606.281 114.276C607.175 113.293 608.4 112.802 609.955 112.802C610.497 112.802 610.923 112.831 611.231 112.89C611.553 112.949 611.898 113.044 612.265 113.176V108.6H614.025V120.216ZM609.581 122.724C610.329 122.724 610.923 122.533 611.363 122.152C611.803 121.756 612.103 121.162 612.265 120.37V114.914C612.001 114.709 611.7 114.562 611.363 114.474C611.025 114.386 610.578 114.342 610.021 114.342C609.009 114.342 608.217 114.679 607.645 115.354C607.073 116.014 606.787 117.077 606.787 118.544C606.787 119.145 606.831 119.703 606.919 120.216C607.021 120.729 607.183 121.169 607.403 121.536C607.623 121.903 607.909 122.196 608.261 122.416C608.627 122.621 609.067 122.724 609.581 122.724ZM617.239 113.814C617.796 113.477 618.441 113.227 619.175 113.066C619.923 112.905 620.7 112.824 621.507 112.824C622.269 112.824 622.878 112.927 623.333 113.132C623.802 113.337 624.154 113.609 624.389 113.946C624.638 114.269 624.799 114.628 624.873 115.024C624.961 115.42 625.005 115.816 625.005 116.212C625.005 117.092 624.983 117.95 624.939 118.786C624.895 119.622 624.873 120.414 624.873 121.162C624.873 121.705 624.895 122.218 624.939 122.702C624.983 123.186 625.063 123.633 625.181 124.044H623.883L623.421 122.504H623.311C623.179 122.709 623.01 122.915 622.805 123.12C622.614 123.311 622.379 123.487 622.101 123.648C621.822 123.795 621.499 123.919 621.133 124.022C620.766 124.125 620.348 124.176 619.879 124.176C619.409 124.176 618.969 124.103 618.559 123.956C618.163 123.809 617.818 123.604 617.525 123.34C617.231 123.061 616.997 122.731 616.821 122.35C616.659 121.969 616.579 121.536 616.579 121.052C616.579 120.407 616.711 119.871 616.975 119.446C617.239 119.006 617.605 118.661 618.075 118.412C618.559 118.148 619.131 117.965 619.791 117.862C620.465 117.745 621.206 117.686 622.013 117.686C622.218 117.686 622.416 117.686 622.607 117.686C622.812 117.686 623.017 117.701 623.223 117.73C623.267 117.29 623.289 116.894 623.289 116.542C623.289 115.735 623.127 115.171 622.805 114.848C622.482 114.525 621.895 114.364 621.045 114.364C620.795 114.364 620.524 114.386 620.231 114.43C619.952 114.459 619.659 114.511 619.351 114.584C619.057 114.643 618.771 114.723 618.493 114.826C618.229 114.914 617.994 115.017 617.789 115.134L617.239 113.814ZM620.363 122.636C620.773 122.636 621.14 122.585 621.463 122.482C621.785 122.365 622.064 122.225 622.299 122.064C622.533 121.888 622.724 121.697 622.871 121.492C623.032 121.287 623.149 121.089 623.223 120.898V119.072C623.017 119.057 622.805 119.05 622.585 119.05C622.379 119.035 622.174 119.028 621.969 119.028C621.514 119.028 621.067 119.057 620.627 119.116C620.201 119.16 619.82 119.255 619.483 119.402C619.16 119.534 618.896 119.725 618.691 119.974C618.5 120.209 618.405 120.509 618.405 120.876C618.405 121.389 618.588 121.815 618.955 122.152C619.321 122.475 619.791 122.636 620.363 122.636ZM631.563 120.128L632.179 122.24H632.289L632.773 120.106L634.907 113H636.689L633.433 122.878C633.183 123.597 632.934 124.293 632.685 124.968C632.45 125.643 632.186 126.244 631.893 126.772C631.599 127.3 631.269 127.718 630.903 128.026C630.536 128.349 630.111 128.51 629.627 128.51C629.099 128.51 628.666 128.437 628.329 128.29L628.637 126.772C628.827 126.845 629.011 126.882 629.187 126.882C629.597 126.882 629.993 126.662 630.375 126.222C630.756 125.797 631.071 125.056 631.321 124L626.899 113H628.923L631.563 120.128ZM646.766 124.506C646.766 125.929 646.385 126.977 645.622 127.652C644.874 128.327 643.76 128.664 642.278 128.664C641.398 128.664 640.687 128.605 640.144 128.488C639.616 128.385 639.162 128.246 638.78 128.07L639.242 126.574C639.58 126.706 639.954 126.831 640.364 126.948C640.775 127.065 641.31 127.124 641.97 127.124C642.586 127.124 643.085 127.065 643.466 126.948C643.862 126.845 644.178 126.662 644.412 126.398C644.647 126.149 644.808 125.819 644.896 125.408C644.984 125.012 645.028 124.535 645.028 123.978V122.922H644.94C644.647 123.347 644.273 123.677 643.818 123.912C643.364 124.132 642.77 124.242 642.036 124.242C640.555 124.242 639.462 123.78 638.758 122.856C638.069 121.932 637.724 120.495 637.724 118.544C637.724 116.667 638.172 115.244 639.066 114.276C639.961 113.293 641.281 112.802 643.026 112.802C643.862 112.802 644.574 112.868 645.16 113C645.762 113.132 646.297 113.286 646.766 113.462V124.506ZM642.344 122.702C643.092 122.702 643.679 122.519 644.104 122.152C644.53 121.771 644.83 121.184 645.006 120.392V114.76C644.42 114.481 643.672 114.342 642.762 114.342C641.765 114.342 640.98 114.679 640.408 115.354C639.836 116.029 639.55 117.085 639.55 118.522C639.55 119.138 639.602 119.703 639.704 120.216C639.807 120.729 639.968 121.169 640.188 121.536C640.408 121.903 640.694 122.189 641.046 122.394C641.398 122.599 641.831 122.702 642.344 122.702ZM652.115 121.294C652.115 121.807 652.203 122.174 652.379 122.394C652.555 122.614 652.804 122.724 653.127 122.724C653.318 122.724 653.523 122.709 653.743 122.68C653.963 122.651 654.212 122.585 654.491 122.482L654.689 123.868C654.454 123.985 654.124 124.081 653.699 124.154C653.288 124.227 652.929 124.264 652.621 124.264C651.961 124.264 651.418 124.081 650.993 123.714C650.568 123.333 650.355 122.695 650.355 121.8V108.6H652.115V121.294ZM655.965 118.5C655.965 116.637 656.375 115.215 657.197 114.232C658.033 113.235 659.228 112.736 660.783 112.736C661.604 112.736 662.315 112.875 662.917 113.154C663.533 113.418 664.039 113.807 664.435 114.32C664.831 114.819 665.124 115.427 665.315 116.146C665.505 116.85 665.601 117.635 665.601 118.5C665.601 120.363 665.183 121.793 664.347 122.79C663.525 123.773 662.337 124.264 660.783 124.264C659.961 124.264 659.243 124.132 658.627 123.868C658.025 123.589 657.527 123.201 657.131 122.702C656.735 122.189 656.441 121.58 656.251 120.876C656.06 120.157 655.965 119.365 655.965 118.5ZM657.791 118.5C657.791 119.057 657.842 119.593 657.945 120.106C658.062 120.619 658.238 121.067 658.473 121.448C658.707 121.829 659.015 122.137 659.397 122.372C659.778 122.607 660.24 122.724 660.783 122.724C662.777 122.739 663.775 121.331 663.775 118.5C663.775 117.928 663.716 117.385 663.599 116.872C663.496 116.359 663.327 115.911 663.093 115.53C662.858 115.149 662.55 114.848 662.169 114.628C661.787 114.393 661.325 114.276 660.783 114.276C658.788 114.261 657.791 115.669 657.791 118.5ZM675.267 113L677.797 119.424L678.347 121.536H678.391L678.809 119.38L680.767 113H682.439L678.743 124.242H677.885L675.003 116.982L674.585 115.178H674.519L674.079 117.004L671.307 124.242H670.449L666.621 113H668.535L670.713 119.402L671.087 121.536H671.109L671.637 119.358L673.991 113H675.267ZM533.453 158.264C532.646 158.249 531.928 158.176 531.297 158.044C530.681 157.927 530.182 157.765 529.801 157.56L530.395 155.954C530.688 156.13 531.084 156.291 531.583 156.438C532.096 156.585 532.72 156.665 533.453 156.68V150.74C533.013 150.52 532.573 150.285 532.133 150.036C531.708 149.787 531.326 149.493 530.989 149.156C530.652 148.804 530.38 148.393 530.175 147.924C529.97 147.455 529.867 146.897 529.867 146.252C529.867 145.196 530.16 144.331 530.747 143.656C531.348 142.981 532.25 142.563 533.453 142.402V140.4H534.949V142.336C535.697 142.365 536.306 142.439 536.775 142.556C537.259 142.659 537.692 142.798 538.073 142.974L537.545 144.514C537.252 144.367 536.9 144.243 536.489 144.14C536.078 144.023 535.565 143.949 534.949 143.92V149.354C535.404 149.589 535.858 149.845 536.313 150.124C536.768 150.388 537.171 150.696 537.523 151.048C537.89 151.4 538.183 151.811 538.403 152.28C538.623 152.749 538.733 153.299 538.733 153.93C538.733 155.074 538.41 156.02 537.765 156.768C537.134 157.501 536.196 157.971 534.949 158.176V160.2H533.453V158.264ZM536.907 154.084C536.907 153.732 536.841 153.417 536.709 153.138C536.592 152.859 536.43 152.61 536.225 152.39C536.02 152.17 535.778 151.972 535.499 151.796C535.22 151.62 534.92 151.451 534.597 151.29V156.636C535.272 156.533 535.822 156.277 536.247 155.866C536.687 155.441 536.907 154.847 536.907 154.084ZM531.693 146.142C531.693 146.773 531.891 147.286 532.287 147.682C532.698 148.078 533.204 148.437 533.805 148.76V143.942C533.028 144.03 532.478 144.287 532.155 144.712C531.847 145.137 531.693 145.614 531.693 146.142ZM549.313 157.274C548.873 157.597 548.353 157.839 547.751 158C547.15 158.176 546.519 158.264 545.859 158.264C545.009 158.264 544.29 158.132 543.703 157.868C543.117 157.589 542.633 157.201 542.251 156.702C541.885 156.189 541.613 155.58 541.437 154.876C541.276 154.157 541.195 153.365 541.195 152.5C541.195 150.637 541.606 149.215 542.427 148.232C543.249 147.235 544.429 146.736 545.969 146.736C546.673 146.736 547.267 146.795 547.751 146.912C548.25 147.015 548.697 147.169 549.093 147.374L548.587 148.892C548.25 148.701 547.876 148.555 547.465 148.452C547.055 148.335 546.615 148.276 546.145 148.276C544.063 148.276 543.021 149.684 543.021 152.5C543.021 153.057 543.073 153.593 543.175 154.106C543.293 154.605 543.476 155.052 543.725 155.448C543.989 155.829 544.327 156.137 544.737 156.372C545.163 156.607 545.683 156.724 546.299 156.724C546.827 156.724 547.297 156.643 547.707 156.482C548.133 156.321 548.477 156.137 548.741 155.932L549.313 157.274ZM550.605 152.5C550.605 150.637 551.016 149.215 551.837 148.232C552.673 147.235 553.869 146.736 555.423 146.736C556.245 146.736 556.956 146.875 557.557 147.154C558.173 147.418 558.679 147.807 559.075 148.32C559.471 148.819 559.765 149.427 559.955 150.146C560.146 150.85 560.241 151.635 560.241 152.5C560.241 154.363 559.823 155.793 558.987 156.79C558.166 157.773 556.978 158.264 555.423 158.264C554.602 158.264 553.883 158.132 553.267 157.868C552.666 157.589 552.167 157.201 551.771 156.702C551.375 156.189 551.082 155.58 550.891 154.876C550.701 154.157 550.605 153.365 550.605 152.5ZM552.431 152.5C552.431 153.057 552.483 153.593 552.585 154.106C552.703 154.619 552.879 155.067 553.113 155.448C553.348 155.829 553.656 156.137 554.037 156.372C554.419 156.607 554.881 156.724 555.423 156.724C557.418 156.739 558.415 155.331 558.415 152.5C558.415 151.928 558.357 151.385 558.239 150.872C558.137 150.359 557.968 149.911 557.733 149.53C557.499 149.149 557.191 148.848 556.809 148.628C556.428 148.393 555.966 148.276 555.423 148.276C553.429 148.261 552.431 149.669 552.431 152.5ZM564.974 155.294C564.974 155.807 565.062 156.174 565.238 156.394C565.414 156.614 565.664 156.724 565.986 156.724C566.177 156.724 566.382 156.709 566.602 156.68C566.822 156.651 567.072 156.585 567.35 156.482L567.548 157.868C567.314 157.985 566.984 158.081 566.558 158.154C566.148 158.227 565.788 158.264 565.48 158.264C564.82 158.264 564.278 158.081 563.852 157.714C563.427 157.333 563.214 156.695 563.214 155.8V142.6H564.974V155.294ZM568.824 152.5C568.824 150.637 569.235 149.215 570.056 148.232C570.892 147.235 572.087 146.736 573.642 146.736C574.463 146.736 575.175 146.875 575.776 147.154C576.392 147.418 576.898 147.807 577.294 148.32C577.69 148.819 577.983 149.427 578.174 150.146C578.365 150.85 578.46 151.635 578.46 152.5C578.46 154.363 578.042 155.793 577.206 156.79C576.385 157.773 575.197 158.264 573.642 158.264C572.821 158.264 572.102 158.132 571.486 157.868C570.885 157.589 570.386 157.201 569.99 156.702C569.594 156.189 569.301 155.58 569.11 154.876C568.919 154.157 568.824 153.365 568.824 152.5ZM570.65 152.5C570.65 153.057 570.701 153.593 570.804 154.106C570.921 154.619 571.097 155.067 571.332 155.448C571.567 155.829 571.875 156.137 572.256 156.372C572.637 156.607 573.099 156.724 573.642 156.724C575.637 156.739 576.634 155.331 576.634 152.5C576.634 151.928 576.575 151.385 576.458 150.872C576.355 150.359 576.187 149.911 575.952 149.53C575.717 149.149 575.409 148.848 575.028 148.628C574.647 148.393 574.185 148.276 573.642 148.276C571.647 148.261 570.65 149.669 570.65 152.5ZM586.427 148.694C585.987 148.547 585.569 148.474 585.173 148.474C584.542 148.474 584.044 148.65 583.677 149.002C583.31 149.339 583.083 149.772 582.995 150.3V158H581.235V147H582.467L582.797 148.342H582.885C583.164 147.843 583.494 147.462 583.875 147.198C584.271 146.919 584.77 146.78 585.371 146.78C585.796 146.78 586.273 146.853 586.801 147L586.427 148.694ZM588.316 150.85H593.64V152.478H588.316V150.85ZM605.065 158.506C605.065 159.929 604.684 160.977 603.921 161.652C603.173 162.327 602.059 162.664 600.577 162.664C599.697 162.664 598.986 162.605 598.443 162.488C597.915 162.385 597.461 162.246 597.079 162.07L597.541 160.574C597.879 160.706 598.253 160.831 598.663 160.948C599.074 161.065 599.609 161.124 600.269 161.124C600.885 161.124 601.384 161.065 601.765 160.948C602.161 160.845 602.477 160.662 602.711 160.398C602.946 160.149 603.107 159.819 603.195 159.408C603.283 159.012 603.327 158.535 603.327 157.978V156.922H603.239C602.946 157.347 602.572 157.677 602.117 157.912C601.663 158.132 601.069 158.242 600.335 158.242C598.854 158.242 597.761 157.78 597.057 156.856C596.368 155.932 596.023 154.495 596.023 152.544C596.023 150.667 596.471 149.244 597.365 148.276C598.26 147.293 599.58 146.802 601.325 146.802C602.161 146.802 602.873 146.868 603.459 147C604.061 147.132 604.596 147.286 605.065 147.462V158.506ZM600.643 156.702C601.391 156.702 601.978 156.519 602.403 156.152C602.829 155.771 603.129 155.184 603.305 154.392V148.76C602.719 148.481 601.971 148.342 601.061 148.342C600.064 148.342 599.279 148.679 598.707 149.354C598.135 150.029 597.849 151.085 597.849 152.522C597.849 153.138 597.901 153.703 598.003 154.216C598.106 154.729 598.267 155.169 598.487 155.536C598.707 155.903 598.993 156.189 599.345 156.394C599.697 156.599 600.13 156.702 600.643 156.702ZM613.648 148.694C613.208 148.547 612.79 148.474 612.394 148.474C611.763 148.474 611.264 148.65 610.898 149.002C610.531 149.339 610.304 149.772 610.216 150.3V158H608.456V147H609.688L610.018 148.342H610.106C610.384 147.843 610.714 147.462 611.096 147.198C611.492 146.919 611.99 146.78 612.592 146.78C613.017 146.78 613.494 146.853 614.022 147L613.648 148.694ZM615.756 147.814C616.314 147.477 616.959 147.227 617.692 147.066C618.44 146.905 619.218 146.824 620.024 146.824C620.787 146.824 621.396 146.927 621.85 147.132C622.32 147.337 622.672 147.609 622.906 147.946C623.156 148.269 623.317 148.628 623.39 149.024C623.478 149.42 623.522 149.816 623.522 150.212C623.522 151.092 623.5 151.95 623.456 152.786C623.412 153.622 623.39 154.414 623.39 155.162C623.39 155.705 623.412 156.218 623.456 156.702C623.5 157.186 623.581 157.633 623.698 158.044H622.4L621.938 156.504H621.828C621.696 156.709 621.528 156.915 621.322 157.12C621.132 157.311 620.897 157.487 620.618 157.648C620.34 157.795 620.017 157.919 619.65 158.022C619.284 158.125 618.866 158.176 618.396 158.176C617.927 158.176 617.487 158.103 617.076 157.956C616.68 157.809 616.336 157.604 616.042 157.34C615.749 157.061 615.514 156.731 615.338 156.35C615.177 155.969 615.096 155.536 615.096 155.052C615.096 154.407 615.228 153.871 615.492 153.446C615.756 153.006 616.123 152.661 616.592 152.412C617.076 152.148 617.648 151.965 618.308 151.862C618.983 151.745 619.724 151.686 620.53 151.686C620.736 151.686 620.934 151.686 621.124 151.686C621.33 151.686 621.535 151.701 621.74 151.73C621.784 151.29 621.806 150.894 621.806 150.542C621.806 149.735 621.645 149.171 621.322 148.848C621 148.525 620.413 148.364 619.562 148.364C619.313 148.364 619.042 148.386 618.748 148.43C618.47 148.459 618.176 148.511 617.868 148.584C617.575 148.643 617.289 148.723 617.01 148.826C616.746 148.914 616.512 149.017 616.306 149.134L615.756 147.814ZM618.88 156.636C619.291 156.636 619.658 156.585 619.98 156.482C620.303 156.365 620.582 156.225 620.816 156.064C621.051 155.888 621.242 155.697 621.388 155.492C621.55 155.287 621.667 155.089 621.74 154.898V153.072C621.535 153.057 621.322 153.05 621.102 153.05C620.897 153.035 620.692 153.028 620.486 153.028C620.032 153.028 619.584 153.057 619.144 153.116C618.719 153.16 618.338 153.255 618 153.402C617.678 153.534 617.414 153.725 617.208 153.974C617.018 154.209 616.922 154.509 616.922 154.876C616.922 155.389 617.106 155.815 617.472 156.152C617.839 156.475 618.308 156.636 618.88 156.636ZM630.08 154.128L630.696 156.24H630.806L631.29 154.106L633.424 147H635.206L631.95 156.878C631.701 157.597 631.452 158.293 631.202 158.968C630.968 159.643 630.704 160.244 630.41 160.772C630.117 161.3 629.787 161.718 629.42 162.026C629.054 162.349 628.628 162.51 628.144 162.51C627.616 162.51 627.184 162.437 626.846 162.29L627.154 160.772C627.345 160.845 627.528 160.882 627.704 160.882C628.115 160.882 628.511 160.662 628.892 160.222C629.274 159.797 629.589 159.056 629.838 158L625.416 147H627.44L630.08 154.128ZM636.698 150.85H642.022V152.478H636.698V150.85ZM648.014 156.724C649.026 156.724 649.862 156.431 650.522 155.844C651.182 155.257 651.512 154.407 651.512 153.292C651.512 152.221 651.182 151.422 650.522 150.894C649.877 150.366 648.982 150.102 647.838 150.102L645.99 150.212V142.6H652.854V144.228H647.64V148.606L648.586 148.562C650.038 148.577 651.182 148.98 652.018 149.772C652.854 150.564 653.272 151.701 653.272 153.182C653.272 154.003 653.133 154.737 652.854 155.382C652.575 156.013 652.194 156.541 651.71 156.966C651.241 157.391 650.683 157.714 650.038 157.934C649.393 158.154 648.703 158.264 647.97 158.264C647.31 158.264 646.753 158.227 646.298 158.154C645.843 158.081 645.418 157.971 645.022 157.824L645.484 156.328C645.821 156.46 646.181 156.563 646.562 156.636C646.958 156.695 647.442 156.724 648.014 156.724ZM656.262 150.3C656.262 147.66 656.688 145.673 657.538 144.338C658.404 143.003 659.658 142.336 661.3 142.336C663.075 142.336 664.358 142.996 665.15 144.316C665.957 145.621 666.36 147.616 666.36 150.3C666.36 152.94 665.928 154.927 665.062 156.262C664.212 157.597 662.958 158.264 661.3 158.264C659.555 158.264 658.279 157.567 657.472 156.174C656.666 154.781 656.262 152.823 656.262 150.3ZM658.088 150.3C658.088 151.253 658.147 152.126 658.264 152.918C658.396 153.695 658.594 154.37 658.858 154.942C659.122 155.499 659.452 155.939 659.848 156.262C660.259 156.57 660.743 156.724 661.3 156.724C662.415 156.724 663.229 156.211 663.742 155.184C664.27 154.143 664.534 152.515 664.534 150.3C664.534 149.361 664.476 148.496 664.358 147.704C664.256 146.912 664.072 146.23 663.808 145.658C663.559 145.086 663.229 144.646 662.818 144.338C662.408 144.03 661.902 143.876 661.3 143.876C660.2 143.876 659.386 144.397 658.858 145.438C658.345 146.479 658.088 148.1 658.088 150.3ZM668.251 150.3C668.251 147.66 668.676 145.673 669.527 144.338C670.392 143.003 671.646 142.336 673.289 142.336C675.063 142.336 676.347 142.996 677.139 144.316C677.945 145.621 678.349 147.616 678.349 150.3C678.349 152.94 677.916 154.927 677.051 156.262C676.2 157.597 674.946 158.264 673.289 158.264C671.543 158.264 670.267 157.567 669.461 156.174C668.654 154.781 668.251 152.823 668.251 150.3ZM670.077 150.3C670.077 151.253 670.135 152.126 670.253 152.918C670.385 153.695 670.583 154.37 670.847 154.942C671.111 155.499 671.441 155.939 671.837 156.262C672.247 156.57 672.731 156.724 673.289 156.724C674.403 156.724 675.217 156.211 675.731 155.184C676.259 154.143 676.523 152.515 676.523 150.3C676.523 149.361 676.464 148.496 676.347 147.704C676.244 146.912 676.061 146.23 675.797 145.658C675.547 145.086 675.217 144.646 674.807 144.338C674.396 144.03 673.89 143.876 673.289 143.876C672.189 143.876 671.375 144.397 670.847 145.438C670.333 146.479 670.077 148.1 670.077 150.3Z" fill="#E21E8E"/>
</svg>
