<svg width="1012" height="226" viewBox="0 0 1012 226" fill="none" xmlns="http://www.w3.org/2000/svg">
<rect x="0.559735" y="0.935833" width="1010.88" height="223.894" fill="white" stroke="#EAEAEA" stroke-width="1.11947"/>
<path d="M70.0181 79.1991H50.1811V47.854H56.3158V73.7361H70.0181V79.1991ZM73.5857 56.8097H79.4069V79.1991H73.5857V56.8097ZM72.7349 50.4959C72.7349 49.6302 73.0483 48.8988 73.6752 48.3017C74.332 47.6748 75.2276 47.3614 76.362 47.3614C77.4964 47.3614 78.4069 47.6748 79.0935 48.3017C79.8099 48.8988 80.1682 49.6302 80.1682 50.4959C80.1682 51.3616 79.8099 52.093 79.0935 52.6901C78.4069 53.2573 77.4964 53.5409 76.362 53.5409C75.2276 53.5409 74.332 53.2573 73.6752 52.6901C73.0483 52.093 72.7349 51.3616 72.7349 50.4959ZM104.015 79.1991C104.015 82.453 103.135 84.8412 101.373 86.3637C99.612 87.916 97.1492 88.6922 93.9848 88.6922C91.8355 88.6922 90.1339 88.5429 88.8801 88.2444C87.6561 87.9459 86.7307 87.6324 86.1038 87.3041L87.3128 82.6918C87.9994 82.9605 88.7905 83.2292 89.6861 83.4979C90.6115 83.7665 91.7459 83.9009 93.0893 83.9009C95.1192 83.9009 96.4925 83.4531 97.2089 82.5575C97.9552 81.6918 98.3284 80.4678 98.3284 78.8856V77.4527H98.1493C97.1044 78.8558 95.2536 79.5573 92.5967 79.5573C89.701 79.5573 87.5367 78.6618 86.1038 76.8706C84.7007 75.0795 83.9992 72.2733 83.9992 68.4522C83.9992 64.452 84.9545 61.4219 86.865 59.3621C88.7756 57.3023 91.5519 56.2724 95.1939 56.2724C97.1044 56.2724 98.806 56.4067 100.299 56.6754C101.821 56.9441 103.06 57.2575 104.015 57.6157V79.1991ZM94.164 74.9003C95.2984 74.9003 96.1641 74.6466 96.7611 74.1391C97.388 73.6316 97.8657 72.8704 98.1941 71.8554V61.7802C97.2686 61.3921 96.1193 61.198 94.7461 61.198C93.2535 61.198 92.0892 61.7652 91.2533 62.8996C90.4175 64.0042 89.9995 65.7804 89.9995 68.2283C89.9995 70.4075 90.3578 72.0643 91.0742 73.1987C91.7907 74.3331 92.8206 74.9003 94.164 74.9003ZM122.784 79.1991V66.4819C122.784 64.6609 122.53 63.3474 122.022 62.5414C121.515 61.7354 120.589 61.3324 119.246 61.3324C118.261 61.3324 117.35 61.6757 116.515 62.3623C115.708 63.019 115.171 63.8698 114.902 64.9147V79.1991H109.081V47.854H114.902V59.3173H115.082C115.798 58.362 116.679 57.6008 117.724 57.0336C118.768 56.4664 120.097 56.1828 121.709 56.1828C122.843 56.1828 123.843 56.3321 124.709 56.6306C125.575 56.9291 126.291 57.4217 126.858 58.1083C127.455 58.7949 127.888 59.7353 128.157 60.9294C128.456 62.0936 128.605 63.5415 128.605 65.2729V79.1991H122.784ZM131.154 56.8097H134.243V52.6005L140.065 50.9437V56.8097H145.528V61.7354H140.065V70.3329C140.065 71.8852 140.214 73.0047 140.512 73.6913C140.841 74.3481 141.438 74.6764 142.304 74.6764C142.901 74.6764 143.408 74.6167 143.826 74.4973C144.274 74.3779 144.766 74.1988 145.304 73.96L146.334 78.4379C145.528 78.8259 144.587 79.1543 143.513 79.423C142.438 79.6917 141.348 79.826 140.244 79.826C138.184 79.826 136.661 79.3036 135.676 78.2587C134.721 77.1841 134.243 75.4377 134.243 73.0196V61.7354H131.154V56.8097ZM158.091 56.8097H161.181V52.6005L167.002 50.9437V56.8097H172.465V61.7354H167.002V70.3329C167.002 71.8852 167.151 73.0047 167.45 73.6913C167.778 74.3481 168.375 74.6764 169.241 74.6764C169.838 74.6764 170.345 74.6167 170.763 74.4973C171.211 74.3779 171.704 74.1988 172.241 73.96L173.271 78.4379C172.465 78.8259 171.525 79.1543 170.45 79.423C169.375 79.6917 168.286 79.826 167.181 79.826C165.121 79.826 163.599 79.3036 162.614 78.2587C161.658 77.1841 161.181 75.4377 161.181 73.0196V61.7354H158.091V56.8097ZM189.733 79.1991V66.4819C189.733 64.6609 189.479 63.3474 188.972 62.5414C188.464 61.7354 187.539 61.3324 186.196 61.3324C185.21 61.3324 184.3 61.6757 183.464 62.3623C182.658 63.019 182.121 63.8698 181.852 64.9147V79.1991H176.031V47.854H181.852V59.3173H182.031C182.748 58.362 183.628 57.6008 184.673 57.0336C185.718 56.4664 187.046 56.1828 188.658 56.1828C189.793 56.1828 190.793 56.3321 191.659 56.6306C192.524 56.9291 193.241 57.4217 193.808 58.1083C194.405 58.7949 194.838 59.7353 195.106 60.9294C195.405 62.0936 195.554 63.5415 195.554 65.2729V79.1991H189.733ZM218.343 77.2736C217.448 77.9901 216.224 78.602 214.671 79.1095C213.149 79.5872 211.522 79.826 209.79 79.826C206.178 79.826 203.536 78.7812 201.865 76.6915C200.193 74.572 199.357 71.6763 199.357 68.0044C199.357 64.0639 200.297 61.1085 202.178 59.1382C204.059 57.1679 206.701 56.1828 210.104 56.1828C211.238 56.1828 212.343 56.3321 213.418 56.6306C214.492 56.9291 215.447 57.4217 216.283 58.1083C217.119 58.7949 217.791 59.7203 218.298 60.8846C218.806 62.0488 219.06 63.4967 219.06 65.2281C219.06 65.855 219.015 66.5267 218.925 67.2432C218.866 67.9596 218.761 68.7059 218.612 69.4821H205.178C205.268 71.3628 205.745 72.7808 206.611 73.7361C207.507 74.6914 208.94 75.169 210.91 75.169C212.134 75.169 213.223 74.9899 214.179 74.6317C215.164 74.2436 215.91 73.8555 216.418 73.4674L218.343 77.2736ZM210.014 60.8398C208.492 60.8398 207.357 61.3025 206.611 62.2279C205.895 63.1235 205.462 64.3325 205.313 65.855H213.641C213.761 64.243 213.507 63.0041 212.88 62.1384C212.283 61.2727 211.328 60.8398 210.014 60.8398ZM235.888 79.1991V67.0193C235.888 64.9594 235.694 63.4967 235.306 62.631C234.918 61.7652 234.112 61.3324 232.888 61.3324C231.873 61.3324 231.052 61.616 230.425 62.1832C229.798 62.7205 229.321 63.422 228.992 64.2878V79.1991H223.171V56.8097H227.694L228.365 59.7651H228.544C229.231 58.8098 230.097 57.974 231.142 57.2575C232.216 56.541 233.589 56.1828 235.261 56.1828C236.694 56.1828 237.858 56.4813 238.754 57.0784C239.679 57.6456 240.396 58.6158 240.903 59.989C241.59 58.8248 242.471 57.8993 243.545 57.2127C244.62 56.5261 245.919 56.1828 247.441 56.1828C248.695 56.1828 249.755 56.3321 250.62 56.6306C251.516 56.9291 252.232 57.4515 252.77 58.1979C253.337 58.9143 253.755 59.8845 254.023 61.1085C254.292 62.3324 254.426 63.8848 254.426 65.7655V79.1991H248.605V66.6163C248.605 64.855 248.411 63.5415 248.023 62.6757C247.665 61.7802 246.844 61.3324 245.56 61.3324C244.515 61.3324 243.68 61.616 243.053 62.1832C242.456 62.7504 242.008 63.5265 241.709 64.5117V79.1991H235.888ZM277.115 77.2736C276.22 77.9901 274.996 78.602 273.443 79.1095C271.921 79.5872 270.294 79.826 268.563 79.826C264.95 79.826 262.308 78.7812 260.637 76.6915C258.965 74.572 258.129 71.6763 258.129 68.0044C258.129 64.0639 259.069 61.1085 260.95 59.1382C262.831 57.1679 265.473 56.1828 268.876 56.1828C270.01 56.1828 271.115 56.3321 272.19 56.6306C273.264 56.9291 274.22 57.4217 275.055 58.1083C275.891 58.7949 276.563 59.7203 277.071 60.8846C277.578 62.0488 277.832 63.4967 277.832 65.2281C277.832 65.855 277.787 66.5267 277.697 67.2432C277.638 67.9596 277.533 68.7059 277.384 69.4821H263.95C264.04 71.3628 264.518 72.7808 265.383 73.7361C266.279 74.6914 267.712 75.169 269.682 75.169C270.906 75.169 271.996 74.9899 272.951 74.6317C273.936 74.2436 274.682 73.8555 275.19 73.4674L277.115 77.2736ZM268.786 60.8398C267.264 60.8398 266.13 61.3025 265.383 62.2279C264.667 63.1235 264.234 64.3325 264.085 65.855H272.414C272.533 64.243 272.279 63.0041 271.652 62.1384C271.055 61.2727 270.1 60.8398 268.786 60.8398Z" fill="#774099"/>
<path d="M492.739 49.8998C492.739 50.3103 492.673 50.729 492.542 51.1558C492.41 51.5827 492.213 51.985 491.951 52.3626C491.688 52.7239 491.351 53.044 490.941 53.3231C490.53 53.6023 490.046 53.8157 489.488 53.9635V54.062C489.98 54.1441 490.448 54.2836 490.892 54.4807C491.351 54.6777 491.754 54.9486 492.098 55.2934C492.443 55.6382 492.722 56.0569 492.936 56.5495C493.149 57.042 493.256 57.6249 493.256 58.2981C493.256 59.1847 493.067 59.9564 492.689 60.6131C492.328 61.2535 491.844 61.7789 491.236 62.1893C490.645 62.5998 489.964 62.9036 489.192 63.1006C488.421 63.2976 487.632 63.3961 486.828 63.3961C486.549 63.3961 486.22 63.3961 485.843 63.3961C485.465 63.3961 485.071 63.3797 484.661 63.3469C484.25 63.3304 483.84 63.2976 483.429 63.2484C483.019 63.2155 482.658 63.158 482.346 63.076V46.107C482.953 46.0085 483.659 45.9264 484.464 45.8608C485.268 45.7951 486.147 45.7622 487.099 45.7622C487.739 45.7622 488.388 45.8197 489.045 45.9346C489.718 46.0332 490.325 46.2384 490.867 46.5504C491.409 46.8459 491.852 47.2646 492.197 47.8064C492.558 48.3482 492.739 49.046 492.739 49.8998ZM487.025 61.6229C487.55 61.6229 488.059 61.5654 488.552 61.4505C489.045 61.3191 489.48 61.1221 489.857 60.8594C490.235 60.5803 490.53 60.2437 490.744 59.8496C490.974 59.4556 491.089 58.9877 491.089 58.4458C491.089 57.7727 490.949 57.2308 490.67 56.8204C490.407 56.4099 490.054 56.0897 489.611 55.8599C489.184 55.63 488.7 55.474 488.158 55.3919C487.616 55.3098 487.074 55.2688 486.532 55.2688H484.39V61.4505C484.505 61.4833 484.669 61.508 484.882 61.5244C485.096 61.5408 485.326 61.5572 485.572 61.5736C485.818 61.59 486.073 61.6065 486.335 61.6229C486.598 61.6229 486.828 61.6229 487.025 61.6229ZM485.67 53.5448C485.95 53.5448 486.286 53.5366 486.68 53.5202C487.074 53.5037 487.403 53.4791 487.665 53.4463C488.059 53.3149 488.429 53.159 488.774 52.9783C489.118 52.7813 489.422 52.5597 489.685 52.3134C489.964 52.0507 490.177 51.7551 490.325 51.4268C490.489 51.082 490.571 50.7125 490.571 50.3185C490.571 49.7767 490.465 49.3334 490.251 48.9886C490.054 48.6273 489.783 48.34 489.439 48.1266C489.094 47.9131 488.7 47.7653 488.256 47.6833C487.813 47.5847 487.362 47.5355 486.902 47.5355C486.36 47.5355 485.859 47.5519 485.4 47.5847C484.956 47.6012 484.62 47.634 484.39 47.6833V53.5448H485.67ZM496.334 51.7962C496.958 51.4186 497.68 51.1394 498.501 50.9588C499.339 50.7782 500.209 50.6879 501.112 50.6879C501.966 50.6879 502.647 50.8028 503.156 51.0327C503.682 51.2626 504.076 51.5663 504.338 51.944C504.617 52.3052 504.798 52.7074 504.88 53.1507C504.979 53.5941 505.028 54.0374 505.028 54.4807C505.028 55.4658 505.003 56.4263 504.954 57.3622C504.905 58.2981 504.88 59.1847 504.88 60.022C504.88 60.6295 504.905 61.2042 504.954 61.746C505.003 62.2878 505.094 62.7886 505.225 63.2484H503.772L503.255 61.5244H503.132C502.984 61.7542 502.795 61.9841 502.565 62.214C502.352 62.4274 502.089 62.6244 501.777 62.805C501.465 62.9692 501.104 63.1088 500.693 63.2237C500.283 63.3387 499.815 63.3961 499.29 63.3961C498.764 63.3961 498.272 63.314 497.812 63.1498C497.368 62.9857 496.983 62.7558 496.654 62.4602C496.326 62.1483 496.063 61.7789 495.866 61.352C495.686 60.9251 495.595 60.4407 495.595 59.8989C495.595 59.1765 495.743 58.5772 496.039 58.101C496.334 57.6085 496.745 57.2226 497.27 56.9435C497.812 56.648 498.452 56.4427 499.191 56.3278C499.946 56.1964 500.775 56.1308 501.678 56.1308C501.908 56.1308 502.13 56.1308 502.343 56.1308C502.573 56.1308 502.803 56.1472 503.033 56.18C503.082 55.6875 503.107 55.2441 503.107 54.8501C503.107 53.9471 502.926 53.3149 502.565 52.9537C502.204 52.5925 501.547 52.4119 500.595 52.4119C500.316 52.4119 500.012 52.4365 499.684 52.4858C499.372 52.5186 499.043 52.5761 498.698 52.6582C498.37 52.7239 498.05 52.8142 497.738 52.9291C497.442 53.0276 497.18 53.1425 496.95 53.2739L496.334 51.7962ZM499.831 61.6721C500.291 61.6721 500.702 61.6147 501.063 61.4997C501.424 61.3684 501.736 61.2124 501.999 61.0318C502.261 60.8348 502.475 60.6213 502.639 60.3915C502.82 60.1616 502.951 59.9399 503.033 59.7265V57.6824C502.803 57.6659 502.565 57.6577 502.319 57.6577C502.089 57.6413 501.859 57.6331 501.629 57.6331C501.12 57.6331 500.619 57.6659 500.127 57.7316C499.651 57.7809 499.224 57.8876 498.846 58.0518C498.485 58.1995 498.189 58.413 497.96 58.6921C497.746 58.9548 497.639 59.2914 497.639 59.7019C497.639 60.2765 497.845 60.7527 498.255 61.1303C498.666 61.4915 499.191 61.6721 499.831 61.6721ZM517.147 62.3864C516.655 62.7476 516.072 63.0185 515.399 63.1991C514.726 63.3961 514.02 63.4946 513.281 63.4946C512.328 63.4946 511.524 63.3469 510.867 63.0513C510.21 62.7394 509.669 62.3043 509.242 61.746C508.831 61.1714 508.527 60.49 508.33 59.7019C508.15 58.8974 508.059 58.0107 508.059 57.042C508.059 54.9568 508.519 53.3642 509.439 52.2641C510.358 51.1476 511.68 50.5894 513.404 50.5894C514.192 50.5894 514.857 50.6551 515.399 50.7864C515.957 50.9014 516.458 51.0738 516.901 51.3036L516.335 53.003C515.957 52.7895 515.538 52.6253 515.079 52.5104C514.619 52.3791 514.126 52.3134 513.601 52.3134C511.269 52.3134 510.104 53.8896 510.104 57.042C510.104 57.6659 510.161 58.2652 510.276 58.8399C510.407 59.3981 510.613 59.8989 510.892 60.3422C511.187 60.7691 511.565 61.1139 512.025 61.3766C512.501 61.6393 513.084 61.7707 513.773 61.7707C514.364 61.7707 514.89 61.6804 515.349 61.4997C515.826 61.3191 516.211 61.1139 516.507 60.884L517.147 62.3864ZM522.964 57.6577H521.831V63.1991H519.861V45.9593H521.831V56.4509L522.841 56.1061L526.658 50.8849H528.949L525.18 55.8352L524.171 56.648L525.402 57.6331L529.515 63.1991H527.077L522.964 57.6577ZM540.79 63.7655C540.79 65.3582 540.363 66.5321 539.509 67.2874C538.672 68.0427 537.424 68.4203 535.766 68.4203C534.78 68.4203 533.984 68.3546 533.377 68.2233C532.786 68.1083 532.277 67.9524 531.85 67.7553L532.367 66.0806C532.745 66.2284 533.163 66.3679 533.623 66.4993C534.083 66.6306 534.682 66.6963 535.421 66.6963C536.11 66.6963 536.669 66.6306 537.096 66.4993C537.539 66.3844 537.892 66.1791 538.155 65.8836C538.417 65.6045 538.598 65.235 538.696 64.7753C538.795 64.332 538.844 63.7984 538.844 63.1745V61.9923H538.746C538.417 62.4685 537.999 62.8379 537.49 63.1006C536.981 63.3469 536.316 63.47 535.495 63.47C533.836 63.47 532.613 62.9528 531.825 61.9184C531.053 60.884 530.668 59.275 530.668 57.0913C530.668 54.9897 531.168 53.397 532.17 52.3134C533.171 51.2133 534.649 50.6633 536.603 50.6633C537.539 50.6633 538.335 50.7372 538.992 50.8849C539.665 51.0327 540.264 51.2051 540.79 51.4021V63.7655ZM535.839 61.746C536.677 61.746 537.334 61.5408 537.81 61.1303C538.286 60.7034 538.622 60.0467 538.819 59.1601V52.8552C538.163 52.5432 537.325 52.3873 536.307 52.3873C535.191 52.3873 534.313 52.7649 533.672 53.5202C533.032 54.2754 532.712 55.4576 532.712 57.0666C532.712 57.7562 532.769 58.3884 532.884 58.963C532.999 59.5377 533.18 60.0303 533.426 60.4407C533.672 60.8512 533.992 61.1714 534.386 61.4012C534.78 61.6311 535.265 61.746 535.839 61.746ZM550.397 52.7813C549.905 52.6171 549.437 52.535 548.994 52.535C548.288 52.535 547.729 52.7321 547.319 53.1261C546.908 53.5037 546.654 53.9881 546.555 54.5792V63.1991H544.585V50.8849H545.964L546.334 52.3873H546.432C546.744 51.829 547.114 51.4021 547.541 51.1066C547.984 50.7946 548.542 50.6387 549.215 50.6387C549.691 50.6387 550.225 50.7207 550.816 50.8849L550.397 52.7813ZM552.265 57.042C552.265 54.9568 552.725 53.3642 553.645 52.2641C554.58 51.1476 555.919 50.5894 557.659 50.5894C558.578 50.5894 559.375 50.7454 560.048 51.0573C560.738 51.3529 561.304 51.788 561.747 52.3626C562.191 52.9209 562.519 53.6023 562.732 54.4068C562.946 55.1949 563.053 56.0733 563.053 57.042C563.053 59.1272 562.585 60.7281 561.649 61.8445C560.729 62.9446 559.399 63.4946 557.659 63.4946C556.74 63.4946 555.935 63.3469 555.245 63.0513C554.572 62.7394 554.014 62.3043 553.571 61.746C553.127 61.1714 552.799 60.49 552.586 59.7019C552.372 58.8974 552.265 58.0107 552.265 57.042ZM554.31 57.042C554.31 57.6659 554.367 58.2652 554.482 58.8399C554.613 59.4145 554.81 59.9153 555.073 60.3422C555.336 60.7691 555.681 61.1139 556.107 61.3766C556.534 61.6393 557.052 61.7707 557.659 61.7707C559.892 61.7871 561.008 60.2109 561.008 57.042C561.008 56.4017 560.943 55.7942 560.811 55.2195C560.696 54.6449 560.508 54.1441 560.245 53.7172C559.982 53.2903 559.637 52.9537 559.211 52.7074C558.784 52.4447 558.266 52.3134 557.659 52.3134C555.426 52.297 554.31 53.8732 554.31 57.042ZM567.932 50.8849V57.904C567.932 58.5443 567.965 59.1108 568.031 59.6034C568.113 60.0795 568.244 60.4818 568.425 60.8101C568.605 61.1221 568.852 61.3602 569.164 61.5244C569.476 61.6886 569.87 61.7707 570.346 61.7707C570.789 61.7707 571.183 61.705 571.528 61.5736C571.873 61.4259 572.177 61.2288 572.439 60.9825C572.718 60.7363 572.956 60.4571 573.153 60.1452C573.367 59.8168 573.539 59.472 573.671 59.1108V50.8849H575.641V59.7019C575.641 60.293 575.657 60.9087 575.69 61.549C575.739 62.1729 575.813 62.7229 575.912 63.1991H574.557L574.065 61.2535H573.942C573.564 61.8938 573.055 62.4274 572.415 62.8543C571.774 63.2812 570.962 63.4946 569.976 63.4946C569.32 63.4946 568.737 63.4125 568.228 63.2484C567.735 63.1006 567.317 62.8297 566.972 62.4356C566.643 62.0416 566.389 61.5162 566.208 60.8594C566.044 60.1862 565.962 59.3407 565.962 58.3227V50.8849H567.932ZM587.341 63.1991V56.18C587.341 54.8994 587.152 53.9388 586.774 53.2985C586.413 52.6418 585.74 52.3134 584.755 52.3134C583.885 52.3134 583.162 52.5515 582.588 53.0276C582.029 53.4873 581.635 54.0702 581.406 54.7762V63.1991H579.435V50.8849H580.814L581.184 52.3873H581.282C581.676 51.8619 582.202 51.435 582.859 51.1066C583.532 50.7618 584.328 50.5894 585.248 50.5894C585.921 50.5894 586.512 50.6715 587.021 50.8357C587.53 50.9834 587.948 51.2544 588.277 51.6484C588.622 52.0425 588.876 52.5761 589.04 53.2493C589.221 53.906 589.311 54.7434 589.311 55.7613V63.1991H587.341ZM602.361 58.963C602.361 59.8004 602.369 60.5639 602.386 61.2535C602.402 61.9266 602.476 62.5916 602.607 63.2484H601.277L600.785 61.4997H600.686C600.358 62.0744 599.882 62.5506 599.258 62.9282C598.634 63.3058 597.903 63.4946 597.066 63.4946C595.424 63.4946 594.201 62.9774 593.396 61.9431C592.608 60.9087 592.214 59.2914 592.214 57.0913C592.214 54.9897 592.707 53.397 593.692 52.3134C594.694 51.2133 596.064 50.6633 597.805 50.6633C598.412 50.6633 598.889 50.6961 599.233 50.7618C599.595 50.8275 599.98 50.9342 600.391 51.082V45.9593H602.361V58.963ZM597.386 61.7707C598.224 61.7707 598.889 61.5572 599.381 61.1303C599.874 60.687 600.21 60.022 600.391 59.1354V53.0276C600.095 52.7977 599.759 52.6335 599.381 52.535C599.003 52.4365 598.503 52.3873 597.879 52.3873C596.746 52.3873 595.859 52.7649 595.219 53.5202C594.579 54.259 594.258 55.4494 594.258 57.0913C594.258 57.7644 594.308 58.3884 594.406 58.963C594.521 59.5377 594.702 60.0303 594.948 60.4407C595.194 60.8512 595.514 61.1796 595.909 61.4259C596.319 61.6557 596.812 61.7707 597.386 61.7707ZM606.501 52.141C606.501 51.6977 606.624 51.3529 606.87 51.1066C607.133 50.8439 607.478 50.7125 607.905 50.7125C608.348 50.7125 608.701 50.8439 608.964 51.1066C609.226 51.3529 609.358 51.6977 609.358 52.141C609.358 52.5679 609.226 52.9127 608.964 53.1754C608.701 53.4381 608.348 53.5694 607.905 53.5694C607.478 53.5694 607.133 53.4381 606.87 53.1754C606.624 52.9127 606.501 52.5679 606.501 52.141ZM606.501 62.0662C606.501 61.6229 606.624 61.2781 606.87 61.0318C607.133 60.7691 607.478 60.6378 607.905 60.6378C608.348 60.6378 608.701 60.7691 608.964 61.0318C609.226 61.2781 609.358 61.6229 609.358 62.0662C609.358 62.4931 609.226 62.8379 608.964 63.1006C608.701 63.3633 608.348 63.4946 607.905 63.4946C607.478 63.4946 607.133 63.3633 606.87 63.1006C606.624 62.8379 606.501 62.4931 606.501 62.0662ZM492.665 93.2934H484.39V101.199H482.346V83.9593H484.39V91.4709H492.665V83.9593H494.709V101.199H492.665V93.2934ZM507.685 100.214C507.193 100.608 506.569 100.92 505.813 101.15C505.074 101.38 504.286 101.495 503.449 101.495C502.513 101.495 501.7 101.347 501.011 101.051C500.321 100.739 499.755 100.304 499.311 99.746C498.868 99.1714 498.54 98.49 498.326 97.7019C498.113 96.9138 498.006 96.0271 498.006 95.042C498.006 92.9404 498.474 91.3396 499.41 90.2395C500.346 89.1394 501.684 88.5894 503.424 88.5894C503.983 88.5894 504.541 88.6551 505.099 88.7864C505.657 88.9014 506.158 89.1312 506.601 89.476C507.045 89.8208 507.406 90.3134 507.685 90.9537C507.964 91.5776 508.104 92.4068 508.104 93.4412C508.104 93.983 508.054 94.5823 507.956 95.239H500.05C500.05 95.9615 500.124 96.6018 500.272 97.1601C500.42 97.7183 500.65 98.1944 500.962 98.5885C501.273 98.9661 501.676 99.2617 502.168 99.4751C502.677 99.6721 503.293 99.7707 504.015 99.7707C504.574 99.7707 505.132 99.6721 505.69 99.4751C506.248 99.2781 506.667 99.0482 506.946 98.7855L507.685 100.214ZM503.449 90.3134C502.48 90.3134 501.7 90.5679 501.109 91.0769C500.535 91.5858 500.19 92.456 500.075 93.6875H506.183C506.183 92.4396 505.945 91.5694 505.469 91.0769C504.992 90.5679 504.319 90.3134 503.449 90.3134ZM511.005 89.7962C511.629 89.4186 512.352 89.1394 513.173 88.9588C514.01 88.7782 514.88 88.6879 515.783 88.6879C516.637 88.6879 517.318 88.8028 517.827 89.0327C518.353 89.2626 518.747 89.5663 519.009 89.944C519.289 90.3052 519.469 90.7074 519.551 91.1507C519.65 91.5941 519.699 92.0374 519.699 92.4807C519.699 93.4658 519.674 94.4263 519.625 95.3622C519.576 96.2981 519.551 97.1847 519.551 98.022C519.551 98.6295 519.576 99.2042 519.625 99.746C519.674 100.288 519.765 100.789 519.896 101.248H518.443L517.926 99.5244H517.803C517.655 99.7542 517.466 99.9841 517.236 100.214C517.023 100.427 516.76 100.624 516.448 100.805C516.136 100.969 515.775 101.109 515.364 101.224C514.954 101.339 514.486 101.396 513.961 101.396C513.435 101.396 512.943 101.314 512.483 101.15C512.04 100.986 511.654 100.756 511.325 100.46C510.997 100.148 510.734 99.7789 510.537 99.352C510.357 98.9251 510.266 98.4407 510.266 97.8989C510.266 97.1765 510.414 96.5772 510.71 96.101C511.005 95.6085 511.416 95.2226 511.941 94.9435C512.483 94.648 513.123 94.4427 513.862 94.3278C514.617 94.1964 515.447 94.1308 516.35 94.1308C516.579 94.1308 516.801 94.1308 517.015 94.1308C517.244 94.1308 517.474 94.1472 517.704 94.18C517.753 93.6875 517.778 93.2441 517.778 92.8501C517.778 91.9471 517.597 91.3149 517.236 90.9537C516.875 90.5925 516.218 90.4119 515.266 90.4119C514.987 90.4119 514.683 90.4365 514.355 90.4858C514.043 90.5186 513.714 90.5761 513.37 90.6582C513.041 90.7239 512.721 90.8142 512.409 90.9291C512.114 91.0276 511.851 91.1425 511.621 91.2739L511.005 89.7962ZM514.502 99.6721C514.962 99.6721 515.373 99.6147 515.734 99.4997C516.095 99.3684 516.407 99.2124 516.67 99.0318C516.932 98.8348 517.146 98.6213 517.31 98.3915C517.491 98.1616 517.622 97.9399 517.704 97.7265V95.6824C517.474 95.6659 517.236 95.6577 516.99 95.6577C516.76 95.6413 516.53 95.6331 516.3 95.6331C515.791 95.6331 515.291 95.6659 514.798 95.7316C514.322 95.7809 513.895 95.8876 513.517 96.0518C513.156 96.1995 512.861 96.413 512.631 96.6921C512.417 96.9548 512.311 97.2914 512.311 97.7019C512.311 98.2765 512.516 98.7527 512.926 99.1303C513.337 99.4915 513.862 99.6721 514.502 99.6721ZM532.878 96.963C532.878 97.8004 532.886 98.5639 532.902 99.2535C532.919 99.9266 532.992 100.592 533.124 101.248H531.794L531.301 99.4997H531.203C530.874 100.074 530.398 100.551 529.774 100.928C529.15 101.306 528.42 101.495 527.582 101.495C525.941 101.495 524.717 100.977 523.913 99.9431C523.125 98.9087 522.731 97.2914 522.731 95.0913C522.731 92.9897 523.223 91.397 524.208 90.3134C525.21 89.2133 526.581 88.6633 528.321 88.6633C528.929 88.6633 529.405 88.6961 529.75 88.7618C530.111 88.8275 530.497 88.9342 530.907 89.082V83.9593H532.878V96.963ZM527.903 99.7707C528.74 99.7707 529.405 99.5572 529.898 99.1303C530.39 98.687 530.727 98.022 530.907 97.1354V91.0276C530.612 90.7977 530.275 90.6335 529.898 90.535C529.52 90.4365 529.019 90.3873 528.395 90.3873C527.262 90.3873 526.376 90.7649 525.735 91.5202C525.095 92.259 524.775 93.4494 524.775 95.0913C524.775 95.7644 524.824 96.3884 524.923 96.963C525.038 97.5377 525.218 98.0303 525.464 98.4407C525.711 98.8512 526.031 99.1796 526.425 99.4259C526.835 99.6557 527.328 99.7707 527.903 99.7707ZM537.091 88.8849H539.061V101.199H537.091V88.8849ZM536.672 85.1414C536.672 84.7638 536.796 84.4436 537.042 84.1809C537.305 83.9018 537.633 83.7622 538.027 83.7622C538.421 83.7622 538.758 83.9018 539.037 84.1809C539.316 84.4436 539.455 84.7638 539.455 85.1414C539.455 85.5191 539.316 85.831 539.037 86.0773C538.758 86.3236 538.421 86.4467 538.027 86.4467C537.633 86.4467 537.305 86.3236 537.042 86.0773C536.796 85.831 536.672 85.5191 536.672 85.1414ZM551.168 101.199V94.18C551.168 92.8994 550.979 91.9388 550.602 91.2985C550.24 90.6418 549.567 90.3134 548.582 90.3134C547.712 90.3134 546.989 90.5515 546.415 91.0276C545.857 91.4873 545.463 92.0702 545.233 92.7762V101.199H543.262V88.8849H544.642L545.011 90.3873H545.11C545.504 89.8619 546.029 89.435 546.686 89.1066C547.359 88.7618 548.155 88.5894 549.075 88.5894C549.748 88.5894 550.339 88.6715 550.848 88.8357C551.357 88.9834 551.776 89.2544 552.104 89.6484C552.449 90.0425 552.703 90.5761 552.867 91.2493C553.048 91.906 553.138 92.7434 553.138 93.7613V101.199H551.168ZM566.164 101.766C566.164 103.358 565.737 104.532 564.883 105.287C564.046 106.043 562.798 106.42 561.139 106.42C560.154 106.42 559.358 106.355 558.751 106.223C558.159 106.108 557.65 105.952 557.224 105.755L557.741 104.081C558.118 104.228 558.537 104.368 558.997 104.499C559.457 104.631 560.056 104.696 560.795 104.696C561.484 104.696 562.043 104.631 562.469 104.499C562.913 104.384 563.266 104.179 563.528 103.884C563.791 103.604 563.972 103.235 564.07 102.775C564.169 102.332 564.218 101.798 564.218 101.174V99.9923H564.12C563.791 100.468 563.372 100.838 562.863 101.101C562.354 101.347 561.69 101.47 560.869 101.47C559.21 101.47 557.987 100.953 557.199 99.9184C556.427 98.884 556.041 97.275 556.041 95.0913C556.041 92.9897 556.542 91.397 557.544 90.3134C558.545 89.2133 560.023 88.6633 561.977 88.6633C562.913 88.6633 563.709 88.7372 564.366 88.8849C565.039 89.0327 565.638 89.2051 566.164 89.4021V101.766ZM561.213 99.746C562.051 99.746 562.707 99.5408 563.184 99.1303C563.66 98.7034 563.996 98.0467 564.193 97.1601V90.8552C563.537 90.5432 562.699 90.3873 561.681 90.3873C560.565 90.3873 559.686 90.7649 559.046 91.5202C558.406 92.2754 558.086 93.4576 558.086 95.0666C558.086 95.7562 558.143 96.3884 558.258 96.963C558.373 97.5377 558.554 98.0303 558.8 98.4407C559.046 98.8512 559.366 99.1714 559.76 99.4012C560.154 99.6311 560.639 99.746 561.213 99.746ZM574.9 88.8849H576.821V86.4467L578.791 85.8803V88.8849H582.14V90.6089H578.791V97.431C578.791 98.2847 578.898 98.8922 579.111 99.2535C579.324 99.5983 579.686 99.7707 580.195 99.7707C580.622 99.7707 580.983 99.7296 581.278 99.6475C581.574 99.549 581.902 99.4259 582.263 99.2781L582.707 100.78C582.263 100.994 581.779 101.166 581.254 101.298C580.728 101.429 580.162 101.495 579.554 101.495C578.553 101.495 577.847 101.216 577.436 100.657C577.026 100.083 576.821 99.1303 576.821 97.8004V90.6089H574.9V88.8849ZM593.596 100.214C593.103 100.608 592.479 100.92 591.724 101.15C590.985 101.38 590.197 101.495 589.36 101.495C588.424 101.495 587.611 101.347 586.921 101.051C586.232 100.739 585.665 100.304 585.222 99.746C584.779 99.1714 584.45 98.49 584.237 97.7019C584.023 96.9138 583.917 96.0271 583.917 95.042C583.917 92.9404 584.385 91.3396 585.32 90.2395C586.256 89.1394 587.594 88.5894 589.335 88.5894C589.893 88.5894 590.451 88.6551 591.01 88.7864C591.568 88.9014 592.069 89.1312 592.512 89.476C592.955 89.8208 593.316 90.3134 593.596 90.9537C593.875 91.5776 594.014 92.4068 594.014 93.4412C594.014 93.983 593.965 94.5823 593.866 95.239H585.961C585.961 95.9615 586.035 96.6018 586.182 97.1601C586.33 97.7183 586.56 98.1944 586.872 98.5885C587.184 98.9661 587.586 99.2617 588.079 99.4751C588.588 99.6721 589.204 99.7707 589.926 99.7707C590.484 99.7707 591.042 99.6721 591.601 99.4751C592.159 99.2781 592.578 99.0482 592.857 98.7855L593.596 100.214ZM589.36 90.3134C588.391 90.3134 587.611 90.5679 587.02 91.0769C586.445 91.5858 586.1 92.456 585.985 93.6875H592.093C592.093 92.4396 591.855 91.5694 591.379 91.0769C590.903 90.5679 590.23 90.3134 589.36 90.3134ZM599.762 94.8942L595.624 88.8849H598.038L600.378 92.2836L601.067 93.6875L601.781 92.2836L604.17 88.8849H606.387L602.225 94.7957L606.633 101.199H604.293L601.683 97.4556L600.944 95.9779L600.181 97.4556L597.521 101.199H595.329L599.762 94.8942ZM607.585 88.8849H609.506V86.4467L611.476 85.8803V88.8849H614.826V90.6089H611.476V97.431C611.476 98.2847 611.583 98.8922 611.796 99.2535C612.01 99.5983 612.371 99.7707 612.88 99.7707C613.307 99.7707 613.668 99.7296 613.964 99.6475C614.259 99.549 614.588 99.4259 614.949 99.2781L615.392 100.78C614.949 100.994 614.465 101.166 613.939 101.298C613.414 101.429 612.847 101.495 612.24 101.495C611.238 101.495 610.532 101.216 610.122 100.657C609.711 100.083 609.506 99.1303 609.506 97.8004V90.6089H607.585V88.8849ZM617.901 90.141C617.901 89.6977 618.024 89.3529 618.27 89.1066C618.533 88.8439 618.878 88.7125 619.305 88.7125C619.748 88.7125 620.101 88.8439 620.364 89.1066C620.627 89.3529 620.758 89.6977 620.758 90.141C620.758 90.5679 620.627 90.9127 620.364 91.1754C620.101 91.4381 619.748 91.5694 619.305 91.5694C618.878 91.5694 618.533 91.4381 618.27 91.1754C618.024 90.9127 617.901 90.5679 617.901 90.141ZM617.901 100.066C617.901 99.6229 618.024 99.2781 618.27 99.0318C618.533 98.7691 618.878 98.6378 619.305 98.6378C619.748 98.6378 620.101 98.7691 620.364 99.0318C620.627 99.2781 620.758 99.6229 620.758 100.066C620.758 100.493 620.627 100.838 620.364 101.101C620.101 101.363 619.748 101.495 619.305 101.495C618.878 101.495 618.533 101.363 618.27 101.101C618.024 100.838 617.901 100.493 617.901 100.066ZM492.665 131.293H484.39V139.199H482.346V121.959H484.39V129.471H492.665V121.959H494.709V139.199H492.665V131.293ZM499.114 126.885H501.085V139.199H499.114V126.885ZM498.696 123.141C498.696 122.764 498.819 122.444 499.065 122.181C499.328 121.902 499.656 121.762 500.05 121.762C500.444 121.762 500.781 121.902 501.06 122.181C501.339 122.444 501.479 122.764 501.479 123.141C501.479 123.519 501.339 123.831 501.06 124.077C500.781 124.324 500.444 124.447 500.05 124.447C499.656 124.447 499.328 124.324 499.065 124.077C498.819 123.831 498.696 123.519 498.696 123.141ZM514.718 139.766C514.718 141.358 514.291 142.532 513.438 143.287C512.6 144.043 511.353 144.42 509.694 144.42C508.709 144.42 507.913 144.355 507.305 144.223C506.714 144.108 506.205 143.952 505.778 143.755L506.295 142.081C506.673 142.228 507.092 142.368 507.552 142.499C508.011 142.631 508.611 142.696 509.349 142.696C510.039 142.696 510.597 142.631 511.024 142.499C511.467 142.384 511.82 142.179 512.083 141.884C512.346 141.604 512.526 141.235 512.625 140.775C512.723 140.332 512.773 139.798 512.773 139.174V137.992H512.674C512.346 138.468 511.927 138.838 511.418 139.101C510.909 139.347 510.244 139.47 509.423 139.47C507.765 139.47 506.542 138.953 505.754 137.918C504.982 136.884 504.596 135.275 504.596 133.091C504.596 130.99 505.097 129.397 506.098 128.313C507.1 127.213 508.578 126.663 510.532 126.663C511.467 126.663 512.264 126.737 512.921 126.885C513.594 127.033 514.193 127.205 514.718 127.402V139.766ZM509.768 137.746C510.605 137.746 511.262 137.541 511.738 137.13C512.214 136.703 512.551 136.047 512.748 135.16V128.855C512.091 128.543 511.254 128.387 510.236 128.387C509.12 128.387 508.241 128.765 507.601 129.52C506.96 130.275 506.64 131.458 506.64 133.067C506.64 133.756 506.698 134.388 506.813 134.963C506.928 135.538 507.108 136.03 507.355 136.441C507.601 136.851 507.921 137.171 508.315 137.401C508.709 137.631 509.193 137.746 509.768 137.746ZM526.42 139.199V132.18C526.42 131.54 526.378 130.981 526.296 130.505C526.231 130.013 526.099 129.61 525.902 129.299C525.705 128.97 525.434 128.724 525.09 128.56C524.761 128.395 524.326 128.313 523.784 128.313C523.013 128.313 522.315 128.568 521.691 129.077C521.067 129.569 520.665 130.21 520.484 130.998V139.199H518.514V121.959H520.484V128.264H520.583C521.009 127.755 521.518 127.353 522.11 127.057C522.717 126.745 523.464 126.589 524.351 126.589C525.04 126.589 525.64 126.671 526.149 126.836C526.658 126.983 527.076 127.254 527.405 127.648C527.749 128.042 527.996 128.576 528.144 129.249C528.308 129.906 528.39 130.743 528.39 131.761V139.199H526.42ZM534.174 136.17C534.174 136.744 534.273 137.155 534.47 137.401C534.667 137.648 534.946 137.771 535.307 137.771C535.521 137.771 535.751 137.754 535.997 137.721C536.243 137.689 536.522 137.615 536.834 137.5L537.056 139.051C536.793 139.183 536.424 139.289 535.948 139.371C535.488 139.454 535.086 139.495 534.741 139.495C534.002 139.495 533.394 139.289 532.918 138.879C532.442 138.452 532.204 137.738 532.204 136.736V121.959H534.174V136.17ZM539.592 126.885H541.563V139.199H539.592V126.885ZM539.174 123.141C539.174 122.764 539.297 122.444 539.543 122.181C539.806 121.902 540.134 121.762 540.528 121.762C540.922 121.762 541.259 121.902 541.538 122.181C541.817 122.444 541.957 122.764 541.957 123.141C541.957 123.519 541.817 123.831 541.538 124.077C541.259 124.324 540.922 124.447 540.528 124.447C540.134 124.447 539.806 124.324 539.543 124.077C539.297 123.831 539.174 123.519 539.174 123.141ZM555.196 139.766C555.196 141.358 554.769 142.532 553.916 143.287C553.078 144.043 551.83 144.42 550.172 144.42C549.187 144.42 548.391 144.355 547.783 144.223C547.192 144.108 546.683 143.952 546.256 143.755L546.773 142.081C547.151 142.228 547.57 142.368 548.03 142.499C548.489 142.631 549.089 142.696 549.827 142.696C550.517 142.696 551.075 142.631 551.502 142.499C551.945 142.384 552.298 142.179 552.561 141.884C552.824 141.604 553.004 141.235 553.103 140.775C553.201 140.332 553.251 139.798 553.251 139.174V137.992H553.152C552.824 138.468 552.405 138.838 551.896 139.101C551.387 139.347 550.722 139.47 549.901 139.47C548.243 139.47 547.02 138.953 546.232 137.918C545.46 136.884 545.074 135.275 545.074 133.091C545.074 130.99 545.575 129.397 546.576 128.313C547.578 127.213 549.056 126.663 551.01 126.663C551.945 126.663 552.742 126.737 553.398 126.885C554.072 127.033 554.671 127.205 555.196 127.402V139.766ZM550.246 137.746C551.083 137.746 551.74 137.541 552.216 137.13C552.692 136.703 553.029 136.047 553.226 135.16V128.855C552.569 128.543 551.732 128.387 550.714 128.387C549.598 128.387 548.719 128.765 548.079 129.52C547.438 130.275 547.118 131.458 547.118 133.067C547.118 133.756 547.176 134.388 547.291 134.963C547.406 135.538 547.586 136.03 547.832 136.441C548.079 136.851 548.399 137.171 548.793 137.401C549.187 137.631 549.671 137.746 550.246 137.746ZM566.898 139.199V132.18C566.898 131.54 566.856 130.981 566.774 130.505C566.709 130.013 566.577 129.61 566.38 129.299C566.183 128.97 565.912 128.724 565.568 128.56C565.239 128.395 564.804 128.313 564.262 128.313C563.491 128.313 562.793 128.568 562.169 129.077C561.545 129.569 561.143 130.21 560.962 130.998V139.199H558.992V121.959H560.962V128.264H561.061C561.487 127.755 561.996 127.353 562.588 127.057C563.195 126.745 563.942 126.589 564.829 126.589C565.518 126.589 566.118 126.671 566.627 126.836C567.136 126.983 567.554 127.254 567.883 127.648C568.227 128.042 568.474 128.576 568.621 129.249C568.786 129.906 568.868 130.743 568.868 131.761V139.199H566.898ZM570.835 126.885H572.756V124.447L574.726 123.88V126.885H578.076V128.609H574.726V135.431C574.726 136.285 574.833 136.892 575.046 137.253C575.26 137.598 575.621 137.771 576.13 137.771C576.557 137.771 576.918 137.73 577.214 137.648C577.509 137.549 577.838 137.426 578.199 137.278L578.642 138.78C578.199 138.994 577.714 139.166 577.189 139.298C576.664 139.429 576.097 139.495 575.49 139.495C574.488 139.495 573.782 139.216 573.372 138.657C572.961 138.083 572.756 137.13 572.756 135.8V128.609H570.835V126.885ZM586.224 135.85C586.224 135.357 586.077 134.971 585.781 134.692C585.486 134.413 585.116 134.183 584.673 134.003C584.246 133.805 583.77 133.625 583.244 133.461C582.735 133.28 582.259 133.058 581.816 132.796C581.389 132.517 581.028 132.164 580.732 131.737C580.437 131.31 580.289 130.735 580.289 130.013C580.289 128.831 580.626 127.969 581.299 127.427C581.972 126.869 582.908 126.589 584.106 126.589C584.993 126.589 585.732 126.671 586.323 126.836C586.93 126.983 587.456 127.164 587.899 127.378L587.431 129.003C587.054 128.822 586.594 128.666 586.052 128.535C585.527 128.387 584.96 128.313 584.353 128.313C583.63 128.313 583.097 128.437 582.752 128.683C582.423 128.929 582.259 129.356 582.259 129.963C582.259 130.39 582.407 130.727 582.703 130.973C582.998 131.203 583.359 131.417 583.786 131.614C584.229 131.794 584.706 131.975 585.215 132.155C585.74 132.336 586.216 132.574 586.643 132.87C587.086 133.165 587.456 133.543 587.751 134.003C588.047 134.446 588.195 135.037 588.195 135.776C588.195 136.301 588.104 136.794 587.924 137.253C587.76 137.713 587.497 138.107 587.136 138.436C586.774 138.764 586.323 139.018 585.781 139.199C585.256 139.396 584.632 139.495 583.909 139.495C582.973 139.495 582.177 139.404 581.52 139.224C580.864 139.043 580.314 138.83 579.87 138.583L580.461 136.909C580.839 137.122 581.332 137.319 581.939 137.5C582.547 137.68 583.162 137.771 583.786 137.771C584.492 137.771 585.075 137.631 585.535 137.352C585.995 137.073 586.224 136.572 586.224 135.85ZM591.517 128.141C591.517 127.698 591.64 127.353 591.886 127.107C592.149 126.844 592.494 126.713 592.921 126.713C593.364 126.713 593.717 126.844 593.98 127.107C594.243 127.353 594.374 127.698 594.374 128.141C594.374 128.568 594.243 128.913 593.98 129.175C593.717 129.438 593.364 129.569 592.921 129.569C592.494 129.569 592.149 129.438 591.886 129.175C591.64 128.913 591.517 128.568 591.517 128.141ZM591.517 138.066C591.517 137.623 591.64 137.278 591.886 137.032C592.149 136.769 592.494 136.638 592.921 136.638C593.364 136.638 593.717 136.769 593.98 137.032C594.243 137.278 594.374 137.623 594.374 138.066C594.374 138.493 594.243 138.838 593.98 139.101C593.717 139.363 593.364 139.495 592.921 139.495C592.494 139.495 592.149 139.363 591.886 139.101C591.64 138.838 591.517 138.493 591.517 138.066ZM492.739 163.9C492.739 164.31 492.673 164.729 492.542 165.156C492.41 165.583 492.213 165.985 491.951 166.363C491.688 166.724 491.351 167.044 490.941 167.323C490.53 167.602 490.046 167.816 489.488 167.963V168.062C489.98 168.144 490.448 168.284 490.892 168.481C491.351 168.678 491.754 168.949 492.098 169.293C492.443 169.638 492.722 170.057 492.936 170.549C493.149 171.042 493.256 171.625 493.256 172.298C493.256 173.185 493.067 173.956 492.689 174.613C492.328 175.253 491.844 175.779 491.236 176.189C490.645 176.6 489.964 176.904 489.192 177.101C488.421 177.298 487.632 177.396 486.828 177.396C486.549 177.396 486.22 177.396 485.843 177.396C485.465 177.396 485.071 177.38 484.661 177.347C484.25 177.33 483.84 177.298 483.429 177.248C483.019 177.216 482.658 177.158 482.346 177.076V160.107C482.953 160.009 483.659 159.926 484.464 159.861C485.268 159.795 486.147 159.762 487.099 159.762C487.739 159.762 488.388 159.82 489.045 159.935C489.718 160.033 490.325 160.238 490.867 160.55C491.409 160.846 491.852 161.265 492.197 161.806C492.558 162.348 492.739 163.046 492.739 163.9ZM487.025 175.623C487.55 175.623 488.059 175.565 488.552 175.45C489.045 175.319 489.48 175.122 489.857 174.859C490.235 174.58 490.53 174.244 490.744 173.85C490.974 173.456 491.089 172.988 491.089 172.446C491.089 171.773 490.949 171.231 490.67 170.82C490.407 170.41 490.054 170.09 489.611 169.86C489.184 169.63 488.7 169.474 488.158 169.392C487.616 169.31 487.074 169.269 486.532 169.269H484.39V175.45C484.505 175.483 484.669 175.508 484.882 175.524C485.096 175.541 485.326 175.557 485.572 175.574C485.818 175.59 486.073 175.606 486.335 175.623C486.598 175.623 486.828 175.623 487.025 175.623ZM485.67 167.545C485.95 167.545 486.286 167.537 486.68 167.52C487.074 167.504 487.403 167.479 487.665 167.446C488.059 167.315 488.429 167.159 488.774 166.978C489.118 166.781 489.422 166.56 489.685 166.313C489.964 166.051 490.177 165.755 490.325 165.427C490.489 165.082 490.571 164.713 490.571 164.318C490.571 163.777 490.465 163.333 490.251 162.989C490.054 162.627 489.783 162.34 489.439 162.127C489.094 161.913 488.7 161.765 488.256 161.683C487.813 161.585 487.362 161.535 486.902 161.535C486.36 161.535 485.859 161.552 485.4 161.585C484.956 161.601 484.62 161.634 484.39 161.683V167.545H485.67ZM495.842 171.042C495.842 168.957 496.301 167.364 497.221 166.264C498.157 165.148 499.495 164.589 501.235 164.589C502.155 164.589 502.951 164.745 503.624 165.057C504.314 165.353 504.88 165.788 505.323 166.363C505.767 166.921 506.095 167.602 506.309 168.407C506.522 169.195 506.629 170.073 506.629 171.042C506.629 173.127 506.161 174.728 505.225 175.845C504.305 176.945 502.976 177.495 501.235 177.495C500.316 177.495 499.511 177.347 498.822 177.051C498.148 176.739 497.59 176.304 497.147 175.746C496.704 175.171 496.375 174.49 496.162 173.702C495.948 172.897 495.842 172.011 495.842 171.042ZM497.886 171.042C497.886 171.666 497.943 172.265 498.058 172.84C498.189 173.415 498.386 173.915 498.649 174.342C498.912 174.769 499.257 175.114 499.684 175.377C500.11 175.639 500.628 175.771 501.235 175.771C503.468 175.787 504.585 174.211 504.585 171.042C504.585 170.402 504.519 169.794 504.388 169.22C504.273 168.645 504.084 168.144 503.821 167.717C503.558 167.29 503.214 166.954 502.787 166.707C502.36 166.445 501.843 166.313 501.235 166.313C499.002 166.297 497.886 167.873 497.886 171.042ZM519.192 172.963C519.192 173.8 519.201 174.564 519.217 175.253C519.234 175.927 519.307 176.592 519.439 177.248H518.109L517.616 175.5H517.518C517.189 176.074 516.713 176.551 516.089 176.928C515.465 177.306 514.735 177.495 513.897 177.495C512.255 177.495 511.032 176.977 510.228 175.943C509.44 174.909 509.046 173.291 509.046 171.091C509.046 168.99 509.538 167.397 510.523 166.313C511.525 165.213 512.896 164.663 514.636 164.663C515.244 164.663 515.72 164.696 516.065 164.762C516.426 164.827 516.812 164.934 517.222 165.082V159.959H519.192V172.963ZM514.218 175.771C515.055 175.771 515.72 175.557 516.212 175.13C516.705 174.687 517.042 174.022 517.222 173.135V167.028C516.927 166.798 516.59 166.634 516.212 166.535C515.835 166.437 515.334 166.387 514.71 166.387C513.577 166.387 512.691 166.765 512.05 167.52C511.41 168.259 511.09 169.449 511.09 171.091C511.09 171.764 511.139 172.388 511.238 172.963C511.352 173.538 511.533 174.03 511.779 174.441C512.026 174.851 512.346 175.18 512.74 175.426C513.15 175.656 513.643 175.771 514.218 175.771ZM526.608 172.865L527.297 175.229H527.42L527.962 172.84L530.351 164.885H532.346L528.701 175.943C528.422 176.748 528.143 177.527 527.864 178.283C527.601 179.038 527.305 179.711 526.977 180.302C526.649 180.893 526.279 181.361 525.869 181.706C525.458 182.067 524.982 182.248 524.44 182.248C523.849 182.248 523.365 182.166 522.987 182.002L523.332 180.302C523.546 180.384 523.751 180.425 523.948 180.425C524.408 180.425 524.851 180.179 525.278 179.687C525.705 179.21 526.058 178.381 526.337 177.199L521.386 164.885H523.652L526.608 172.865ZM538.51 164.885H540.431V162.447L542.402 161.88V164.885H545.751V166.609H542.402V173.431C542.402 174.285 542.508 174.892 542.722 175.253C542.935 175.598 543.296 175.771 543.805 175.771C544.232 175.771 544.593 175.73 544.889 175.648C545.185 175.549 545.513 175.426 545.874 175.278L546.317 176.78C545.874 176.994 545.39 177.166 544.864 177.298C544.339 177.429 543.773 177.495 543.165 177.495C542.163 177.495 541.457 177.216 541.047 176.657C540.637 176.083 540.431 175.13 540.431 173.8V166.609H538.51V164.885ZM557.206 176.214C556.714 176.608 556.09 176.92 555.335 177.15C554.596 177.38 553.808 177.495 552.97 177.495C552.034 177.495 551.222 177.347 550.532 177.051C549.842 176.739 549.276 176.304 548.833 175.746C548.389 175.171 548.061 174.49 547.848 173.702C547.634 172.914 547.527 172.027 547.527 171.042C547.527 168.94 547.995 167.34 548.931 166.239C549.867 165.139 551.205 164.589 552.946 164.589C553.504 164.589 554.062 164.655 554.62 164.786C555.179 164.901 555.679 165.131 556.123 165.476C556.566 165.821 556.927 166.313 557.206 166.954C557.485 167.578 557.625 168.407 557.625 169.441C557.625 169.983 557.576 170.582 557.477 171.239H549.571C549.571 171.961 549.645 172.602 549.793 173.16C549.941 173.718 550.171 174.194 550.483 174.588C550.795 174.966 551.197 175.262 551.69 175.475C552.199 175.672 552.814 175.771 553.537 175.771C554.095 175.771 554.653 175.672 555.211 175.475C555.77 175.278 556.188 175.048 556.467 174.786L557.206 176.214ZM552.97 166.313C552.001 166.313 551.222 166.568 550.631 167.077C550.056 167.586 549.711 168.456 549.596 169.687H555.704C555.704 168.44 555.466 167.569 554.99 167.077C554.514 166.568 553.84 166.313 552.97 166.313ZM563.373 170.894L559.235 164.885H561.649L563.988 168.284L564.678 169.687L565.392 168.284L567.781 164.885H569.998L565.835 170.796L570.244 177.199H567.904L565.294 173.456L564.555 171.978L563.791 173.456L561.131 177.199H558.939L563.373 170.894ZM571.196 164.885H573.117V162.447L575.087 161.88V164.885H578.436V166.609H575.087V173.431C575.087 174.285 575.194 174.892 575.407 175.253C575.621 175.598 575.982 175.771 576.491 175.771C576.918 175.771 577.279 175.73 577.574 175.648C577.87 175.549 578.198 175.426 578.56 175.278L579.003 176.78C578.56 176.994 578.075 177.166 577.55 177.298C577.024 177.429 576.458 177.495 575.85 177.495C574.849 177.495 574.143 177.216 573.732 176.657C573.322 176.083 573.117 175.13 573.117 173.8V166.609H571.196V164.885ZM581.512 166.141C581.512 165.698 581.635 165.353 581.881 165.107C582.144 164.844 582.489 164.713 582.916 164.713C583.359 164.713 583.712 164.844 583.975 165.107C584.237 165.353 584.369 165.698 584.369 166.141C584.369 166.568 584.237 166.913 583.975 167.175C583.712 167.438 583.359 167.569 582.916 167.569C582.489 167.569 582.144 167.438 581.881 167.175C581.635 166.913 581.512 166.568 581.512 166.141ZM581.512 176.066C581.512 175.623 581.635 175.278 581.881 175.032C582.144 174.769 582.489 174.638 582.916 174.638C583.359 174.638 583.712 174.769 583.975 175.032C584.237 175.278 584.369 175.623 584.369 176.066C584.369 176.493 584.237 176.838 583.975 177.101C583.712 177.363 583.359 177.495 582.916 177.495C582.489 177.495 582.144 177.363 581.881 177.101C581.635 176.838 581.512 176.493 581.512 176.066Z" fill="#5B5B5B"/>
<path d="M622.173 63.4946C621.27 63.4782 620.466 63.3961 619.76 63.2484C619.07 63.117 618.512 62.9364 618.085 62.7065L618.75 60.9087C619.078 61.1057 619.521 61.2863 620.08 61.4505C620.654 61.6147 621.352 61.705 622.173 61.7214V55.0718C621.681 54.8255 621.188 54.5628 620.695 54.2836C620.219 54.0045 619.792 53.6761 619.415 53.2985C619.037 52.9045 618.733 52.4447 618.503 51.9193C618.274 51.3939 618.159 50.77 618.159 50.0476C618.159 48.8654 618.487 47.8967 619.144 47.1414C619.817 46.3862 620.827 45.9182 622.173 45.7376V43.4964H623.848V45.6637C624.685 45.6966 625.367 45.7787 625.892 45.91C626.434 46.0249 626.918 46.1809 627.345 46.378L626.754 48.1019C626.426 47.9377 626.032 47.7982 625.572 47.6833C625.112 47.5519 624.537 47.4698 623.848 47.437V53.5202C624.357 53.7829 624.866 54.0702 625.375 54.3822C625.884 54.6777 626.335 55.0225 626.729 55.4165C627.14 55.8106 627.468 56.2703 627.714 56.7957C627.961 57.3211 628.084 57.9368 628.084 58.6429C628.084 59.9235 627.723 60.9825 627 61.8199C626.294 62.6409 625.243 63.1663 623.848 63.3961V65.6619H622.173V63.4946ZM626.04 58.8153C626.04 58.4212 625.966 58.0682 625.818 57.7562C625.687 57.4443 625.506 57.1652 625.276 56.9189C625.046 56.6726 624.775 56.4509 624.464 56.2539C624.152 56.0569 623.815 55.8681 623.454 55.6875V61.6721C624.209 61.5572 624.825 61.2699 625.301 60.8101C625.793 60.334 626.04 59.669 626.04 58.8153ZM620.203 49.9244C620.203 50.6304 620.424 51.2051 620.868 51.6484C621.328 52.0917 621.894 52.494 622.567 52.8552V47.4616C621.697 47.5601 621.081 47.8474 620.72 48.3236C620.375 48.7997 620.203 49.3334 620.203 49.9244ZM639.928 62.3864C639.436 62.7476 638.853 63.0185 638.18 63.1991C637.506 63.3961 636.8 63.4946 636.062 63.4946C635.109 63.4946 634.305 63.3469 633.648 63.0513C632.991 62.7394 632.449 62.3043 632.022 61.746C631.612 61.1714 631.308 60.49 631.111 59.7019C630.931 58.8974 630.84 58.0107 630.84 57.042C630.84 54.9568 631.3 53.3642 632.22 52.2641C633.139 51.1476 634.461 50.5894 636.185 50.5894C636.973 50.5894 637.638 50.6551 638.18 50.7864C638.738 50.9014 639.239 51.0738 639.682 51.3036L639.115 53.003C638.738 52.7895 638.319 52.6253 637.859 52.5104C637.4 52.3791 636.907 52.3134 636.382 52.3134C634.05 52.3134 632.884 53.8896 632.884 57.042C632.884 57.6659 632.942 58.2652 633.057 58.8399C633.188 59.3981 633.393 59.8989 633.673 60.3422C633.968 60.7691 634.346 61.1139 634.805 61.3766C635.282 61.6393 635.864 61.7707 636.554 61.7707C637.145 61.7707 637.671 61.6804 638.13 61.4997C638.606 61.3191 638.992 61.1139 639.288 60.884L639.928 62.3864ZM641.375 57.042C641.375 54.9568 641.834 53.3642 642.754 52.2641C643.69 51.1476 645.028 50.5894 646.768 50.5894C647.688 50.5894 648.484 50.7454 649.157 51.0573C649.847 51.3529 650.413 51.788 650.857 52.3626C651.3 52.9209 651.628 53.6023 651.842 54.4068C652.055 55.1949 652.162 56.0733 652.162 57.042C652.162 59.1272 651.694 60.7281 650.758 61.8445C649.839 62.9446 648.509 63.4946 646.768 63.4946C645.849 63.4946 645.044 63.3469 644.355 63.0513C643.682 62.7394 643.123 62.3043 642.68 61.746C642.237 61.1714 641.908 60.49 641.695 59.7019C641.481 58.8974 641.375 58.0107 641.375 57.042ZM643.419 57.042C643.419 57.6659 643.476 58.2652 643.591 58.8399C643.723 59.4145 643.92 59.9153 644.182 60.3422C644.445 60.7691 644.79 61.1139 645.217 61.3766C645.644 61.6393 646.161 61.7707 646.768 61.7707C649.001 61.7871 650.118 60.2109 650.118 57.042C650.118 56.4017 650.052 55.7942 649.921 55.2195C649.806 54.6449 649.617 54.1441 649.354 53.7172C649.092 53.2903 648.747 52.9537 648.32 52.7074C647.893 52.4447 647.376 52.3134 646.768 52.3134C644.535 52.297 643.419 53.8732 643.419 57.042ZM657.46 60.1698C657.46 60.7445 657.559 61.1549 657.756 61.4012C657.953 61.6475 658.232 61.7707 658.593 61.7707C658.807 61.7707 659.036 61.7542 659.283 61.7214C659.529 61.6886 659.808 61.6147 660.12 61.4997L660.342 63.0513C660.079 63.1827 659.71 63.2894 659.234 63.3715C658.774 63.4536 658.372 63.4946 658.027 63.4946C657.288 63.4946 656.68 63.2894 656.204 62.8789C655.728 62.452 655.49 61.7378 655.49 60.7363V45.9593H657.46V60.1698ZM661.77 57.042C661.77 54.9568 662.23 53.3642 663.149 52.2641C664.085 51.1476 665.423 50.5894 667.164 50.5894C668.083 50.5894 668.879 50.7454 669.553 51.0573C670.242 51.3529 670.809 51.788 671.252 52.3626C671.695 52.9209 672.024 53.6023 672.237 54.4068C672.451 55.1949 672.557 56.0733 672.557 57.042C672.557 59.1272 672.089 60.7281 671.153 61.8445C670.234 62.9446 668.904 63.4946 667.164 63.4946C666.244 63.4946 665.44 63.3469 664.75 63.0513C664.077 62.7394 663.519 62.3043 663.075 61.746C662.632 61.1714 662.304 60.49 662.09 59.7019C661.877 58.8974 661.77 58.0107 661.77 57.042ZM663.814 57.042C663.814 57.6659 663.872 58.2652 663.987 58.8399C664.118 59.4145 664.315 59.9153 664.578 60.3422C664.84 60.7691 665.185 61.1139 665.612 61.3766C666.039 61.6393 666.556 61.7707 667.164 61.7707C669.397 61.7871 670.513 60.2109 670.513 57.042C670.513 56.4017 670.447 55.7942 670.316 55.2195C670.201 54.6449 670.012 54.1441 669.75 53.7172C669.487 53.2903 669.142 52.9537 668.715 52.7074C668.288 52.4447 667.771 52.3134 667.164 52.3134C664.931 52.297 663.814 53.8732 663.814 57.042ZM681.476 52.7813C680.983 52.6171 680.515 52.535 680.072 52.535C679.366 52.535 678.808 52.7321 678.397 53.1261C677.987 53.5037 677.732 53.9881 677.634 54.5792V63.1991H675.664V50.8849H677.043L677.412 52.3873H677.511C677.823 51.829 678.192 51.4021 678.619 51.1066C679.062 50.7946 679.621 50.6387 680.294 50.6387C680.77 50.6387 681.304 50.7207 681.895 50.8849L681.476 52.7813ZM683.59 55.1949H689.55V57.0174H683.59V55.1949ZM700.888 50.8849L703.72 58.0764L704.336 60.4407H704.385L704.853 58.0271L707.045 50.8849H708.917L704.779 63.47H703.819L700.592 55.3427L700.124 53.3231H700.051L699.558 55.3673L696.455 63.47H695.494L691.209 50.8849H693.352L695.79 58.0518L696.208 60.4407H696.233L696.824 58.0025L699.459 50.8849H700.888ZM718.924 63.1991V56.18C718.924 55.5397 718.883 54.9814 718.801 54.5053C718.736 54.0127 718.604 53.6105 718.407 53.2985C718.21 52.9701 717.939 52.7239 717.595 52.5597C717.266 52.3955 716.831 52.3134 716.289 52.3134C715.518 52.3134 714.82 52.5679 714.196 53.0769C713.572 53.5694 713.17 54.2098 712.989 54.9979V63.1991H711.019V45.9593H712.989V52.2641H713.088C713.514 51.7551 714.023 51.3529 714.615 51.0573C715.222 50.7454 715.969 50.5894 716.856 50.5894C717.545 50.5894 718.145 50.6715 718.654 50.8357C719.163 50.9834 719.581 51.2544 719.91 51.6484C720.254 52.0425 720.501 52.5761 720.648 53.2493C720.813 53.906 720.895 54.7434 720.895 55.7613V63.1991H718.924ZM724.906 50.8849H726.876V63.1991H724.906V50.8849ZM724.487 47.1414C724.487 46.7638 724.611 46.4436 724.857 46.1809C725.12 45.9018 725.448 45.7622 725.842 45.7622C726.236 45.7622 726.573 45.9018 726.852 46.1809C727.131 46.4436 727.27 46.7638 727.27 47.1414C727.27 47.5191 727.131 47.831 726.852 48.0773C726.573 48.3236 726.236 48.4467 725.842 48.4467C725.448 48.4467 725.12 48.3236 724.857 48.0773C724.611 47.831 724.487 47.5191 724.487 47.1414ZM729.452 50.8849H731.373V48.4467L733.343 47.8803V50.8849H736.693V52.6089H733.343V59.431C733.343 60.2847 733.45 60.8922 733.663 61.2535C733.877 61.5983 734.238 61.7707 734.747 61.7707C735.174 61.7707 735.535 61.7296 735.831 61.6475C736.126 61.549 736.455 61.4259 736.816 61.2781L737.259 62.7804C736.816 62.9939 736.331 63.1663 735.806 63.2976C735.281 63.429 734.714 63.4946 734.107 63.4946C733.105 63.4946 732.399 63.2155 731.989 62.6573C731.578 62.0826 731.373 61.1303 731.373 59.8004V52.6089H729.452V50.8849ZM748.148 62.214C747.655 62.608 747.031 62.92 746.276 63.1498C745.537 63.3797 744.749 63.4946 743.912 63.4946C742.976 63.4946 742.163 63.3469 741.474 63.0513C740.784 62.7394 740.218 62.3043 739.774 61.746C739.331 61.1714 739.003 60.49 738.789 59.7019C738.576 58.9138 738.469 58.0271 738.469 57.042C738.469 54.9404 738.937 53.3396 739.873 52.2395C740.809 51.1394 742.147 50.5894 743.887 50.5894C744.445 50.5894 745.004 50.6551 745.562 50.7864C746.12 50.9014 746.621 51.1312 747.064 51.476C747.508 51.8208 747.869 52.3134 748.148 52.9537C748.427 53.5776 748.567 54.4068 748.567 55.4412C748.567 55.983 748.517 56.5823 748.419 57.239H740.513C740.513 57.9615 740.587 58.6018 740.735 59.1601C740.883 59.7183 741.112 60.1944 741.424 60.5885C741.736 60.9661 742.139 61.2617 742.631 61.4751C743.14 61.6721 743.756 61.7707 744.478 61.7707C745.037 61.7707 745.595 61.6721 746.153 61.4751C746.711 61.2781 747.13 61.0482 747.409 60.7855L748.148 62.214ZM743.912 52.3134C742.943 52.3134 742.163 52.5679 741.572 53.0769C740.997 53.5858 740.653 54.456 740.538 55.6875H746.646C746.646 54.4396 746.407 53.5694 745.931 53.0769C745.455 52.5679 744.782 52.3134 743.912 52.3134ZM633.573 101.495C632.67 101.478 631.866 101.396 631.16 101.248C630.47 101.117 629.912 100.936 629.485 100.707L630.15 98.9087C630.478 99.1057 630.922 99.2863 631.48 99.4505C632.055 99.6147 632.752 99.705 633.573 99.7214V93.0718C633.081 92.8255 632.588 92.5628 632.096 92.2836C631.619 92.0045 631.193 91.6761 630.815 91.2985C630.437 90.9045 630.134 90.4447 629.904 89.9193C629.674 89.3939 629.559 88.77 629.559 88.0476C629.559 86.8654 629.887 85.8967 630.544 85.1414C631.217 84.3862 632.227 83.9182 633.573 83.7376V81.4964H635.248V83.6637C636.085 83.6966 636.767 83.7787 637.292 83.91C637.834 84.0249 638.318 84.1809 638.745 84.378L638.154 86.1019C637.826 85.9377 637.432 85.7982 636.972 85.6833C636.512 85.5519 635.938 85.4698 635.248 85.437V91.5202C635.757 91.7829 636.266 92.0702 636.775 92.3822C637.284 92.6777 637.735 93.0225 638.13 93.4165C638.54 93.8106 638.868 94.2703 639.115 94.7957C639.361 95.3211 639.484 95.9368 639.484 96.6429C639.484 97.9235 639.123 98.9825 638.4 99.8199C637.694 100.641 636.644 101.166 635.248 101.396V103.662H633.573V101.495ZM637.44 96.8153C637.44 96.4212 637.366 96.0682 637.218 95.7562C637.087 95.4443 636.906 95.1652 636.676 94.9189C636.447 94.6726 636.176 94.4509 635.864 94.2539C635.552 94.0569 635.215 93.8681 634.854 93.6875V99.6721C635.609 99.5572 636.225 99.2699 636.701 98.8101C637.194 98.334 637.44 97.669 637.44 96.8153ZM631.603 87.9244C631.603 88.6304 631.825 89.2051 632.268 89.6484C632.728 90.0917 633.294 90.494 633.967 90.8552V85.4616C633.097 85.5601 632.481 85.8474 632.12 86.3236C631.775 86.7997 631.603 87.3334 631.603 87.9244ZM651.328 100.386C650.836 100.748 650.253 101.018 649.58 101.199C648.907 101.396 648.201 101.495 647.462 101.495C646.509 101.495 645.705 101.347 645.048 101.051C644.391 100.739 643.85 100.304 643.423 99.746C643.012 99.1714 642.708 98.49 642.511 97.7019C642.331 96.8974 642.241 96.0107 642.241 95.042C642.241 92.9568 642.7 91.3642 643.62 90.2641C644.539 89.1476 645.861 88.5894 647.585 88.5894C648.373 88.5894 649.038 88.6551 649.58 88.7864C650.138 88.9014 650.639 89.0738 651.082 89.3036L650.516 91.003C650.138 90.7895 649.719 90.6253 649.26 90.5104C648.8 90.3791 648.307 90.3134 647.782 90.3134C645.45 90.3134 644.285 91.8896 644.285 95.042C644.285 95.6659 644.342 96.2652 644.457 96.8399C644.588 97.3981 644.794 97.8989 645.073 98.3422C645.368 98.7691 645.746 99.1139 646.206 99.3766C646.682 99.6393 647.265 99.7707 647.954 99.7707C648.545 99.7707 649.071 99.6804 649.531 99.4997C650.007 99.3191 650.393 99.1139 650.688 98.884L651.328 100.386ZM652.775 95.042C652.775 92.9568 653.235 91.3642 654.154 90.2641C655.09 89.1476 656.428 88.5894 658.169 88.5894C659.088 88.5894 659.884 88.7454 660.557 89.0573C661.247 89.3529 661.814 89.788 662.257 90.3626C662.7 90.9209 663.029 91.6023 663.242 92.4068C663.455 93.1949 663.562 94.0733 663.562 95.042C663.562 97.1272 663.094 98.7281 662.158 99.8445C661.239 100.945 659.909 101.495 658.169 101.495C657.249 101.495 656.445 101.347 655.755 101.051C655.082 100.739 654.524 100.304 654.08 99.746C653.637 99.1714 653.309 98.49 653.095 97.7019C652.882 96.8974 652.775 96.0107 652.775 95.042ZM654.819 95.042C654.819 95.6659 654.877 96.2652 654.991 96.8399C655.123 97.4145 655.32 97.9153 655.583 98.3422C655.845 98.7691 656.19 99.1139 656.617 99.3766C657.044 99.6393 657.561 99.7707 658.169 99.7707C660.401 99.7871 661.518 98.2109 661.518 95.042C661.518 94.4017 661.452 93.7942 661.321 93.2195C661.206 92.6449 661.017 92.1441 660.754 91.7172C660.492 91.2903 660.147 90.9537 659.72 90.7074C659.293 90.4447 658.776 90.3134 658.169 90.3134C655.936 90.297 654.819 91.8732 654.819 95.042ZM668.86 98.1698C668.86 98.7445 668.959 99.1549 669.156 99.4012C669.353 99.6475 669.632 99.7707 669.993 99.7707C670.207 99.7707 670.437 99.7542 670.683 99.7214C670.929 99.6886 671.208 99.6147 671.52 99.4997L671.742 101.051C671.479 101.183 671.11 101.289 670.634 101.371C670.174 101.454 669.772 101.495 669.427 101.495C668.688 101.495 668.081 101.289 667.604 100.879C667.128 100.452 666.89 99.7378 666.89 98.7363V83.9593H668.86V98.1698ZM673.17 95.042C673.17 92.9568 673.63 91.3642 674.549 90.2641C675.485 89.1476 676.823 88.5894 678.564 88.5894C679.483 88.5894 680.28 88.7454 680.953 89.0573C681.642 89.3529 682.209 89.788 682.652 90.3626C683.095 90.9209 683.424 91.6023 683.637 92.4068C683.851 93.1949 683.957 94.0733 683.957 95.042C683.957 97.1272 683.49 98.7281 682.554 99.8445C681.634 100.945 680.304 101.495 678.564 101.495C677.644 101.495 676.84 101.347 676.15 101.051C675.477 100.739 674.919 100.304 674.476 99.746C674.032 99.1714 673.704 98.49 673.49 97.7019C673.277 96.8974 673.17 96.0107 673.17 95.042ZM675.214 95.042C675.214 95.6659 675.272 96.2652 675.387 96.8399C675.518 97.4145 675.715 97.9153 675.978 98.3422C676.241 98.7691 676.585 99.1139 677.012 99.3766C677.439 99.6393 677.956 99.7707 678.564 99.7707C680.797 99.7871 681.913 98.2109 681.913 95.042C681.913 94.4017 681.848 93.7942 681.716 93.2195C681.601 92.6449 681.413 92.1441 681.15 91.7172C680.887 91.2903 680.542 90.9537 680.115 90.7074C679.689 90.4447 679.171 90.3134 678.564 90.3134C676.331 90.297 675.214 91.8732 675.214 95.042ZM692.876 90.7813C692.384 90.6171 691.916 90.535 691.472 90.535C690.766 90.535 690.208 90.7321 689.798 91.1261C689.387 91.5037 689.133 91.9881 689.034 92.5792V101.199H687.064V88.8849H688.443L688.813 90.3873H688.911C689.223 89.829 689.592 89.4021 690.019 89.1066C690.463 88.7946 691.021 88.6387 691.694 88.6387C692.17 88.6387 692.704 88.7207 693.295 88.8849L692.876 90.7813ZM694.99 93.1949H700.95V95.0174H694.99V93.1949ZM710.121 90.7813C709.628 90.6171 709.16 90.535 708.717 90.535C708.011 90.535 707.453 90.7321 707.042 91.1261C706.632 91.5037 706.377 91.9881 706.279 92.5792V101.199H704.309V88.8849H705.688L706.057 90.3873H706.156C706.468 89.829 706.837 89.4021 707.264 89.1066C707.707 88.7946 708.265 88.6387 708.939 88.6387C709.415 88.6387 709.948 88.7207 710.539 88.8849L710.121 90.7813ZM711.989 95.042C711.989 92.9568 712.448 91.3642 713.368 90.2641C714.304 89.1476 715.642 88.5894 717.382 88.5894C718.302 88.5894 719.098 88.7454 719.771 89.0573C720.461 89.3529 721.027 89.788 721.471 90.3626C721.914 90.9209 722.242 91.6023 722.456 92.4068C722.669 93.1949 722.776 94.0733 722.776 95.042C722.776 97.1272 722.308 98.7281 721.372 99.8445C720.453 100.945 719.123 101.495 717.382 101.495C716.463 101.495 715.658 101.347 714.969 101.051C714.296 100.739 713.737 100.304 713.294 99.746C712.851 99.1714 712.522 98.49 712.309 97.7019C712.095 96.8974 711.989 96.0107 711.989 95.042ZM714.033 95.042C714.033 95.6659 714.09 96.2652 714.205 96.8399C714.337 97.4145 714.534 97.9153 714.796 98.3422C715.059 98.7691 715.404 99.1139 715.831 99.3766C716.258 99.6393 716.775 99.7707 717.382 99.7707C719.615 99.7871 720.732 98.2109 720.732 95.042C720.732 94.4017 720.666 93.7942 720.535 93.2195C720.42 92.6449 720.231 92.1441 719.968 91.7172C719.706 91.2903 719.361 90.9537 718.934 90.7074C718.507 90.4447 717.99 90.3134 717.382 90.3134C715.149 90.297 714.033 91.8732 714.033 95.042ZM729.214 96.8645L729.904 99.2288H730.027L730.569 96.8399L732.958 88.8849H734.952L731.308 99.9431C731.028 100.748 730.749 101.527 730.47 102.283C730.207 103.038 729.912 103.711 729.584 104.302C729.255 104.893 728.886 105.361 728.475 105.706C728.065 106.067 727.589 106.248 727.047 106.248C726.456 106.248 725.971 106.166 725.594 106.002L725.939 104.302C726.152 104.384 726.357 104.425 726.554 104.425C727.014 104.425 727.457 104.179 727.884 103.687C728.311 103.21 728.664 102.381 728.943 101.199L723.993 88.8849H726.259L729.214 96.8645ZM736.869 89.7962C737.493 89.4186 738.215 89.1394 739.036 88.9588C739.874 88.7782 740.744 88.6879 741.647 88.6879C742.501 88.6879 743.182 88.8028 743.691 89.0327C744.217 89.2626 744.611 89.5663 744.873 89.944C745.152 90.3052 745.333 90.7074 745.415 91.1507C745.514 91.5941 745.563 92.0374 745.563 92.4807C745.563 93.4658 745.538 94.4263 745.489 95.3622C745.44 96.2981 745.415 97.1847 745.415 98.022C745.415 98.6295 745.44 99.2042 745.489 99.746C745.538 100.288 745.629 100.789 745.76 101.248H744.307L743.79 99.5244H743.666C743.519 99.7542 743.33 99.9841 743.1 100.214C742.887 100.427 742.624 100.624 742.312 100.805C742 100.969 741.639 101.109 741.228 101.224C740.818 101.339 740.35 101.396 739.824 101.396C739.299 101.396 738.807 101.314 738.347 101.15C737.903 100.986 737.518 100.756 737.189 100.46C736.861 100.148 736.598 99.7789 736.401 99.352C736.221 98.9251 736.13 98.4407 736.13 97.8989C736.13 97.1765 736.278 96.5772 736.574 96.101C736.869 95.6085 737.28 95.2226 737.805 94.9435C738.347 94.648 738.987 94.4427 739.726 94.3278C740.481 94.1964 741.31 94.1308 742.213 94.1308C742.443 94.1308 742.665 94.1308 742.878 94.1308C743.108 94.1308 743.338 94.1472 743.568 94.18C743.617 93.6875 743.642 93.2441 743.642 92.8501C743.642 91.9471 743.461 91.3149 743.1 90.9537C742.739 90.5925 742.082 90.4119 741.13 90.4119C740.851 90.4119 740.547 90.4365 740.219 90.4858C739.907 90.5186 739.578 90.5761 739.233 90.6582C738.905 90.7239 738.585 90.8142 738.273 90.9291C737.977 91.0276 737.715 91.1425 737.485 91.2739L736.869 89.7962ZM740.366 99.6721C740.826 99.6721 741.236 99.6147 741.598 99.4997C741.959 99.3684 742.271 99.2124 742.534 99.0318C742.796 98.8348 743.01 98.6213 743.174 98.3915C743.355 98.1616 743.486 97.9399 743.568 97.7265V95.6824C743.338 95.6659 743.1 95.6577 742.854 95.6577C742.624 95.6413 742.394 95.6331 742.164 95.6331C741.655 95.6331 741.154 95.6659 740.662 95.7316C740.186 95.7809 739.759 95.8876 739.381 96.0518C739.02 96.1995 738.724 96.413 738.495 96.6921C738.281 96.9548 738.174 97.2914 738.174 97.7019C738.174 98.2765 738.38 98.7527 738.79 99.1303C739.201 99.4915 739.726 99.6721 740.366 99.6721ZM751.476 98.1698C751.476 98.7445 751.575 99.1549 751.772 99.4012C751.969 99.6475 752.248 99.7707 752.609 99.7707C752.822 99.7707 753.052 99.7542 753.298 99.7214C753.545 99.6886 753.824 99.6147 754.136 99.4997L754.358 101.051C754.095 101.183 753.725 101.289 753.249 101.371C752.79 101.454 752.387 101.495 752.042 101.495C751.304 101.495 750.696 101.289 750.22 100.879C749.744 100.452 749.506 99.7378 749.506 98.7363V83.9593H751.476V98.1698ZM607.189 139.495C606.286 139.478 605.482 139.396 604.776 139.248C604.086 139.117 603.528 138.936 603.101 138.707L603.766 136.909C604.094 137.106 604.538 137.286 605.096 137.45C605.671 137.615 606.368 137.705 607.189 137.721V131.072C606.697 130.825 606.204 130.563 605.712 130.284C605.235 130.005 604.809 129.676 604.431 129.299C604.053 128.904 603.749 128.445 603.52 127.919C603.29 127.394 603.175 126.77 603.175 126.048C603.175 124.865 603.503 123.897 604.16 123.141C604.833 122.386 605.843 121.918 607.189 121.738V119.496H608.864V121.664C609.701 121.697 610.383 121.779 610.908 121.91C611.45 122.025 611.934 122.181 612.361 122.378L611.77 124.102C611.442 123.938 611.048 123.798 610.588 123.683C610.128 123.552 609.554 123.47 608.864 123.437V129.52C609.373 129.783 609.882 130.07 610.391 130.382C610.9 130.678 611.351 131.022 611.745 131.417C612.156 131.811 612.484 132.27 612.731 132.796C612.977 133.321 613.1 133.937 613.1 134.643C613.1 135.924 612.739 136.983 612.016 137.82C611.31 138.641 610.26 139.166 608.864 139.396V141.662H607.189V139.495ZM611.056 134.815C611.056 134.421 610.982 134.068 610.834 133.756C610.703 133.444 610.522 133.165 610.292 132.919C610.063 132.673 609.792 132.451 609.48 132.254C609.168 132.057 608.831 131.868 608.47 131.687V137.672C609.225 137.557 609.841 137.27 610.317 136.81C610.81 136.334 611.056 135.669 611.056 134.815ZM605.219 125.924C605.219 126.63 605.441 127.205 605.884 127.648C606.344 128.092 606.91 128.494 607.583 128.855V123.462C606.713 123.56 606.097 123.847 605.736 124.324C605.391 124.8 605.219 125.333 605.219 125.924ZM624.944 138.386C624.452 138.748 623.869 139.018 623.196 139.199C622.523 139.396 621.817 139.495 621.078 139.495C620.125 139.495 619.321 139.347 618.664 139.051C618.007 138.739 617.466 138.304 617.039 137.746C616.628 137.171 616.324 136.49 616.127 135.702C615.947 134.897 615.856 134.011 615.856 133.042C615.856 130.957 616.316 129.364 617.236 128.264C618.155 127.148 619.477 126.589 621.201 126.589C621.989 126.589 622.654 126.655 623.196 126.786C623.754 126.901 624.255 127.074 624.698 127.304L624.132 129.003C623.754 128.79 623.335 128.625 622.876 128.51C622.416 128.379 621.923 128.313 621.398 128.313C619.066 128.313 617.901 129.89 617.901 133.042C617.901 133.666 617.958 134.265 618.073 134.84C618.204 135.398 618.41 135.899 618.689 136.342C618.984 136.769 619.362 137.114 619.822 137.377C620.298 137.639 620.881 137.771 621.57 137.771C622.161 137.771 622.687 137.68 623.146 137.5C623.623 137.319 624.008 137.114 624.304 136.884L624.944 138.386ZM626.391 133.042C626.391 130.957 626.851 129.364 627.77 128.264C628.706 127.148 630.044 126.589 631.784 126.589C632.704 126.589 633.5 126.745 634.173 127.057C634.863 127.353 635.429 127.788 635.873 128.363C636.316 128.921 636.644 129.602 636.858 130.407C637.071 131.195 637.178 132.073 637.178 133.042C637.178 135.127 636.71 136.728 635.774 137.845C634.855 138.945 633.525 139.495 631.784 139.495C630.865 139.495 630.06 139.347 629.371 139.051C628.698 138.739 628.139 138.304 627.696 137.746C627.253 137.171 626.924 136.49 626.711 135.702C626.498 134.897 626.391 134.011 626.391 133.042ZM628.435 133.042C628.435 133.666 628.492 134.265 628.607 134.84C628.739 135.415 628.936 135.915 629.198 136.342C629.461 136.769 629.806 137.114 630.233 137.377C630.66 137.639 631.177 137.771 631.784 137.771C634.017 137.787 635.134 136.211 635.134 133.042C635.134 132.402 635.068 131.794 634.937 131.22C634.822 130.645 634.633 130.144 634.37 129.717C634.108 129.29 633.763 128.954 633.336 128.707C632.909 128.445 632.392 128.313 631.784 128.313C629.552 128.297 628.435 129.873 628.435 133.042ZM642.476 136.17C642.476 136.744 642.575 137.155 642.772 137.401C642.969 137.648 643.248 137.771 643.609 137.771C643.823 137.771 644.053 137.754 644.299 137.721C644.545 137.689 644.824 137.615 645.136 137.5L645.358 139.051C645.095 139.183 644.726 139.289 644.25 139.371C643.79 139.454 643.388 139.495 643.043 139.495C642.304 139.495 641.697 139.289 641.22 138.879C640.744 138.452 640.506 137.738 640.506 136.736V121.959H642.476V136.17ZM646.786 133.042C646.786 130.957 647.246 129.364 648.165 128.264C649.101 127.148 650.439 126.589 652.18 126.589C653.099 126.589 653.896 126.745 654.569 127.057C655.258 127.353 655.825 127.788 656.268 128.363C656.711 128.921 657.04 129.602 657.253 130.407C657.467 131.195 657.573 132.073 657.573 133.042C657.573 135.127 657.105 136.728 656.17 137.845C655.25 138.945 653.92 139.495 652.18 139.495C651.26 139.495 650.456 139.347 649.766 139.051C649.093 138.739 648.535 138.304 648.091 137.746C647.648 137.171 647.32 136.49 647.106 135.702C646.893 134.897 646.786 134.011 646.786 133.042ZM648.83 133.042C648.83 133.666 648.888 134.265 649.003 134.84C649.134 135.415 649.331 135.915 649.594 136.342C649.857 136.769 650.201 137.114 650.628 137.377C651.055 137.639 651.572 137.771 652.18 137.771C654.413 137.787 655.529 136.211 655.529 133.042C655.529 132.402 655.464 131.794 655.332 131.22C655.217 130.645 655.028 130.144 654.766 129.717C654.503 129.29 654.158 128.954 653.731 128.707C653.304 128.445 652.787 128.313 652.18 128.313C649.947 128.297 648.83 129.873 648.83 133.042ZM666.492 128.781C666 128.617 665.532 128.535 665.088 128.535C664.382 128.535 663.824 128.732 663.414 129.126C663.003 129.504 662.749 129.988 662.65 130.579V139.199H660.68V126.885H662.059L662.428 128.387H662.527C662.839 127.829 663.208 127.402 663.635 127.107C664.079 126.795 664.637 126.639 665.31 126.639C665.786 126.639 666.32 126.721 666.911 126.885L666.492 128.781ZM668.606 131.195H674.566V133.017H668.606V131.195ZM687.382 134.963C687.382 135.8 687.39 136.564 687.406 137.253C687.423 137.927 687.497 138.592 687.628 139.248H686.298L685.806 137.5H685.707C685.379 138.074 684.902 138.551 684.279 138.928C683.655 139.306 682.924 139.495 682.087 139.495C680.445 139.495 679.222 138.977 678.417 137.943C677.629 136.909 677.235 135.291 677.235 133.091C677.235 130.99 677.727 129.397 678.713 128.313C679.714 127.213 681.085 126.663 682.826 126.663C683.433 126.663 683.909 126.696 684.254 126.762C684.615 126.827 685.001 126.934 685.411 127.082V121.959H687.382V134.963ZM682.407 137.771C683.244 137.771 683.909 137.557 684.402 137.13C684.894 136.687 685.231 136.022 685.411 135.135V129.028C685.116 128.798 684.779 128.634 684.402 128.535C684.024 128.437 683.523 128.387 682.899 128.387C681.766 128.387 680.88 128.765 680.24 129.52C679.599 130.259 679.279 131.449 679.279 133.091C679.279 133.764 679.328 134.388 679.427 134.963C679.542 135.538 679.722 136.03 679.969 136.441C680.215 136.851 680.535 137.18 680.929 137.426C681.34 137.656 681.832 137.771 682.407 137.771ZM690.98 127.796C691.604 127.419 692.326 127.139 693.147 126.959C693.984 126.778 694.854 126.688 695.757 126.688C696.611 126.688 697.293 126.803 697.802 127.033C698.327 127.263 698.721 127.566 698.984 127.944C699.263 128.305 699.444 128.707 699.526 129.151C699.624 129.594 699.673 130.037 699.673 130.481C699.673 131.466 699.649 132.426 699.6 133.362C699.55 134.298 699.526 135.185 699.526 136.022C699.526 136.63 699.55 137.204 699.6 137.746C699.649 138.288 699.739 138.789 699.87 139.248H698.417L697.9 137.524H697.777C697.629 137.754 697.44 137.984 697.211 138.214C696.997 138.427 696.734 138.624 696.422 138.805C696.11 138.969 695.749 139.109 695.339 139.224C694.928 139.339 694.46 139.396 693.935 139.396C693.41 139.396 692.917 139.314 692.457 139.15C692.014 138.986 691.628 138.756 691.3 138.46C690.971 138.148 690.709 137.779 690.512 137.352C690.331 136.925 690.241 136.441 690.241 135.899C690.241 135.176 690.389 134.577 690.684 134.101C690.98 133.608 691.39 133.223 691.915 132.944C692.457 132.648 693.098 132.443 693.836 132.328C694.592 132.196 695.421 132.131 696.324 132.131C696.554 132.131 696.775 132.131 696.989 132.131C697.219 132.131 697.449 132.147 697.679 132.18C697.728 131.687 697.752 131.244 697.752 130.85C697.752 129.947 697.572 129.315 697.211 128.954C696.849 128.593 696.193 128.412 695.24 128.412C694.961 128.412 694.657 128.437 694.329 128.486C694.017 128.519 693.689 128.576 693.344 128.658C693.016 128.724 692.695 128.814 692.383 128.929C692.088 129.028 691.825 129.143 691.595 129.274L690.98 127.796ZM694.477 137.672C694.937 137.672 695.347 137.615 695.708 137.5C696.069 137.368 696.381 137.212 696.644 137.032C696.907 136.835 697.12 136.621 697.284 136.391C697.465 136.162 697.596 135.94 697.679 135.727V133.682C697.449 133.666 697.211 133.658 696.964 133.658C696.734 133.641 696.505 133.633 696.275 133.633C695.766 133.633 695.265 133.666 694.772 133.732C694.296 133.781 693.869 133.888 693.492 134.052C693.13 134.2 692.835 134.413 692.605 134.692C692.392 134.955 692.285 135.291 692.285 135.702C692.285 136.277 692.49 136.753 692.901 137.13C693.311 137.492 693.836 137.672 694.477 137.672ZM707.015 134.865L707.705 137.229H707.828L708.37 134.84L710.758 126.885H712.753L709.108 137.943C708.829 138.748 708.55 139.527 708.271 140.283C708.008 141.038 707.713 141.711 707.384 142.302C707.056 142.893 706.687 143.361 706.276 143.706C705.866 144.067 705.389 144.248 704.848 144.248C704.257 144.248 703.772 144.166 703.395 144.002L703.739 142.302C703.953 142.384 704.158 142.425 704.355 142.425C704.815 142.425 705.258 142.179 705.685 141.687C706.112 141.21 706.465 140.381 706.744 139.199L701.794 126.885H704.06L707.015 134.865ZM724.035 139.766C724.035 141.358 723.608 142.532 722.754 143.287C721.917 144.043 720.669 144.42 719.011 144.42C718.026 144.42 717.229 144.355 716.622 144.223C716.031 144.108 715.522 143.952 715.095 143.755L715.612 142.081C715.99 142.228 716.408 142.368 716.868 142.499C717.328 142.631 717.927 142.696 718.666 142.696C719.356 142.696 719.914 142.631 720.341 142.499C720.784 142.384 721.137 142.179 721.4 141.884C721.663 141.604 721.843 141.235 721.942 140.775C722.04 140.332 722.089 139.798 722.089 139.174V137.992H721.991C721.663 138.468 721.244 138.838 720.735 139.101C720.226 139.347 719.561 139.47 718.74 139.47C717.082 139.47 715.858 138.953 715.07 137.918C714.299 136.884 713.913 135.275 713.913 133.091C713.913 130.99 714.414 129.397 715.415 128.313C716.417 127.213 717.894 126.663 719.848 126.663C720.784 126.663 721.58 126.737 722.237 126.885C722.91 127.033 723.51 127.205 724.035 127.402V139.766ZM719.085 137.746C719.922 137.746 720.579 137.541 721.055 137.13C721.531 136.703 721.868 136.047 722.065 135.16V128.855C721.408 128.543 720.571 128.387 719.553 128.387C718.436 128.387 717.558 128.765 716.917 129.52C716.277 130.275 715.957 131.458 715.957 133.067C715.957 133.756 716.014 134.388 716.129 134.963C716.244 135.538 716.425 136.03 716.671 136.441C716.917 136.851 717.238 137.171 717.632 137.401C718.026 137.631 718.51 137.746 719.085 137.746ZM730.022 136.17C730.022 136.744 730.121 137.155 730.318 137.401C730.515 137.648 730.794 137.771 731.155 137.771C731.369 137.771 731.599 137.754 731.845 137.721C732.091 137.689 732.37 137.615 732.682 137.5L732.904 139.051C732.641 139.183 732.272 139.289 731.796 139.371C731.336 139.454 730.934 139.495 730.589 139.495C729.85 139.495 729.243 139.289 728.766 138.879C728.29 138.452 728.052 137.738 728.052 136.736V121.959H730.022V136.17ZM734.332 133.042C734.332 130.957 734.792 129.364 735.711 128.264C736.647 127.148 737.985 126.589 739.726 126.589C740.645 126.589 741.442 126.745 742.115 127.057C742.804 127.353 743.371 127.788 743.814 128.363C744.257 128.921 744.586 129.602 744.799 130.407C745.013 131.195 745.119 132.073 745.119 133.042C745.119 135.127 744.651 136.728 743.716 137.845C742.796 138.945 741.466 139.495 739.726 139.495C738.806 139.495 738.002 139.347 737.312 139.051C736.639 138.739 736.081 138.304 735.637 137.746C735.194 137.171 734.866 136.49 734.652 135.702C734.439 134.897 734.332 134.011 734.332 133.042ZM736.376 133.042C736.376 133.666 736.434 134.265 736.549 134.84C736.68 135.415 736.877 135.915 737.14 136.342C737.402 136.769 737.747 137.114 738.174 137.377C738.601 137.639 739.118 137.771 739.726 137.771C741.959 137.787 743.075 136.211 743.075 133.042C743.075 132.402 743.01 131.794 742.878 131.22C742.763 130.645 742.574 130.144 742.312 129.717C742.049 129.29 741.704 128.954 741.277 128.707C740.85 128.445 740.333 128.313 739.726 128.313C737.493 128.297 736.376 129.873 736.376 133.042ZM755.941 126.885L758.773 134.076L759.389 136.441H759.438L759.906 134.027L762.098 126.885H763.97L759.832 139.47H758.872L755.645 131.343L755.177 129.323H755.103L754.611 131.367L751.508 139.47H750.547L746.262 126.885H748.405L750.843 134.052L751.261 136.441H751.286L751.877 134.003L754.512 126.885H755.941ZM597.184 177.495C596.281 177.478 595.476 177.396 594.77 177.248C594.081 177.117 593.523 176.936 593.096 176.707L593.761 174.909C594.089 175.106 594.532 175.286 595.091 175.45C595.665 175.615 596.363 175.705 597.184 175.721V169.072C596.691 168.825 596.199 168.563 595.706 168.284C595.23 168.005 594.803 167.676 594.426 167.299C594.048 166.904 593.744 166.445 593.514 165.919C593.285 165.394 593.17 164.77 593.17 164.048C593.17 162.865 593.498 161.897 594.155 161.141C594.828 160.386 595.838 159.918 597.184 159.738V157.496H598.859V159.664C599.696 159.697 600.377 159.779 600.903 159.91C601.445 160.025 601.929 160.181 602.356 160.378L601.765 162.102C601.436 161.938 601.042 161.798 600.583 161.683C600.123 161.552 599.548 161.47 598.859 161.437V167.52C599.368 167.783 599.877 168.07 600.386 168.382C600.895 168.678 601.346 169.022 601.74 169.417C602.151 169.811 602.479 170.27 602.725 170.796C602.972 171.321 603.095 171.937 603.095 172.643C603.095 173.924 602.734 174.983 602.011 175.82C601.305 176.641 600.254 177.166 598.859 177.396V179.662H597.184V177.495ZM601.051 172.815C601.051 172.421 600.977 172.068 600.829 171.756C600.698 171.444 600.517 171.165 600.287 170.919C600.057 170.673 599.786 170.451 599.474 170.254C599.162 170.057 598.826 169.868 598.465 169.687V175.672C599.22 175.557 599.836 175.27 600.312 174.81C600.804 174.334 601.051 173.669 601.051 172.815ZM595.214 163.924C595.214 164.63 595.435 165.205 595.879 165.648C596.338 166.092 596.905 166.494 597.578 166.855V161.462C596.708 161.56 596.092 161.847 595.731 162.324C595.386 162.8 595.214 163.333 595.214 163.924ZM614.939 176.386C614.447 176.748 613.864 177.018 613.19 177.199C612.517 177.396 611.811 177.495 611.072 177.495C610.12 177.495 609.316 177.347 608.659 177.051C608.002 176.739 607.46 176.304 607.033 175.746C606.623 175.171 606.319 174.49 606.122 173.702C605.942 172.897 605.851 172.011 605.851 171.042C605.851 168.957 606.311 167.364 607.23 166.264C608.15 165.148 609.472 164.589 611.196 164.589C611.984 164.589 612.649 164.655 613.19 164.786C613.749 164.901 614.249 165.074 614.693 165.304L614.126 167.003C613.749 166.79 613.33 166.625 612.87 166.51C612.411 166.379 611.918 166.313 611.393 166.313C609.061 166.313 607.895 167.89 607.895 171.042C607.895 171.666 607.953 172.265 608.068 172.84C608.199 173.398 608.404 173.899 608.683 174.342C608.979 174.769 609.357 175.114 609.816 175.377C610.293 175.639 610.875 175.771 611.565 175.771C612.156 175.771 612.681 175.68 613.141 175.5C613.617 175.319 614.003 175.114 614.299 174.884L614.939 176.386ZM616.386 171.042C616.386 168.957 616.845 167.364 617.765 166.264C618.701 165.148 620.039 164.589 621.779 164.589C622.699 164.589 623.495 164.745 624.168 165.057C624.858 165.353 625.424 165.788 625.868 166.363C626.311 166.921 626.639 167.602 626.853 168.407C627.066 169.195 627.173 170.073 627.173 171.042C627.173 173.127 626.705 174.728 625.769 175.845C624.85 176.945 623.52 177.495 621.779 177.495C620.86 177.495 620.055 177.347 619.366 177.051C618.692 176.739 618.134 176.304 617.691 175.746C617.248 175.171 616.919 174.49 616.706 173.702C616.492 172.897 616.386 172.011 616.386 171.042ZM618.43 171.042C618.43 171.666 618.487 172.265 618.602 172.84C618.734 173.415 618.931 173.915 619.193 174.342C619.456 174.769 619.801 175.114 620.228 175.377C620.655 175.639 621.172 175.771 621.779 175.771C624.012 175.787 625.129 174.211 625.129 171.042C625.129 170.402 625.063 169.794 624.932 169.22C624.817 168.645 624.628 168.144 624.365 167.717C624.102 167.29 623.758 166.954 623.331 166.707C622.904 166.445 622.387 166.313 621.779 166.313C619.546 166.297 618.43 167.873 618.43 171.042ZM632.471 174.17C632.471 174.744 632.57 175.155 632.767 175.401C632.964 175.648 633.243 175.771 633.604 175.771C633.818 175.771 634.047 175.754 634.294 175.721C634.54 175.689 634.819 175.615 635.131 175.5L635.353 177.051C635.09 177.183 634.721 177.289 634.244 177.371C633.785 177.454 633.382 177.495 633.038 177.495C632.299 177.495 631.691 177.289 631.215 176.879C630.739 176.452 630.501 175.738 630.501 174.736V159.959H632.471V174.17ZM636.781 171.042C636.781 168.957 637.241 167.364 638.16 166.264C639.096 165.148 640.434 164.589 642.175 164.589C643.094 164.589 643.89 164.745 644.563 165.057C645.253 165.353 645.82 165.788 646.263 166.363C646.706 166.921 647.035 167.602 647.248 168.407C647.461 169.195 647.568 170.073 647.568 171.042C647.568 173.127 647.1 174.728 646.164 175.845C645.245 176.945 643.915 177.495 642.175 177.495C641.255 177.495 640.451 177.347 639.761 177.051C639.088 176.739 638.53 176.304 638.086 175.746C637.643 175.171 637.315 174.49 637.101 173.702C636.888 172.897 636.781 172.011 636.781 171.042ZM638.825 171.042C638.825 171.666 638.883 172.265 638.997 172.84C639.129 173.415 639.326 173.915 639.589 174.342C639.851 174.769 640.196 175.114 640.623 175.377C641.05 175.639 641.567 175.771 642.175 175.771C644.408 175.787 645.524 174.211 645.524 171.042C645.524 170.402 645.458 169.794 645.327 169.22C645.212 168.645 645.023 168.144 644.761 167.717C644.498 167.29 644.153 166.954 643.726 166.707C643.299 166.445 642.782 166.313 642.175 166.313C639.942 166.297 638.825 167.873 638.825 171.042ZM656.487 166.781C655.994 166.617 655.526 166.535 655.083 166.535C654.377 166.535 653.819 166.732 653.408 167.126C652.998 167.504 652.743 167.988 652.645 168.579V177.199H650.675V164.885H652.054L652.423 166.387H652.522C652.834 165.829 653.203 165.402 653.63 165.107C654.073 164.795 654.632 164.639 655.305 164.639C655.781 164.639 656.314 164.721 656.906 164.885L656.487 166.781ZM658.601 169.195H664.561V171.017H658.601V169.195ZM677.352 177.766C677.352 179.358 676.925 180.532 676.071 181.287C675.234 182.043 673.986 182.42 672.328 182.42C671.343 182.42 670.546 182.355 669.939 182.223C669.348 182.108 668.839 181.952 668.412 181.755L668.929 180.081C669.307 180.228 669.725 180.368 670.185 180.499C670.645 180.631 671.244 180.696 671.983 180.696C672.672 180.696 673.231 180.631 673.658 180.499C674.101 180.384 674.454 180.179 674.717 179.884C674.979 179.604 675.16 179.235 675.258 178.775C675.357 178.332 675.406 177.798 675.406 177.174V175.992H675.308C674.979 176.468 674.561 176.838 674.052 177.101C673.543 177.347 672.878 177.47 672.057 177.47C670.398 177.47 669.175 176.953 668.387 175.918C667.615 174.884 667.23 173.275 667.23 171.091C667.23 168.99 667.73 167.397 668.732 166.313C669.734 165.213 671.211 164.663 673.165 164.663C674.101 164.663 674.897 164.737 675.554 164.885C676.227 165.033 676.826 165.205 677.352 165.402V177.766ZM672.402 175.746C673.239 175.746 673.896 175.541 674.372 175.13C674.848 174.703 675.185 174.047 675.382 173.16V166.855C674.725 166.543 673.887 166.387 672.87 166.387C671.753 166.387 670.875 166.765 670.234 167.52C669.594 168.275 669.274 169.458 669.274 171.067C669.274 171.756 669.331 172.388 669.446 172.963C669.561 173.538 669.742 174.03 669.988 174.441C670.234 174.851 670.554 175.171 670.949 175.401C671.343 175.631 671.827 175.746 672.402 175.746ZM686.96 166.781C686.467 166.617 685.999 166.535 685.556 166.535C684.85 166.535 684.292 166.732 683.881 167.126C683.471 167.504 683.216 167.988 683.118 168.579V177.199H681.147V164.885H682.527L682.896 166.387H682.994C683.306 165.829 683.676 165.402 684.103 165.107C684.546 164.795 685.104 164.639 685.777 164.639C686.254 164.639 686.787 164.721 687.378 164.885L686.96 166.781ZM689.32 165.796C689.944 165.419 690.666 165.139 691.487 164.959C692.325 164.778 693.195 164.688 694.098 164.688C694.952 164.688 695.633 164.803 696.142 165.033C696.668 165.263 697.062 165.566 697.324 165.944C697.603 166.305 697.784 166.707 697.866 167.151C697.965 167.594 698.014 168.037 698.014 168.481C698.014 169.466 697.989 170.426 697.94 171.362C697.891 172.298 697.866 173.185 697.866 174.022C697.866 174.63 697.891 175.204 697.94 175.746C697.989 176.288 698.08 176.789 698.211 177.248H696.758L696.241 175.524H696.117C695.97 175.754 695.781 175.984 695.551 176.214C695.338 176.427 695.075 176.624 694.763 176.805C694.451 176.969 694.09 177.109 693.679 177.224C693.269 177.339 692.801 177.396 692.275 177.396C691.75 177.396 691.257 177.314 690.798 177.15C690.354 176.986 689.969 176.756 689.64 176.46C689.312 176.148 689.049 175.779 688.852 175.352C688.672 174.925 688.581 174.441 688.581 173.899C688.581 173.176 688.729 172.577 689.025 172.101C689.32 171.608 689.731 171.223 690.256 170.944C690.798 170.648 691.438 170.443 692.177 170.328C692.932 170.196 693.761 170.131 694.664 170.131C694.894 170.131 695.116 170.131 695.329 170.131C695.559 170.131 695.789 170.147 696.019 170.18C696.068 169.687 696.093 169.244 696.093 168.85C696.093 167.947 695.912 167.315 695.551 166.954C695.19 166.593 694.533 166.412 693.581 166.412C693.302 166.412 692.998 166.437 692.67 166.486C692.358 166.519 692.029 166.576 691.684 166.658C691.356 166.724 691.036 166.814 690.724 166.929C690.428 167.028 690.166 167.143 689.936 167.274L689.32 165.796ZM692.817 175.672C693.277 175.672 693.687 175.615 694.049 175.5C694.41 175.368 694.722 175.212 694.985 175.032C695.247 174.835 695.461 174.621 695.625 174.391C695.806 174.162 695.937 173.94 696.019 173.727V171.682C695.789 171.666 695.551 171.658 695.305 171.658C695.075 171.641 694.845 171.633 694.615 171.633C694.106 171.633 693.605 171.666 693.113 171.732C692.637 171.781 692.21 171.888 691.832 172.052C691.471 172.2 691.175 172.413 690.946 172.692C690.732 172.955 690.625 173.291 690.625 173.702C690.625 174.277 690.831 174.753 691.241 175.13C691.652 175.492 692.177 175.672 692.817 175.672ZM705.355 172.865L706.045 175.229H706.168L706.71 172.84L709.099 164.885H711.094L707.449 175.943C707.17 176.748 706.891 177.527 706.611 178.283C706.349 179.038 706.053 179.711 705.725 180.302C705.396 180.893 705.027 181.361 704.617 181.706C704.206 182.067 703.73 182.248 703.188 182.248C702.597 182.248 702.113 182.166 701.735 182.002L702.08 180.302C702.293 180.384 702.499 180.425 702.696 180.425C703.155 180.425 703.599 180.179 704.025 179.687C704.452 179.21 704.805 178.381 705.085 177.199L700.134 164.885H702.4L705.355 172.865ZM712.764 169.195H718.724V171.017H712.764V169.195ZM725.432 175.771C726.565 175.771 727.501 175.442 728.239 174.786C728.978 174.129 729.348 173.176 729.348 171.929C729.348 170.73 728.978 169.835 728.239 169.244C727.517 168.653 726.515 168.358 725.235 168.358L723.166 168.481V159.959H730.85V161.782H725.013V166.683L726.072 166.634C727.698 166.65 728.978 167.101 729.914 167.988C730.85 168.875 731.318 170.147 731.318 171.805C731.318 172.725 731.162 173.546 730.85 174.268C730.538 174.974 730.111 175.565 729.569 176.042C729.044 176.518 728.42 176.879 727.698 177.125C726.975 177.371 726.203 177.495 725.382 177.495C724.644 177.495 724.02 177.454 723.511 177.371C723.002 177.289 722.526 177.166 722.082 177.002L722.599 175.327C722.977 175.475 723.379 175.59 723.806 175.672C724.25 175.738 724.791 175.771 725.432 175.771ZM734.665 168.579C734.665 165.624 735.142 163.399 736.094 161.905C737.063 160.411 738.466 159.664 740.305 159.664C742.292 159.664 743.729 160.403 744.615 161.88C745.518 163.342 745.97 165.575 745.97 168.579C745.97 171.535 745.485 173.759 744.517 175.253C743.564 176.748 742.161 177.495 740.305 177.495C738.351 177.495 736.923 176.715 736.02 175.155C735.117 173.595 734.665 171.403 734.665 168.579ZM736.71 168.579C736.71 169.646 736.775 170.623 736.907 171.51C737.054 172.38 737.276 173.135 737.572 173.776C737.867 174.4 738.237 174.892 738.68 175.253C739.14 175.598 739.681 175.771 740.305 175.771C741.553 175.771 742.464 175.196 743.039 174.047C743.63 172.881 743.926 171.058 743.926 168.579C743.926 167.528 743.86 166.56 743.729 165.673C743.614 164.786 743.408 164.023 743.113 163.383C742.834 162.742 742.464 162.25 742.005 161.905C741.545 161.56 740.978 161.388 740.305 161.388C739.074 161.388 738.163 161.971 737.572 163.136C736.997 164.302 736.71 166.116 736.71 168.579ZM748.086 168.579C748.086 165.624 748.562 163.399 749.514 161.905C750.483 160.411 751.887 159.664 753.726 159.664C755.713 159.664 757.149 160.403 758.036 161.88C758.939 163.342 759.39 165.575 759.39 168.579C759.39 171.535 758.906 173.759 757.937 175.253C756.985 176.748 755.581 177.495 753.726 177.495C751.772 177.495 750.344 176.715 749.44 175.155C748.537 173.595 748.086 171.403 748.086 168.579ZM750.13 168.579C750.13 169.646 750.196 170.623 750.327 171.51C750.475 172.38 750.697 173.135 750.992 173.776C751.288 174.4 751.657 174.892 752.1 175.253C752.56 175.598 753.102 175.771 753.726 175.771C754.974 175.771 755.885 175.196 756.46 174.047C757.051 172.881 757.346 171.058 757.346 168.579C757.346 167.528 757.281 166.56 757.149 165.673C757.034 164.786 756.829 164.023 756.533 163.383C756.254 162.742 755.885 162.25 755.425 161.905C754.965 161.56 754.399 161.388 753.726 161.388C752.494 161.388 751.583 161.971 750.992 163.136C750.417 164.302 750.13 166.116 750.13 168.579Z" fill="#E21E8E"/>
</svg>
